%TF.GenerationSoftware,KiCad,Pcbnew,(5.1.10)-1*%
%TF.CreationDate,2021-09-08T12:56:42-03:00*%
%TF.ProjectId,SSC-THT,5353432d-5448-4542-9e6b-696361645f70,rev?*%
%TF.SameCoordinates,Original*%
%TF.FileFunction,Legend,Bot*%
%TF.FilePolarity,Positive*%
%FSLAX46Y46*%
G04 Gerber Fmt 4.6, Leading zero omitted, Abs format (unit mm)*
G04 Created by KiCad (PCBNEW (5.1.10)-1) date 2021-09-08 12:56:42*
%MOMM*%
%LPD*%
G01*
G04 APERTURE LIST*
%TA.AperFunction,Profile*%
%ADD10C,0.150000*%
%TD*%
%ADD11C,0.300000*%
G04 APERTURE END LIST*
D10*
X68580000Y-90678000D02*
X18034000Y-90678000D01*
D11*
X27654000Y-53788571D02*
X27154000Y-55288571D01*
X26654000Y-53788571D01*
X25296857Y-55145714D02*
X25368285Y-55217142D01*
X25582571Y-55288571D01*
X25725428Y-55288571D01*
X25939714Y-55217142D01*
X26082571Y-55074285D01*
X26154000Y-54931428D01*
X26225428Y-54645714D01*
X26225428Y-54431428D01*
X26154000Y-54145714D01*
X26082571Y-54002857D01*
X25939714Y-53860000D01*
X25725428Y-53788571D01*
X25582571Y-53788571D01*
X25368285Y-53860000D01*
X25296857Y-53931428D01*
X23796857Y-55145714D02*
X23868285Y-55217142D01*
X24082571Y-55288571D01*
X24225428Y-55288571D01*
X24439714Y-55217142D01*
X24582571Y-55074285D01*
X24654000Y-54931428D01*
X24725428Y-54645714D01*
X24725428Y-54431428D01*
X24654000Y-54145714D01*
X24582571Y-54002857D01*
X24439714Y-53860000D01*
X24225428Y-53788571D01*
X24082571Y-53788571D01*
X23868285Y-53860000D01*
X23796857Y-53931428D01*
X27777142Y-72814571D02*
X27777142Y-71314571D01*
X27420000Y-71314571D01*
X27205714Y-71386000D01*
X27062857Y-71528857D01*
X26991428Y-71671714D01*
X26920000Y-71957428D01*
X26920000Y-72171714D01*
X26991428Y-72457428D01*
X27062857Y-72600285D01*
X27205714Y-72743142D01*
X27420000Y-72814571D01*
X27777142Y-72814571D01*
X26348571Y-71457428D02*
X26277142Y-71386000D01*
X26134285Y-71314571D01*
X25777142Y-71314571D01*
X25634285Y-71386000D01*
X25562857Y-71457428D01*
X25491428Y-71600285D01*
X25491428Y-71743142D01*
X25562857Y-71957428D01*
X26420000Y-72814571D01*
X25491428Y-72814571D01*
X27812857Y-65123142D02*
X27598571Y-65194571D01*
X27241428Y-65194571D01*
X27098571Y-65123142D01*
X27027142Y-65051714D01*
X26955714Y-64908857D01*
X26955714Y-64766000D01*
X27027142Y-64623142D01*
X27098571Y-64551714D01*
X27241428Y-64480285D01*
X27527142Y-64408857D01*
X27670000Y-64337428D01*
X27741428Y-64266000D01*
X27812857Y-64123142D01*
X27812857Y-63980285D01*
X27741428Y-63837428D01*
X27670000Y-63766000D01*
X27527142Y-63694571D01*
X27170000Y-63694571D01*
X26955714Y-63766000D01*
X25527142Y-65194571D02*
X26384285Y-65194571D01*
X25955714Y-65194571D02*
X25955714Y-63694571D01*
X26098571Y-63908857D01*
X26241428Y-64051714D01*
X26384285Y-64123142D01*
X27654000Y-66234571D02*
X27154000Y-67734571D01*
X26654000Y-66234571D01*
X25296857Y-67591714D02*
X25368285Y-67663142D01*
X25582571Y-67734571D01*
X25725428Y-67734571D01*
X25939714Y-67663142D01*
X26082571Y-67520285D01*
X26154000Y-67377428D01*
X26225428Y-67091714D01*
X26225428Y-66877428D01*
X26154000Y-66591714D01*
X26082571Y-66448857D01*
X25939714Y-66306000D01*
X25725428Y-66234571D01*
X25582571Y-66234571D01*
X25368285Y-66306000D01*
X25296857Y-66377428D01*
X23796857Y-67591714D02*
X23868285Y-67663142D01*
X24082571Y-67734571D01*
X24225428Y-67734571D01*
X24439714Y-67663142D01*
X24582571Y-67520285D01*
X24654000Y-67377428D01*
X24725428Y-67091714D01*
X24725428Y-66877428D01*
X24654000Y-66591714D01*
X24582571Y-66448857D01*
X24439714Y-66306000D01*
X24225428Y-66234571D01*
X24082571Y-66234571D01*
X23868285Y-66306000D01*
X23796857Y-66377428D01*
X27777142Y-70274571D02*
X27777142Y-68774571D01*
X27420000Y-68774571D01*
X27205714Y-68846000D01*
X27062857Y-68988857D01*
X26991428Y-69131714D01*
X26920000Y-69417428D01*
X26920000Y-69631714D01*
X26991428Y-69917428D01*
X27062857Y-70060285D01*
X27205714Y-70203142D01*
X27420000Y-70274571D01*
X27777142Y-70274571D01*
X26420000Y-68774571D02*
X25491428Y-68774571D01*
X25991428Y-69346000D01*
X25777142Y-69346000D01*
X25634285Y-69417428D01*
X25562857Y-69488857D01*
X25491428Y-69631714D01*
X25491428Y-69988857D01*
X25562857Y-70131714D01*
X25634285Y-70203142D01*
X25777142Y-70274571D01*
X26205714Y-70274571D01*
X26348571Y-70203142D01*
X26420000Y-70131714D01*
X27812857Y-62583142D02*
X27598571Y-62654571D01*
X27241428Y-62654571D01*
X27098571Y-62583142D01*
X27027142Y-62511714D01*
X26955714Y-62368857D01*
X26955714Y-62226000D01*
X27027142Y-62083142D01*
X27098571Y-62011714D01*
X27241428Y-61940285D01*
X27527142Y-61868857D01*
X27670000Y-61797428D01*
X27741428Y-61726000D01*
X27812857Y-61583142D01*
X27812857Y-61440285D01*
X27741428Y-61297428D01*
X27670000Y-61226000D01*
X27527142Y-61154571D01*
X27170000Y-61154571D01*
X26955714Y-61226000D01*
X26027142Y-61154571D02*
X25884285Y-61154571D01*
X25741428Y-61226000D01*
X25670000Y-61297428D01*
X25598571Y-61440285D01*
X25527142Y-61726000D01*
X25527142Y-62083142D01*
X25598571Y-62368857D01*
X25670000Y-62511714D01*
X25741428Y-62583142D01*
X25884285Y-62654571D01*
X26027142Y-62654571D01*
X26170000Y-62583142D01*
X26241428Y-62511714D01*
X26312857Y-62368857D01*
X26384285Y-62083142D01*
X26384285Y-61726000D01*
X26312857Y-61440285D01*
X26241428Y-61297428D01*
X26170000Y-61226000D01*
X26027142Y-61154571D01*
X27777142Y-60114571D02*
X27777142Y-58614571D01*
X27420000Y-58614571D01*
X27205714Y-58686000D01*
X27062857Y-58828857D01*
X26991428Y-58971714D01*
X26920000Y-59257428D01*
X26920000Y-59471714D01*
X26991428Y-59757428D01*
X27062857Y-59900285D01*
X27205714Y-60043142D01*
X27420000Y-60114571D01*
X27777142Y-60114571D01*
X25991428Y-58614571D02*
X25848571Y-58614571D01*
X25705714Y-58686000D01*
X25634285Y-58757428D01*
X25562857Y-58900285D01*
X25491428Y-59186000D01*
X25491428Y-59543142D01*
X25562857Y-59828857D01*
X25634285Y-59971714D01*
X25705714Y-60043142D01*
X25848571Y-60114571D01*
X25991428Y-60114571D01*
X26134285Y-60043142D01*
X26205714Y-59971714D01*
X26277142Y-59828857D01*
X26348571Y-59543142D01*
X26348571Y-59186000D01*
X26277142Y-58900285D01*
X26205714Y-58757428D01*
X26134285Y-58686000D01*
X25991428Y-58614571D01*
X27777142Y-57574571D02*
X27777142Y-56074571D01*
X27420000Y-56074571D01*
X27205714Y-56146000D01*
X27062857Y-56288857D01*
X26991428Y-56431714D01*
X26920000Y-56717428D01*
X26920000Y-56931714D01*
X26991428Y-57217428D01*
X27062857Y-57360285D01*
X27205714Y-57503142D01*
X27420000Y-57574571D01*
X27777142Y-57574571D01*
X25491428Y-57574571D02*
X26348571Y-57574571D01*
X25920000Y-57574571D02*
X25920000Y-56074571D01*
X26062857Y-56288857D01*
X26205714Y-56431714D01*
X26348571Y-56503142D01*
X26796857Y-73926000D02*
X26939714Y-73854571D01*
X27154000Y-73854571D01*
X27368285Y-73926000D01*
X27511142Y-74068857D01*
X27582571Y-74211714D01*
X27654000Y-74497428D01*
X27654000Y-74711714D01*
X27582571Y-74997428D01*
X27511142Y-75140285D01*
X27368285Y-75283142D01*
X27154000Y-75354571D01*
X27011142Y-75354571D01*
X26796857Y-75283142D01*
X26725428Y-75211714D01*
X26725428Y-74711714D01*
X27011142Y-74711714D01*
X26082571Y-75354571D02*
X26082571Y-73854571D01*
X25225428Y-75354571D01*
X25225428Y-73854571D01*
X24511142Y-75354571D02*
X24511142Y-73854571D01*
X24154000Y-73854571D01*
X23939714Y-73926000D01*
X23796857Y-74068857D01*
X23725428Y-74211714D01*
X23654000Y-74497428D01*
X23654000Y-74711714D01*
X23725428Y-74997428D01*
X23796857Y-75140285D01*
X23939714Y-75283142D01*
X24154000Y-75354571D01*
X24511142Y-75354571D01*
D10*
X18034000Y-38354000D02*
X18034000Y-90678000D01*
X68580000Y-38354000D02*
X18034000Y-38354000D01*
X68580000Y-90678000D02*
X68580000Y-38354000D01*
M02*
