%TF.GenerationSoftware,KiCad,Pcbnew,(5.1.10)-1*%
%TF.CreationDate,2021-09-08T12:56:42-03:00*%
%TF.ProjectId,SSC-THT,5353432d-5448-4542-9e6b-696361645f70,rev?*%
%TF.SameCoordinates,Original*%
%TF.FileFunction,Copper,L1,Top*%
%TF.FilePolarity,Positive*%
%FSLAX46Y46*%
G04 Gerber Fmt 4.6, Leading zero omitted, Abs format (unit mm)*
G04 Created by KiCad (PCBNEW (5.1.10)-1) date 2021-09-08 12:56:42*
%MOMM*%
%LPD*%
G01*
G04 APERTURE LIST*
%TA.AperFunction,Profile*%
%ADD10C,0.150000*%
%TD*%
%TA.AperFunction,ComponentPad*%
%ADD11R,1.350000X1.350000*%
%TD*%
%TA.AperFunction,ComponentPad*%
%ADD12O,1.350000X1.350000*%
%TD*%
%TA.AperFunction,SMDPad,CuDef*%
%ADD13C,0.100000*%
%TD*%
%TA.AperFunction,ComponentPad*%
%ADD14R,1.600000X1.600000*%
%TD*%
%TA.AperFunction,ComponentPad*%
%ADD15O,1.600000X1.600000*%
%TD*%
%TA.AperFunction,ComponentPad*%
%ADD16O,1.950000X1.700000*%
%TD*%
%TA.AperFunction,ViaPad*%
%ADD17C,0.800000*%
%TD*%
%TA.AperFunction,Conductor*%
%ADD18C,0.500000*%
%TD*%
%TA.AperFunction,Conductor*%
%ADD19C,0.250000*%
%TD*%
%TA.AperFunction,Conductor*%
%ADD20C,0.254000*%
%TD*%
%TA.AperFunction,Conductor*%
%ADD21C,0.100000*%
%TD*%
%ADD22C,0.350000*%
G04 APERTURE END LIST*
D10*
X68580000Y-90678000D02*
X18034000Y-90678000D01*
X18034000Y-38354000D02*
X18034000Y-90678000D01*
X68580000Y-38354000D02*
X18034000Y-38354000D01*
X68580000Y-90678000D02*
X68580000Y-38354000D01*
D11*
%TO.P,J2,1*%
%TO.N,L*%
X63754000Y-76770000D03*
D12*
%TO.P,J2,2*%
%TO.N,GND*%
X65754000Y-76770000D03*
%TO.P,J2,3*%
%TO.N,RIGHT*%
X63754000Y-74770000D03*
%TO.P,J2,4*%
%TO.N,GND*%
X65754000Y-74770000D03*
%TO.P,J2,5*%
%TO.N,START*%
X63754000Y-72770000D03*
%TO.P,J2,6*%
%TO.N,GND*%
X65754000Y-72770000D03*
%TO.P,J2,7*%
%TO.N,R*%
X63754000Y-70770000D03*
%TO.P,J2,8*%
%TO.N,GND*%
X65754000Y-70770000D03*
%TO.P,J2,9*%
%TO.N,LEFT*%
X63754000Y-68770000D03*
%TO.P,J2,10*%
%TO.N,GND*%
X65754000Y-68770000D03*
%TO.P,J2,11*%
%TO.N,A*%
X63754000Y-66770000D03*
%TO.P,J2,12*%
%TO.N,GND*%
X65754000Y-66770000D03*
%TO.P,J2,13*%
%TO.N,X*%
X63754000Y-64770000D03*
%TO.P,J2,14*%
%TO.N,GND*%
X65754000Y-64770000D03*
%TO.P,J2,15*%
%TO.N,Y*%
X63754000Y-62770000D03*
%TO.P,J2,16*%
%TO.N,GND*%
X65754000Y-62770000D03*
%TO.P,J2,17*%
%TO.N,C*%
X63754000Y-60770000D03*
%TO.P,J2,18*%
%TO.N,GND*%
X65754000Y-60770000D03*
%TO.P,J2,19*%
%TO.N,DOWN*%
X63754000Y-58770000D03*
%TO.P,J2,20*%
%TO.N,GND*%
X65754000Y-58770000D03*
%TO.P,J2,21*%
%TO.N,Z*%
X63754000Y-56770000D03*
%TO.P,J2,22*%
%TO.N,GND*%
X65754000Y-56770000D03*
%TO.P,J2,23*%
%TO.N,B*%
X63754000Y-54770000D03*
%TO.P,J2,24*%
%TO.N,GND*%
X65754000Y-54770000D03*
%TO.P,J2,25*%
%TO.N,UP*%
X63754000Y-52770000D03*
%TO.P,J2,26*%
%TO.N,GND*%
X65754000Y-52770000D03*
%TD*%
%TA.AperFunction,SMDPad,CuDef*%
D13*
%TO.P,SP3,2*%
%TO.N,GND*%
G36*
X54094000Y-55106000D02*
G01*
X52944000Y-55106000D01*
X53444000Y-54356000D01*
X52944000Y-53606000D01*
X54094000Y-53606000D01*
X54094000Y-55106000D01*
G37*
%TD.AperFunction*%
%TA.AperFunction,SMDPad,CuDef*%
%TO.P,SP3,1*%
%TO.N,3C3*%
G36*
X53144000Y-54356000D02*
G01*
X52644000Y-55106000D01*
X51644000Y-55106000D01*
X51644000Y-53606000D01*
X52644000Y-53606000D01*
X53144000Y-54356000D01*
G37*
%TD.AperFunction*%
%TD*%
%TA.AperFunction,SMDPad,CuDef*%
%TO.P,SP2,2*%
%TO.N,GND*%
G36*
X54094000Y-75426000D02*
G01*
X52944000Y-75426000D01*
X53444000Y-74676000D01*
X52944000Y-73926000D01*
X54094000Y-73926000D01*
X54094000Y-75426000D01*
G37*
%TD.AperFunction*%
%TA.AperFunction,SMDPad,CuDef*%
%TO.P,SP2,1*%
%TO.N,2C3*%
G36*
X53144000Y-74676000D02*
G01*
X52644000Y-75426000D01*
X51644000Y-75426000D01*
X51644000Y-73926000D01*
X52644000Y-73926000D01*
X53144000Y-74676000D01*
G37*
%TD.AperFunction*%
%TD*%
D14*
%TO.P,RN1,1*%
%TO.N,VCC*%
X49276000Y-41656000D03*
D15*
%TO.P,RN1,2*%
%TO.N,1C3*%
X49276000Y-44196000D03*
%TO.P,RN1,3*%
%TO.N,UP*%
X49276000Y-46736000D03*
%TO.P,RN1,4*%
%TO.N,B*%
X49276000Y-49276000D03*
%TO.P,RN1,5*%
%TO.N,Z*%
X49276000Y-51816000D03*
%TO.P,RN1,6*%
%TO.N,3C3*%
X49276000Y-54356000D03*
%TO.P,RN1,7*%
%TO.N,DOWN*%
X49276000Y-56896000D03*
%TO.P,RN1,8*%
%TO.N,C*%
X49276000Y-59436000D03*
%TO.P,RN1,9*%
%TO.N,Y*%
X49276000Y-61976000D03*
%TD*%
%TA.AperFunction,SMDPad,CuDef*%
D13*
%TO.P,SP1,2*%
%TO.N,GND*%
G36*
X54311000Y-44946000D02*
G01*
X53161000Y-44946000D01*
X53661000Y-44196000D01*
X53161000Y-43446000D01*
X54311000Y-43446000D01*
X54311000Y-44946000D01*
G37*
%TD.AperFunction*%
%TA.AperFunction,SMDPad,CuDef*%
%TO.P,SP1,1*%
%TO.N,1C3*%
G36*
X53361000Y-44196000D02*
G01*
X52861000Y-44946000D01*
X51861000Y-44946000D01*
X51861000Y-43446000D01*
X52861000Y-43446000D01*
X53361000Y-44196000D01*
G37*
%TD.AperFunction*%
%TD*%
D14*
%TO.P,RN2,1*%
%TO.N,VCC*%
X49276000Y-87376000D03*
D15*
%TO.P,RN2,2*%
%TO.N,L*%
X49276000Y-84836000D03*
%TO.P,RN2,3*%
%TO.N,RIGHT*%
X49276000Y-82296000D03*
%TO.P,RN2,4*%
%TO.N,START*%
X49276000Y-79756000D03*
%TO.P,RN2,5*%
%TO.N,R*%
X49276000Y-77216000D03*
%TO.P,RN2,6*%
%TO.N,2C3*%
X49276000Y-74676000D03*
%TO.P,RN2,7*%
%TO.N,LEFT*%
X49276000Y-72136000D03*
%TO.P,RN2,8*%
%TO.N,A*%
X49276000Y-69596000D03*
%TO.P,RN2,9*%
%TO.N,X*%
X49276000Y-67056000D03*
%TD*%
D14*
%TO.P,U2,1*%
%TO.N,GND*%
X40386000Y-84836000D03*
D15*
%TO.P,U2,9*%
%TO.N,D3*%
X32766000Y-67056000D03*
%TO.P,U2,2*%
%TO.N,S1*%
X40386000Y-82296000D03*
%TO.P,U2,10*%
%TO.N,R*%
X32766000Y-69596000D03*
%TO.P,U2,3*%
%TO.N,2C3*%
X40386000Y-79756000D03*
%TO.P,U2,11*%
%TO.N,START*%
X32766000Y-72136000D03*
%TO.P,U2,4*%
%TO.N,LEFT*%
X40386000Y-77216000D03*
%TO.P,U2,12*%
%TO.N,RIGHT*%
X32766000Y-74676000D03*
%TO.P,U2,5*%
%TO.N,A*%
X40386000Y-74676000D03*
%TO.P,U2,13*%
%TO.N,L*%
X32766000Y-77216000D03*
%TO.P,U2,6*%
%TO.N,X*%
X40386000Y-72136000D03*
%TO.P,U2,14*%
%TO.N,S0*%
X32766000Y-79756000D03*
%TO.P,U2,7*%
%TO.N,D2*%
X40386000Y-69596000D03*
%TO.P,U2,15*%
%TO.N,GND*%
X32766000Y-82296000D03*
%TO.P,U2,8*%
X40386000Y-67056000D03*
%TO.P,U2,16*%
%TO.N,VCC*%
X32766000Y-84836000D03*
%TD*%
D14*
%TO.P,U1,1*%
%TO.N,GND*%
X32766000Y-44196000D03*
D15*
%TO.P,U1,9*%
%TO.N,D1*%
X40386000Y-61976000D03*
%TO.P,U1,2*%
%TO.N,S1*%
X32766000Y-46736000D03*
%TO.P,U1,10*%
%TO.N,Y*%
X40386000Y-59436000D03*
%TO.P,U1,3*%
%TO.N,1C3*%
X32766000Y-49276000D03*
%TO.P,U1,11*%
%TO.N,C*%
X40386000Y-56896000D03*
%TO.P,U1,4*%
%TO.N,UP*%
X32766000Y-51816000D03*
%TO.P,U1,12*%
%TO.N,DOWN*%
X40386000Y-54356000D03*
%TO.P,U1,5*%
%TO.N,B*%
X32766000Y-54356000D03*
%TO.P,U1,13*%
%TO.N,3C3*%
X40386000Y-51816000D03*
%TO.P,U1,6*%
%TO.N,Z*%
X32766000Y-56896000D03*
%TO.P,U1,14*%
%TO.N,S0*%
X40386000Y-49276000D03*
%TO.P,U1,7*%
%TO.N,D0*%
X32766000Y-59436000D03*
%TO.P,U1,15*%
%TO.N,GND*%
X40386000Y-46736000D03*
%TO.P,U1,8*%
X32766000Y-61976000D03*
%TO.P,U1,16*%
%TO.N,VCC*%
X40386000Y-44196000D03*
%TD*%
%TO.P,J1,1*%
%TO.N,VCC*%
%TA.AperFunction,ComponentPad*%
G36*
G01*
X20611000Y-53760000D02*
X22061000Y-53760000D01*
G75*
G02*
X22311000Y-54010000I0J-250000D01*
G01*
X22311000Y-55210000D01*
G75*
G02*
X22061000Y-55460000I-250000J0D01*
G01*
X20611000Y-55460000D01*
G75*
G02*
X20361000Y-55210000I0J250000D01*
G01*
X20361000Y-54010000D01*
G75*
G02*
X20611000Y-53760000I250000J0D01*
G01*
G37*
%TD.AperFunction*%
D16*
%TO.P,J1,2*%
%TO.N,D1*%
X21336000Y-57110000D03*
%TO.P,J1,3*%
%TO.N,D0*%
X21336000Y-59610000D03*
%TO.P,J1,4*%
%TO.N,S0*%
X21336000Y-62110000D03*
%TO.P,J1,5*%
%TO.N,S1*%
X21336000Y-64610000D03*
%TO.P,J1,6*%
%TO.N,VCC*%
X21336000Y-67110000D03*
%TO.P,J1,7*%
%TO.N,D3*%
X21336000Y-69610000D03*
%TO.P,J1,8*%
%TO.N,D2*%
X21336000Y-72110000D03*
%TO.P,J1,9*%
%TO.N,GND*%
X21336000Y-74610000D03*
%TD*%
D17*
%TO.N,GND*%
X54864000Y-73406000D03*
X55626000Y-54610000D03*
X56388000Y-43942000D03*
X45720000Y-51816000D03*
X45720000Y-46990000D03*
X49022000Y-64516000D03*
X50038000Y-64516000D03*
X51054000Y-64516000D03*
X52070000Y-64516000D03*
X53086000Y-64516000D03*
X54102000Y-64516000D03*
X52070000Y-63500000D03*
X53086000Y-63500000D03*
X54102000Y-63500000D03*
X52070000Y-65532000D03*
X53086000Y-65532000D03*
X54102000Y-65532000D03*
%TD*%
D18*
%TO.N,GND*%
X55626000Y-54610000D02*
X53848000Y-54610000D01*
X56134000Y-44196000D02*
X56388000Y-43942000D01*
X53811000Y-44196000D02*
X56134000Y-44196000D01*
X54864000Y-73406000D02*
X54102000Y-74168000D01*
X54102000Y-74168000D02*
X54102000Y-74676000D01*
X53594000Y-74676000D02*
X54102000Y-74676000D01*
D19*
%TO.N,D2*%
X38971001Y-68181001D02*
X40386000Y-69596000D01*
X25264999Y-68181001D02*
X38971001Y-68181001D01*
X21336000Y-72110000D02*
X25264999Y-68181001D01*
%TO.N,D3*%
X23890000Y-67056000D02*
X32766000Y-67056000D01*
X21336000Y-69610000D02*
X23890000Y-67056000D01*
D18*
%TO.N,VCC*%
X19910990Y-68535010D02*
X21336000Y-67110000D01*
X19910990Y-75148481D02*
X19910990Y-68535010D01*
X29598509Y-84836000D02*
X19910990Y-75148481D01*
X32766000Y-84836000D02*
X29598509Y-84836000D01*
X21336000Y-55146509D02*
X21336000Y-54610000D01*
X19910990Y-56571519D02*
X21336000Y-55146509D01*
X19910990Y-68535010D02*
X19910990Y-56571519D01*
X32766000Y-84836000D02*
X36576000Y-88646000D01*
X48006000Y-88646000D02*
X49276000Y-87376000D01*
X36576000Y-88646000D02*
X48006000Y-88646000D01*
D19*
%TO.N,D0*%
X32592000Y-59610000D02*
X32766000Y-59436000D01*
X21336000Y-59610000D02*
X32592000Y-59610000D01*
%TO.N,D1*%
X22536999Y-58310999D02*
X21336000Y-57110000D01*
X36720999Y-58310999D02*
X22536999Y-58310999D01*
X40386000Y-61976000D02*
X36720999Y-58310999D01*
%TO.N,UP*%
X32766000Y-51816000D02*
X34544000Y-51816000D01*
X34544000Y-51816000D02*
X37592000Y-48768000D01*
X44710979Y-42170979D02*
X49276000Y-46736000D01*
X39473199Y-42170979D02*
X44710979Y-42170979D01*
X37592000Y-44052178D02*
X39473199Y-42170979D01*
X37592000Y-48768000D02*
X37592000Y-44052178D01*
X57720000Y-46736000D02*
X49276000Y-46736000D01*
X63754000Y-52770000D02*
X57720000Y-46736000D01*
%TO.N,DOWN*%
X42926000Y-56896000D02*
X40386000Y-54356000D01*
X49276000Y-56896000D02*
X42926000Y-56896000D01*
X61880000Y-56896000D02*
X63754000Y-58770000D01*
X49276000Y-56896000D02*
X61880000Y-56896000D01*
%TO.N,LEFT*%
X44196000Y-77216000D02*
X40386000Y-77216000D01*
X49276000Y-72136000D02*
X44196000Y-77216000D01*
X60388000Y-72136000D02*
X49276000Y-72136000D01*
X63754000Y-68770000D02*
X60388000Y-72136000D01*
%TO.N,RIGHT*%
X38953198Y-86861020D02*
X37199981Y-85107803D01*
X44710980Y-86861020D02*
X38953198Y-86861020D01*
X49276000Y-82296000D02*
X44710980Y-86861020D01*
X37199981Y-79109981D02*
X32766000Y-74676000D01*
X37199981Y-85107803D02*
X37199981Y-79109981D01*
X56228000Y-82296000D02*
X49276000Y-82296000D01*
X63754000Y-74770000D02*
X56228000Y-82296000D01*
%TO.N,X*%
X40386000Y-72136000D02*
X43688000Y-72136000D01*
X48768000Y-67056000D02*
X49276000Y-67056000D01*
X43688000Y-72136000D02*
X48768000Y-67056000D01*
X61468000Y-67056000D02*
X63754000Y-64770000D01*
X49276000Y-67056000D02*
X61468000Y-67056000D01*
%TO.N,Y*%
X42926000Y-61976000D02*
X40386000Y-59436000D01*
X49276000Y-61976000D02*
X42926000Y-61976000D01*
X62960000Y-61976000D02*
X63754000Y-62770000D01*
X49276000Y-61976000D02*
X62960000Y-61976000D01*
%TO.N,Z*%
X38608000Y-51054000D02*
X32766000Y-56896000D01*
X38608000Y-44308998D02*
X38608000Y-51054000D01*
X39845999Y-43070999D02*
X38608000Y-44308998D01*
X41511001Y-43655999D02*
X40926001Y-43070999D01*
X41511001Y-44051001D02*
X41511001Y-43655999D01*
X40926001Y-43070999D02*
X39845999Y-43070999D01*
X49276000Y-51816000D02*
X41511001Y-44051001D01*
X58800000Y-51816000D02*
X63754000Y-56770000D01*
X49276000Y-51816000D02*
X58800000Y-51816000D01*
%TO.N,START*%
X42620989Y-86411011D02*
X49276000Y-79756000D01*
X39139599Y-86411011D02*
X42620989Y-86411011D01*
X37649991Y-84921403D02*
X39139599Y-86411011D01*
X37649991Y-77019991D02*
X37649991Y-84921403D01*
X32766000Y-72136000D02*
X37649991Y-77019991D01*
X56768000Y-79756000D02*
X49276000Y-79756000D01*
X63754000Y-72770000D02*
X56768000Y-79756000D01*
%TO.N,A*%
X44196000Y-74676000D02*
X40386000Y-74676000D01*
X49276000Y-69596000D02*
X44196000Y-74676000D01*
X60928000Y-69596000D02*
X49276000Y-69596000D01*
X63754000Y-66770000D02*
X60928000Y-69596000D01*
%TO.N,B*%
X42620989Y-42620989D02*
X49276000Y-49276000D01*
X39659599Y-42620989D02*
X42620989Y-42620989D01*
X38157991Y-44122597D02*
X39659599Y-42620989D01*
X38157990Y-48964010D02*
X38157991Y-44122597D01*
X32766000Y-54356000D02*
X38157990Y-48964010D01*
X58260000Y-49276000D02*
X49276000Y-49276000D01*
X63754000Y-54770000D02*
X58260000Y-49276000D01*
%TO.N,C*%
X42926000Y-59436000D02*
X40386000Y-56896000D01*
X49276000Y-59436000D02*
X42926000Y-59436000D01*
X62420000Y-59436000D02*
X63754000Y-60770000D01*
X49276000Y-59436000D02*
X62420000Y-59436000D01*
%TO.N,R*%
X39325999Y-85961001D02*
X38100000Y-84735002D01*
X41446001Y-85961001D02*
X39325999Y-85961001D01*
X48150999Y-79256003D02*
X41446001Y-85961001D01*
X48150999Y-78341001D02*
X48150999Y-79256003D01*
X49276000Y-77216000D02*
X48150999Y-78341001D01*
X38100000Y-74930000D02*
X32766000Y-69596000D01*
X38100000Y-84735002D02*
X38100000Y-74930000D01*
X57308000Y-77216000D02*
X63754000Y-70770000D01*
X49276000Y-77216000D02*
X57308000Y-77216000D01*
%TO.N,L*%
X46800970Y-87311030D02*
X49276000Y-84836000D01*
X38766798Y-87311030D02*
X46800970Y-87311030D01*
X33891001Y-82435233D02*
X38766798Y-87311030D01*
X33891001Y-78341001D02*
X33891001Y-82435233D01*
X32766000Y-77216000D02*
X33891001Y-78341001D01*
X55688000Y-84836000D02*
X63754000Y-76770000D01*
X49276000Y-84836000D02*
X55688000Y-84836000D01*
%TO.N,3C3*%
X42926000Y-54356000D02*
X40386000Y-51816000D01*
X49276000Y-54356000D02*
X42926000Y-54356000D01*
X49276000Y-54356000D02*
X52144000Y-54356000D01*
%TO.N,1C3*%
X33891001Y-47116767D02*
X33891001Y-48150999D01*
X39286798Y-41720970D02*
X33891001Y-47116767D01*
X46800970Y-41720970D02*
X39286798Y-41720970D01*
X33891001Y-48150999D02*
X32766000Y-49276000D01*
X49276000Y-44196000D02*
X46800970Y-41720970D01*
X49276000Y-44196000D02*
X52361000Y-44196000D01*
%TO.N,2C3*%
X44196000Y-79756000D02*
X40386000Y-79756000D01*
X49276000Y-74676000D02*
X44196000Y-79756000D01*
X49276000Y-74676000D02*
X52144000Y-74676000D01*
%TD*%
D20*
%TO.N,GND*%
X67870000Y-89968000D02*
X18744000Y-89968000D01*
X18744000Y-87713117D01*
X19093000Y-87713117D01*
X19093000Y-88054883D01*
X19159675Y-88390081D01*
X19290463Y-88705831D01*
X19480337Y-88989998D01*
X19722002Y-89231663D01*
X20006169Y-89421537D01*
X20321919Y-89552325D01*
X20657117Y-89619000D01*
X20998883Y-89619000D01*
X21334081Y-89552325D01*
X21649831Y-89421537D01*
X21933998Y-89231663D01*
X22175663Y-88989998D01*
X22365537Y-88705831D01*
X22496325Y-88390081D01*
X22563000Y-88054883D01*
X22563000Y-87713117D01*
X22496325Y-87377919D01*
X22365537Y-87062169D01*
X22175663Y-86778002D01*
X21933998Y-86536337D01*
X21649831Y-86346463D01*
X21334081Y-86215675D01*
X20998883Y-86149000D01*
X20657117Y-86149000D01*
X20321919Y-86215675D01*
X20006169Y-86346463D01*
X19722002Y-86536337D01*
X19480337Y-86778002D01*
X19290463Y-87062169D01*
X19159675Y-87377919D01*
X19093000Y-87713117D01*
X18744000Y-87713117D01*
X18744000Y-56571519D01*
X19021709Y-56571519D01*
X19025991Y-56614998D01*
X19025990Y-68491541D01*
X19021709Y-68535010D01*
X19025990Y-68578479D01*
X19025990Y-68578486D01*
X19025991Y-68578496D01*
X19025990Y-75105012D01*
X19021709Y-75148481D01*
X19025990Y-75191950D01*
X19025990Y-75191957D01*
X19038795Y-75321970D01*
X19089401Y-75488793D01*
X19171579Y-75642539D01*
X19282173Y-75777298D01*
X19315946Y-75805015D01*
X28941979Y-85431049D01*
X28969692Y-85464817D01*
X29003460Y-85492530D01*
X29003462Y-85492532D01*
X29031725Y-85515727D01*
X29104450Y-85575411D01*
X29258196Y-85657589D01*
X29425019Y-85708195D01*
X29555032Y-85721000D01*
X29555040Y-85721000D01*
X29598509Y-85725281D01*
X29641978Y-85721000D01*
X31631479Y-85721000D01*
X31651363Y-85750759D01*
X31851241Y-85950637D01*
X32086273Y-86107680D01*
X32347426Y-86215853D01*
X32624665Y-86271000D01*
X32907335Y-86271000D01*
X32942439Y-86264017D01*
X35919470Y-89241049D01*
X35947183Y-89274817D01*
X35980951Y-89302530D01*
X35980953Y-89302532D01*
X36081941Y-89385411D01*
X36235686Y-89467589D01*
X36402510Y-89518195D01*
X36532523Y-89531000D01*
X36532531Y-89531000D01*
X36576000Y-89535281D01*
X36619469Y-89531000D01*
X47962531Y-89531000D01*
X48006000Y-89535281D01*
X48049469Y-89531000D01*
X48049477Y-89531000D01*
X48179490Y-89518195D01*
X48346313Y-89467589D01*
X48500059Y-89385411D01*
X48634817Y-89274817D01*
X48662534Y-89241044D01*
X49089506Y-88814072D01*
X50076000Y-88814072D01*
X50200482Y-88801812D01*
X50320180Y-88765502D01*
X50430494Y-88706537D01*
X50527185Y-88627185D01*
X50606537Y-88530494D01*
X50665502Y-88420180D01*
X50701812Y-88300482D01*
X50714072Y-88176000D01*
X50714072Y-87713117D01*
X64051000Y-87713117D01*
X64051000Y-88054883D01*
X64117675Y-88390081D01*
X64248463Y-88705831D01*
X64438337Y-88989998D01*
X64680002Y-89231663D01*
X64964169Y-89421537D01*
X65279919Y-89552325D01*
X65615117Y-89619000D01*
X65956883Y-89619000D01*
X66292081Y-89552325D01*
X66607831Y-89421537D01*
X66891998Y-89231663D01*
X67133663Y-88989998D01*
X67323537Y-88705831D01*
X67454325Y-88390081D01*
X67521000Y-88054883D01*
X67521000Y-87713117D01*
X67454325Y-87377919D01*
X67323537Y-87062169D01*
X67133663Y-86778002D01*
X66891998Y-86536337D01*
X66607831Y-86346463D01*
X66292081Y-86215675D01*
X65956883Y-86149000D01*
X65615117Y-86149000D01*
X65279919Y-86215675D01*
X64964169Y-86346463D01*
X64680002Y-86536337D01*
X64438337Y-86778002D01*
X64248463Y-87062169D01*
X64117675Y-87377919D01*
X64051000Y-87713117D01*
X50714072Y-87713117D01*
X50714072Y-86576000D01*
X50701812Y-86451518D01*
X50665502Y-86331820D01*
X50606537Y-86221506D01*
X50527185Y-86124815D01*
X50430494Y-86045463D01*
X50320180Y-85986498D01*
X50200482Y-85950188D01*
X50192039Y-85949357D01*
X50390637Y-85750759D01*
X50494043Y-85596000D01*
X55650678Y-85596000D01*
X55688000Y-85599676D01*
X55725322Y-85596000D01*
X55725333Y-85596000D01*
X55836986Y-85585003D01*
X55980247Y-85541546D01*
X56112276Y-85470974D01*
X56228001Y-85376001D01*
X56251804Y-85346997D01*
X63515730Y-78083072D01*
X64429000Y-78083072D01*
X64553482Y-78070812D01*
X64673180Y-78034502D01*
X64783494Y-77975537D01*
X64880185Y-77896185D01*
X64954256Y-77805929D01*
X64964463Y-77815344D01*
X65183570Y-77949289D01*
X65424599Y-78037915D01*
X65627000Y-77915085D01*
X65627000Y-76897000D01*
X65881000Y-76897000D01*
X65881000Y-77915085D01*
X66083401Y-78037915D01*
X66324430Y-77949289D01*
X66543537Y-77815344D01*
X66732303Y-77641227D01*
X66883473Y-77433629D01*
X66991238Y-77200528D01*
X67021910Y-77099400D01*
X66898224Y-76897000D01*
X65881000Y-76897000D01*
X65627000Y-76897000D01*
X65607000Y-76897000D01*
X65607000Y-76643000D01*
X65627000Y-76643000D01*
X65627000Y-74897000D01*
X65881000Y-74897000D01*
X65881000Y-76643000D01*
X66898224Y-76643000D01*
X67021910Y-76440600D01*
X66991238Y-76339472D01*
X66883473Y-76106371D01*
X66732303Y-75898773D01*
X66592696Y-75770000D01*
X66732303Y-75641227D01*
X66883473Y-75433629D01*
X66991238Y-75200528D01*
X67021910Y-75099400D01*
X66898224Y-74897000D01*
X65881000Y-74897000D01*
X65627000Y-74897000D01*
X65607000Y-74897000D01*
X65607000Y-74643000D01*
X65627000Y-74643000D01*
X65627000Y-72897000D01*
X65881000Y-72897000D01*
X65881000Y-74643000D01*
X66898224Y-74643000D01*
X67021910Y-74440600D01*
X66991238Y-74339472D01*
X66883473Y-74106371D01*
X66732303Y-73898773D01*
X66592696Y-73770000D01*
X66732303Y-73641227D01*
X66883473Y-73433629D01*
X66991238Y-73200528D01*
X67021910Y-73099400D01*
X66898224Y-72897000D01*
X65881000Y-72897000D01*
X65627000Y-72897000D01*
X65607000Y-72897000D01*
X65607000Y-72643000D01*
X65627000Y-72643000D01*
X65627000Y-70897000D01*
X65881000Y-70897000D01*
X65881000Y-72643000D01*
X66898224Y-72643000D01*
X67021910Y-72440600D01*
X66991238Y-72339472D01*
X66883473Y-72106371D01*
X66732303Y-71898773D01*
X66592696Y-71770000D01*
X66732303Y-71641227D01*
X66883473Y-71433629D01*
X66991238Y-71200528D01*
X67021910Y-71099400D01*
X66898224Y-70897000D01*
X65881000Y-70897000D01*
X65627000Y-70897000D01*
X65607000Y-70897000D01*
X65607000Y-70643000D01*
X65627000Y-70643000D01*
X65627000Y-68897000D01*
X65881000Y-68897000D01*
X65881000Y-70643000D01*
X66898224Y-70643000D01*
X67021910Y-70440600D01*
X66991238Y-70339472D01*
X66883473Y-70106371D01*
X66732303Y-69898773D01*
X66592696Y-69770000D01*
X66732303Y-69641227D01*
X66883473Y-69433629D01*
X66991238Y-69200528D01*
X67021910Y-69099400D01*
X66898224Y-68897000D01*
X65881000Y-68897000D01*
X65627000Y-68897000D01*
X65607000Y-68897000D01*
X65607000Y-68643000D01*
X65627000Y-68643000D01*
X65627000Y-66897000D01*
X65881000Y-66897000D01*
X65881000Y-68643000D01*
X66898224Y-68643000D01*
X67021910Y-68440600D01*
X66991238Y-68339472D01*
X66883473Y-68106371D01*
X66732303Y-67898773D01*
X66592696Y-67770000D01*
X66732303Y-67641227D01*
X66883473Y-67433629D01*
X66991238Y-67200528D01*
X67021910Y-67099400D01*
X66898224Y-66897000D01*
X65881000Y-66897000D01*
X65627000Y-66897000D01*
X65607000Y-66897000D01*
X65607000Y-66643000D01*
X65627000Y-66643000D01*
X65627000Y-64897000D01*
X65881000Y-64897000D01*
X65881000Y-66643000D01*
X66898224Y-66643000D01*
X67021910Y-66440600D01*
X66991238Y-66339472D01*
X66883473Y-66106371D01*
X66732303Y-65898773D01*
X66592696Y-65770000D01*
X66732303Y-65641227D01*
X66883473Y-65433629D01*
X66991238Y-65200528D01*
X67021910Y-65099400D01*
X66898224Y-64897000D01*
X65881000Y-64897000D01*
X65627000Y-64897000D01*
X65607000Y-64897000D01*
X65607000Y-64643000D01*
X65627000Y-64643000D01*
X65627000Y-62897000D01*
X65881000Y-62897000D01*
X65881000Y-64643000D01*
X66898224Y-64643000D01*
X67021910Y-64440600D01*
X66991238Y-64339472D01*
X66883473Y-64106371D01*
X66732303Y-63898773D01*
X66592696Y-63770000D01*
X66732303Y-63641227D01*
X66883473Y-63433629D01*
X66991238Y-63200528D01*
X67021910Y-63099400D01*
X66898224Y-62897000D01*
X65881000Y-62897000D01*
X65627000Y-62897000D01*
X65607000Y-62897000D01*
X65607000Y-62643000D01*
X65627000Y-62643000D01*
X65627000Y-60897000D01*
X65881000Y-60897000D01*
X65881000Y-62643000D01*
X66898224Y-62643000D01*
X67021910Y-62440600D01*
X66991238Y-62339472D01*
X66883473Y-62106371D01*
X66732303Y-61898773D01*
X66592696Y-61770000D01*
X66732303Y-61641227D01*
X66883473Y-61433629D01*
X66991238Y-61200528D01*
X67021910Y-61099400D01*
X66898224Y-60897000D01*
X65881000Y-60897000D01*
X65627000Y-60897000D01*
X65607000Y-60897000D01*
X65607000Y-60643000D01*
X65627000Y-60643000D01*
X65627000Y-58897000D01*
X65881000Y-58897000D01*
X65881000Y-60643000D01*
X66898224Y-60643000D01*
X67021910Y-60440600D01*
X66991238Y-60339472D01*
X66883473Y-60106371D01*
X66732303Y-59898773D01*
X66592696Y-59770000D01*
X66732303Y-59641227D01*
X66883473Y-59433629D01*
X66991238Y-59200528D01*
X67021910Y-59099400D01*
X66898224Y-58897000D01*
X65881000Y-58897000D01*
X65627000Y-58897000D01*
X65607000Y-58897000D01*
X65607000Y-58643000D01*
X65627000Y-58643000D01*
X65627000Y-56897000D01*
X65881000Y-56897000D01*
X65881000Y-58643000D01*
X66898224Y-58643000D01*
X67021910Y-58440600D01*
X66991238Y-58339472D01*
X66883473Y-58106371D01*
X66732303Y-57898773D01*
X66592696Y-57770000D01*
X66732303Y-57641227D01*
X66883473Y-57433629D01*
X66991238Y-57200528D01*
X67021910Y-57099400D01*
X66898224Y-56897000D01*
X65881000Y-56897000D01*
X65627000Y-56897000D01*
X65607000Y-56897000D01*
X65607000Y-56643000D01*
X65627000Y-56643000D01*
X65627000Y-54897000D01*
X65881000Y-54897000D01*
X65881000Y-56643000D01*
X66898224Y-56643000D01*
X67021910Y-56440600D01*
X66991238Y-56339472D01*
X66883473Y-56106371D01*
X66732303Y-55898773D01*
X66592696Y-55770000D01*
X66732303Y-55641227D01*
X66883473Y-55433629D01*
X66991238Y-55200528D01*
X67021910Y-55099400D01*
X66898224Y-54897000D01*
X65881000Y-54897000D01*
X65627000Y-54897000D01*
X65607000Y-54897000D01*
X65607000Y-54643000D01*
X65627000Y-54643000D01*
X65627000Y-52897000D01*
X65881000Y-52897000D01*
X65881000Y-54643000D01*
X66898224Y-54643000D01*
X67021910Y-54440600D01*
X66991238Y-54339472D01*
X66883473Y-54106371D01*
X66732303Y-53898773D01*
X66592696Y-53770000D01*
X66732303Y-53641227D01*
X66883473Y-53433629D01*
X66991238Y-53200528D01*
X67021910Y-53099400D01*
X66898224Y-52897000D01*
X65881000Y-52897000D01*
X65627000Y-52897000D01*
X65607000Y-52897000D01*
X65607000Y-52643000D01*
X65627000Y-52643000D01*
X65627000Y-51624915D01*
X65881000Y-51624915D01*
X65881000Y-52643000D01*
X66898224Y-52643000D01*
X67021910Y-52440600D01*
X66991238Y-52339472D01*
X66883473Y-52106371D01*
X66732303Y-51898773D01*
X66543537Y-51724656D01*
X66324430Y-51590711D01*
X66083401Y-51502085D01*
X65881000Y-51624915D01*
X65627000Y-51624915D01*
X65424599Y-51502085D01*
X65183570Y-51590711D01*
X64964463Y-51724656D01*
X64775697Y-51898773D01*
X64758715Y-51922094D01*
X64589077Y-51752456D01*
X64374518Y-51609093D01*
X64136113Y-51510342D01*
X63883024Y-51460000D01*
X63624976Y-51460000D01*
X63536417Y-51477615D01*
X58283804Y-46225003D01*
X58260001Y-46195999D01*
X58144276Y-46101026D01*
X58012247Y-46030454D01*
X57868986Y-45986997D01*
X57757333Y-45976000D01*
X57757322Y-45976000D01*
X57720000Y-45972324D01*
X57682678Y-45976000D01*
X50494043Y-45976000D01*
X50390637Y-45821241D01*
X50190759Y-45621363D01*
X49958241Y-45466000D01*
X50190759Y-45310637D01*
X50390637Y-45110759D01*
X50494043Y-44956000D01*
X51223913Y-44956000D01*
X51235188Y-45070482D01*
X51271498Y-45190180D01*
X51330463Y-45300494D01*
X51409815Y-45397185D01*
X51506506Y-45476537D01*
X51616820Y-45535502D01*
X51736518Y-45571812D01*
X51861000Y-45584072D01*
X52861000Y-45584072D01*
X52986136Y-45571681D01*
X53105796Y-45535246D01*
X53216049Y-45476166D01*
X53312657Y-45396713D01*
X53391908Y-45299939D01*
X53891908Y-44549939D01*
X53950246Y-44440796D01*
X53986681Y-44321136D01*
X53999072Y-44196667D01*
X53986941Y-44072173D01*
X53950757Y-43952437D01*
X53891908Y-43842061D01*
X53391908Y-43092061D01*
X53312185Y-42994815D01*
X53215494Y-42915463D01*
X53105180Y-42856498D01*
X52985482Y-42820188D01*
X52861000Y-42807928D01*
X51861000Y-42807928D01*
X51736518Y-42820188D01*
X51616820Y-42856498D01*
X51506506Y-42915463D01*
X51409815Y-42994815D01*
X51330463Y-43091506D01*
X51271498Y-43201820D01*
X51235188Y-43321518D01*
X51223913Y-43436000D01*
X50494043Y-43436000D01*
X50390637Y-43281241D01*
X50192039Y-43082643D01*
X50200482Y-43081812D01*
X50320180Y-43045502D01*
X50430494Y-42986537D01*
X50527185Y-42907185D01*
X50606537Y-42810494D01*
X50665502Y-42700180D01*
X50701812Y-42580482D01*
X50714072Y-42456000D01*
X50714072Y-40977117D01*
X64051000Y-40977117D01*
X64051000Y-41318883D01*
X64117675Y-41654081D01*
X64248463Y-41969831D01*
X64438337Y-42253998D01*
X64680002Y-42495663D01*
X64964169Y-42685537D01*
X65279919Y-42816325D01*
X65615117Y-42883000D01*
X65956883Y-42883000D01*
X66292081Y-42816325D01*
X66607831Y-42685537D01*
X66891998Y-42495663D01*
X67133663Y-42253998D01*
X67323537Y-41969831D01*
X67454325Y-41654081D01*
X67521000Y-41318883D01*
X67521000Y-40977117D01*
X67454325Y-40641919D01*
X67323537Y-40326169D01*
X67133663Y-40042002D01*
X66891998Y-39800337D01*
X66607831Y-39610463D01*
X66292081Y-39479675D01*
X65956883Y-39413000D01*
X65615117Y-39413000D01*
X65279919Y-39479675D01*
X64964169Y-39610463D01*
X64680002Y-39800337D01*
X64438337Y-40042002D01*
X64248463Y-40326169D01*
X64117675Y-40641919D01*
X64051000Y-40977117D01*
X50714072Y-40977117D01*
X50714072Y-40856000D01*
X50701812Y-40731518D01*
X50665502Y-40611820D01*
X50606537Y-40501506D01*
X50527185Y-40404815D01*
X50430494Y-40325463D01*
X50320180Y-40266498D01*
X50200482Y-40230188D01*
X50076000Y-40217928D01*
X48476000Y-40217928D01*
X48351518Y-40230188D01*
X48231820Y-40266498D01*
X48121506Y-40325463D01*
X48024815Y-40404815D01*
X47945463Y-40501506D01*
X47886498Y-40611820D01*
X47850188Y-40731518D01*
X47837928Y-40856000D01*
X47837928Y-41683127D01*
X47364774Y-41209973D01*
X47340971Y-41180969D01*
X47225246Y-41085996D01*
X47093217Y-41015424D01*
X46949956Y-40971967D01*
X46838303Y-40960970D01*
X46838292Y-40960970D01*
X46800970Y-40957294D01*
X46763648Y-40960970D01*
X39324120Y-40960970D01*
X39286797Y-40957294D01*
X39249474Y-40960970D01*
X39249465Y-40960970D01*
X39137812Y-40971967D01*
X38994551Y-41015424D01*
X38862522Y-41085996D01*
X38746797Y-41180969D01*
X38722999Y-41209967D01*
X33973198Y-45959769D01*
X33880637Y-45821241D01*
X33682039Y-45622643D01*
X33690482Y-45621812D01*
X33810180Y-45585502D01*
X33920494Y-45526537D01*
X34017185Y-45447185D01*
X34096537Y-45350494D01*
X34155502Y-45240180D01*
X34191812Y-45120482D01*
X34204072Y-44996000D01*
X34201000Y-44481750D01*
X34042250Y-44323000D01*
X32893000Y-44323000D01*
X32893000Y-44343000D01*
X32639000Y-44343000D01*
X32639000Y-44323000D01*
X31489750Y-44323000D01*
X31331000Y-44481750D01*
X31327928Y-44996000D01*
X31340188Y-45120482D01*
X31376498Y-45240180D01*
X31435463Y-45350494D01*
X31514815Y-45447185D01*
X31611506Y-45526537D01*
X31721820Y-45585502D01*
X31841518Y-45621812D01*
X31849961Y-45622643D01*
X31651363Y-45821241D01*
X31494320Y-46056273D01*
X31386147Y-46317426D01*
X31331000Y-46594665D01*
X31331000Y-46877335D01*
X31386147Y-47154574D01*
X31494320Y-47415727D01*
X31651363Y-47650759D01*
X31851241Y-47850637D01*
X32083759Y-48006000D01*
X31851241Y-48161363D01*
X31651363Y-48361241D01*
X31494320Y-48596273D01*
X31386147Y-48857426D01*
X31331000Y-49134665D01*
X31331000Y-49417335D01*
X31386147Y-49694574D01*
X31494320Y-49955727D01*
X31651363Y-50190759D01*
X31851241Y-50390637D01*
X32083759Y-50546000D01*
X31851241Y-50701363D01*
X31651363Y-50901241D01*
X31494320Y-51136273D01*
X31386147Y-51397426D01*
X31331000Y-51674665D01*
X31331000Y-51957335D01*
X31386147Y-52234574D01*
X31494320Y-52495727D01*
X31651363Y-52730759D01*
X31851241Y-52930637D01*
X32083759Y-53086000D01*
X31851241Y-53241363D01*
X31651363Y-53441241D01*
X31494320Y-53676273D01*
X31386147Y-53937426D01*
X31331000Y-54214665D01*
X31331000Y-54497335D01*
X31386147Y-54774574D01*
X31494320Y-55035727D01*
X31651363Y-55270759D01*
X31851241Y-55470637D01*
X32083759Y-55626000D01*
X31851241Y-55781363D01*
X31651363Y-55981241D01*
X31494320Y-56216273D01*
X31386147Y-56477426D01*
X31331000Y-56754665D01*
X31331000Y-57037335D01*
X31386147Y-57314574D01*
X31484077Y-57550999D01*
X22879045Y-57550999D01*
X22924513Y-57401111D01*
X22953185Y-57110000D01*
X22924513Y-56818889D01*
X22839599Y-56538966D01*
X22701706Y-56280986D01*
X22516134Y-56054866D01*
X22452663Y-56002777D01*
X22554386Y-55948405D01*
X22688962Y-55837962D01*
X22799405Y-55703386D01*
X22881472Y-55549850D01*
X22932008Y-55383254D01*
X22949072Y-55210000D01*
X22949072Y-54010000D01*
X22932008Y-53836746D01*
X22881472Y-53670150D01*
X22799405Y-53516614D01*
X22688962Y-53382038D01*
X22554386Y-53271595D01*
X22400850Y-53189528D01*
X22234254Y-53138992D01*
X22061000Y-53121928D01*
X20611000Y-53121928D01*
X20437746Y-53138992D01*
X20271150Y-53189528D01*
X20117614Y-53271595D01*
X19983038Y-53382038D01*
X19872595Y-53516614D01*
X19790528Y-53670150D01*
X19739992Y-53836746D01*
X19722928Y-54010000D01*
X19722928Y-55210000D01*
X19739992Y-55383254D01*
X19765055Y-55465876D01*
X19315941Y-55914990D01*
X19282174Y-55942702D01*
X19254461Y-55976470D01*
X19254458Y-55976473D01*
X19171580Y-56077460D01*
X19089402Y-56231206D01*
X19038795Y-56398029D01*
X19021709Y-56571519D01*
X18744000Y-56571519D01*
X18744000Y-43396000D01*
X31327928Y-43396000D01*
X31331000Y-43910250D01*
X31489750Y-44069000D01*
X32639000Y-44069000D01*
X32639000Y-42919750D01*
X32893000Y-42919750D01*
X32893000Y-44069000D01*
X34042250Y-44069000D01*
X34201000Y-43910250D01*
X34204072Y-43396000D01*
X34191812Y-43271518D01*
X34155502Y-43151820D01*
X34096537Y-43041506D01*
X34017185Y-42944815D01*
X33920494Y-42865463D01*
X33810180Y-42806498D01*
X33690482Y-42770188D01*
X33566000Y-42757928D01*
X33051750Y-42761000D01*
X32893000Y-42919750D01*
X32639000Y-42919750D01*
X32480250Y-42761000D01*
X31966000Y-42757928D01*
X31841518Y-42770188D01*
X31721820Y-42806498D01*
X31611506Y-42865463D01*
X31514815Y-42944815D01*
X31435463Y-43041506D01*
X31376498Y-43151820D01*
X31340188Y-43271518D01*
X31327928Y-43396000D01*
X18744000Y-43396000D01*
X18744000Y-40977117D01*
X19093000Y-40977117D01*
X19093000Y-41318883D01*
X19159675Y-41654081D01*
X19290463Y-41969831D01*
X19480337Y-42253998D01*
X19722002Y-42495663D01*
X20006169Y-42685537D01*
X20321919Y-42816325D01*
X20657117Y-42883000D01*
X20998883Y-42883000D01*
X21334081Y-42816325D01*
X21649831Y-42685537D01*
X21933998Y-42495663D01*
X22175663Y-42253998D01*
X22365537Y-41969831D01*
X22496325Y-41654081D01*
X22563000Y-41318883D01*
X22563000Y-40977117D01*
X22496325Y-40641919D01*
X22365537Y-40326169D01*
X22175663Y-40042002D01*
X21933998Y-39800337D01*
X21649831Y-39610463D01*
X21334081Y-39479675D01*
X20998883Y-39413000D01*
X20657117Y-39413000D01*
X20321919Y-39479675D01*
X20006169Y-39610463D01*
X19722002Y-39800337D01*
X19480337Y-40042002D01*
X19290463Y-40326169D01*
X19159675Y-40641919D01*
X19093000Y-40977117D01*
X18744000Y-40977117D01*
X18744000Y-39064000D01*
X67870001Y-39064000D01*
X67870000Y-89968000D01*
%TA.AperFunction,Conductor*%
D21*
G36*
X67870000Y-89968000D02*
G01*
X18744000Y-89968000D01*
X18744000Y-87713117D01*
X19093000Y-87713117D01*
X19093000Y-88054883D01*
X19159675Y-88390081D01*
X19290463Y-88705831D01*
X19480337Y-88989998D01*
X19722002Y-89231663D01*
X20006169Y-89421537D01*
X20321919Y-89552325D01*
X20657117Y-89619000D01*
X20998883Y-89619000D01*
X21334081Y-89552325D01*
X21649831Y-89421537D01*
X21933998Y-89231663D01*
X22175663Y-88989998D01*
X22365537Y-88705831D01*
X22496325Y-88390081D01*
X22563000Y-88054883D01*
X22563000Y-87713117D01*
X22496325Y-87377919D01*
X22365537Y-87062169D01*
X22175663Y-86778002D01*
X21933998Y-86536337D01*
X21649831Y-86346463D01*
X21334081Y-86215675D01*
X20998883Y-86149000D01*
X20657117Y-86149000D01*
X20321919Y-86215675D01*
X20006169Y-86346463D01*
X19722002Y-86536337D01*
X19480337Y-86778002D01*
X19290463Y-87062169D01*
X19159675Y-87377919D01*
X19093000Y-87713117D01*
X18744000Y-87713117D01*
X18744000Y-56571519D01*
X19021709Y-56571519D01*
X19025991Y-56614998D01*
X19025990Y-68491541D01*
X19021709Y-68535010D01*
X19025990Y-68578479D01*
X19025990Y-68578486D01*
X19025991Y-68578496D01*
X19025990Y-75105012D01*
X19021709Y-75148481D01*
X19025990Y-75191950D01*
X19025990Y-75191957D01*
X19038795Y-75321970D01*
X19089401Y-75488793D01*
X19171579Y-75642539D01*
X19282173Y-75777298D01*
X19315946Y-75805015D01*
X28941979Y-85431049D01*
X28969692Y-85464817D01*
X29003460Y-85492530D01*
X29003462Y-85492532D01*
X29031725Y-85515727D01*
X29104450Y-85575411D01*
X29258196Y-85657589D01*
X29425019Y-85708195D01*
X29555032Y-85721000D01*
X29555040Y-85721000D01*
X29598509Y-85725281D01*
X29641978Y-85721000D01*
X31631479Y-85721000D01*
X31651363Y-85750759D01*
X31851241Y-85950637D01*
X32086273Y-86107680D01*
X32347426Y-86215853D01*
X32624665Y-86271000D01*
X32907335Y-86271000D01*
X32942439Y-86264017D01*
X35919470Y-89241049D01*
X35947183Y-89274817D01*
X35980951Y-89302530D01*
X35980953Y-89302532D01*
X36081941Y-89385411D01*
X36235686Y-89467589D01*
X36402510Y-89518195D01*
X36532523Y-89531000D01*
X36532531Y-89531000D01*
X36576000Y-89535281D01*
X36619469Y-89531000D01*
X47962531Y-89531000D01*
X48006000Y-89535281D01*
X48049469Y-89531000D01*
X48049477Y-89531000D01*
X48179490Y-89518195D01*
X48346313Y-89467589D01*
X48500059Y-89385411D01*
X48634817Y-89274817D01*
X48662534Y-89241044D01*
X49089506Y-88814072D01*
X50076000Y-88814072D01*
X50200482Y-88801812D01*
X50320180Y-88765502D01*
X50430494Y-88706537D01*
X50527185Y-88627185D01*
X50606537Y-88530494D01*
X50665502Y-88420180D01*
X50701812Y-88300482D01*
X50714072Y-88176000D01*
X50714072Y-87713117D01*
X64051000Y-87713117D01*
X64051000Y-88054883D01*
X64117675Y-88390081D01*
X64248463Y-88705831D01*
X64438337Y-88989998D01*
X64680002Y-89231663D01*
X64964169Y-89421537D01*
X65279919Y-89552325D01*
X65615117Y-89619000D01*
X65956883Y-89619000D01*
X66292081Y-89552325D01*
X66607831Y-89421537D01*
X66891998Y-89231663D01*
X67133663Y-88989998D01*
X67323537Y-88705831D01*
X67454325Y-88390081D01*
X67521000Y-88054883D01*
X67521000Y-87713117D01*
X67454325Y-87377919D01*
X67323537Y-87062169D01*
X67133663Y-86778002D01*
X66891998Y-86536337D01*
X66607831Y-86346463D01*
X66292081Y-86215675D01*
X65956883Y-86149000D01*
X65615117Y-86149000D01*
X65279919Y-86215675D01*
X64964169Y-86346463D01*
X64680002Y-86536337D01*
X64438337Y-86778002D01*
X64248463Y-87062169D01*
X64117675Y-87377919D01*
X64051000Y-87713117D01*
X50714072Y-87713117D01*
X50714072Y-86576000D01*
X50701812Y-86451518D01*
X50665502Y-86331820D01*
X50606537Y-86221506D01*
X50527185Y-86124815D01*
X50430494Y-86045463D01*
X50320180Y-85986498D01*
X50200482Y-85950188D01*
X50192039Y-85949357D01*
X50390637Y-85750759D01*
X50494043Y-85596000D01*
X55650678Y-85596000D01*
X55688000Y-85599676D01*
X55725322Y-85596000D01*
X55725333Y-85596000D01*
X55836986Y-85585003D01*
X55980247Y-85541546D01*
X56112276Y-85470974D01*
X56228001Y-85376001D01*
X56251804Y-85346997D01*
X63515730Y-78083072D01*
X64429000Y-78083072D01*
X64553482Y-78070812D01*
X64673180Y-78034502D01*
X64783494Y-77975537D01*
X64880185Y-77896185D01*
X64954256Y-77805929D01*
X64964463Y-77815344D01*
X65183570Y-77949289D01*
X65424599Y-78037915D01*
X65627000Y-77915085D01*
X65627000Y-76897000D01*
X65881000Y-76897000D01*
X65881000Y-77915085D01*
X66083401Y-78037915D01*
X66324430Y-77949289D01*
X66543537Y-77815344D01*
X66732303Y-77641227D01*
X66883473Y-77433629D01*
X66991238Y-77200528D01*
X67021910Y-77099400D01*
X66898224Y-76897000D01*
X65881000Y-76897000D01*
X65627000Y-76897000D01*
X65607000Y-76897000D01*
X65607000Y-76643000D01*
X65627000Y-76643000D01*
X65627000Y-74897000D01*
X65881000Y-74897000D01*
X65881000Y-76643000D01*
X66898224Y-76643000D01*
X67021910Y-76440600D01*
X66991238Y-76339472D01*
X66883473Y-76106371D01*
X66732303Y-75898773D01*
X66592696Y-75770000D01*
X66732303Y-75641227D01*
X66883473Y-75433629D01*
X66991238Y-75200528D01*
X67021910Y-75099400D01*
X66898224Y-74897000D01*
X65881000Y-74897000D01*
X65627000Y-74897000D01*
X65607000Y-74897000D01*
X65607000Y-74643000D01*
X65627000Y-74643000D01*
X65627000Y-72897000D01*
X65881000Y-72897000D01*
X65881000Y-74643000D01*
X66898224Y-74643000D01*
X67021910Y-74440600D01*
X66991238Y-74339472D01*
X66883473Y-74106371D01*
X66732303Y-73898773D01*
X66592696Y-73770000D01*
X66732303Y-73641227D01*
X66883473Y-73433629D01*
X66991238Y-73200528D01*
X67021910Y-73099400D01*
X66898224Y-72897000D01*
X65881000Y-72897000D01*
X65627000Y-72897000D01*
X65607000Y-72897000D01*
X65607000Y-72643000D01*
X65627000Y-72643000D01*
X65627000Y-70897000D01*
X65881000Y-70897000D01*
X65881000Y-72643000D01*
X66898224Y-72643000D01*
X67021910Y-72440600D01*
X66991238Y-72339472D01*
X66883473Y-72106371D01*
X66732303Y-71898773D01*
X66592696Y-71770000D01*
X66732303Y-71641227D01*
X66883473Y-71433629D01*
X66991238Y-71200528D01*
X67021910Y-71099400D01*
X66898224Y-70897000D01*
X65881000Y-70897000D01*
X65627000Y-70897000D01*
X65607000Y-70897000D01*
X65607000Y-70643000D01*
X65627000Y-70643000D01*
X65627000Y-68897000D01*
X65881000Y-68897000D01*
X65881000Y-70643000D01*
X66898224Y-70643000D01*
X67021910Y-70440600D01*
X66991238Y-70339472D01*
X66883473Y-70106371D01*
X66732303Y-69898773D01*
X66592696Y-69770000D01*
X66732303Y-69641227D01*
X66883473Y-69433629D01*
X66991238Y-69200528D01*
X67021910Y-69099400D01*
X66898224Y-68897000D01*
X65881000Y-68897000D01*
X65627000Y-68897000D01*
X65607000Y-68897000D01*
X65607000Y-68643000D01*
X65627000Y-68643000D01*
X65627000Y-66897000D01*
X65881000Y-66897000D01*
X65881000Y-68643000D01*
X66898224Y-68643000D01*
X67021910Y-68440600D01*
X66991238Y-68339472D01*
X66883473Y-68106371D01*
X66732303Y-67898773D01*
X66592696Y-67770000D01*
X66732303Y-67641227D01*
X66883473Y-67433629D01*
X66991238Y-67200528D01*
X67021910Y-67099400D01*
X66898224Y-66897000D01*
X65881000Y-66897000D01*
X65627000Y-66897000D01*
X65607000Y-66897000D01*
X65607000Y-66643000D01*
X65627000Y-66643000D01*
X65627000Y-64897000D01*
X65881000Y-64897000D01*
X65881000Y-66643000D01*
X66898224Y-66643000D01*
X67021910Y-66440600D01*
X66991238Y-66339472D01*
X66883473Y-66106371D01*
X66732303Y-65898773D01*
X66592696Y-65770000D01*
X66732303Y-65641227D01*
X66883473Y-65433629D01*
X66991238Y-65200528D01*
X67021910Y-65099400D01*
X66898224Y-64897000D01*
X65881000Y-64897000D01*
X65627000Y-64897000D01*
X65607000Y-64897000D01*
X65607000Y-64643000D01*
X65627000Y-64643000D01*
X65627000Y-62897000D01*
X65881000Y-62897000D01*
X65881000Y-64643000D01*
X66898224Y-64643000D01*
X67021910Y-64440600D01*
X66991238Y-64339472D01*
X66883473Y-64106371D01*
X66732303Y-63898773D01*
X66592696Y-63770000D01*
X66732303Y-63641227D01*
X66883473Y-63433629D01*
X66991238Y-63200528D01*
X67021910Y-63099400D01*
X66898224Y-62897000D01*
X65881000Y-62897000D01*
X65627000Y-62897000D01*
X65607000Y-62897000D01*
X65607000Y-62643000D01*
X65627000Y-62643000D01*
X65627000Y-60897000D01*
X65881000Y-60897000D01*
X65881000Y-62643000D01*
X66898224Y-62643000D01*
X67021910Y-62440600D01*
X66991238Y-62339472D01*
X66883473Y-62106371D01*
X66732303Y-61898773D01*
X66592696Y-61770000D01*
X66732303Y-61641227D01*
X66883473Y-61433629D01*
X66991238Y-61200528D01*
X67021910Y-61099400D01*
X66898224Y-60897000D01*
X65881000Y-60897000D01*
X65627000Y-60897000D01*
X65607000Y-60897000D01*
X65607000Y-60643000D01*
X65627000Y-60643000D01*
X65627000Y-58897000D01*
X65881000Y-58897000D01*
X65881000Y-60643000D01*
X66898224Y-60643000D01*
X67021910Y-60440600D01*
X66991238Y-60339472D01*
X66883473Y-60106371D01*
X66732303Y-59898773D01*
X66592696Y-59770000D01*
X66732303Y-59641227D01*
X66883473Y-59433629D01*
X66991238Y-59200528D01*
X67021910Y-59099400D01*
X66898224Y-58897000D01*
X65881000Y-58897000D01*
X65627000Y-58897000D01*
X65607000Y-58897000D01*
X65607000Y-58643000D01*
X65627000Y-58643000D01*
X65627000Y-56897000D01*
X65881000Y-56897000D01*
X65881000Y-58643000D01*
X66898224Y-58643000D01*
X67021910Y-58440600D01*
X66991238Y-58339472D01*
X66883473Y-58106371D01*
X66732303Y-57898773D01*
X66592696Y-57770000D01*
X66732303Y-57641227D01*
X66883473Y-57433629D01*
X66991238Y-57200528D01*
X67021910Y-57099400D01*
X66898224Y-56897000D01*
X65881000Y-56897000D01*
X65627000Y-56897000D01*
X65607000Y-56897000D01*
X65607000Y-56643000D01*
X65627000Y-56643000D01*
X65627000Y-54897000D01*
X65881000Y-54897000D01*
X65881000Y-56643000D01*
X66898224Y-56643000D01*
X67021910Y-56440600D01*
X66991238Y-56339472D01*
X66883473Y-56106371D01*
X66732303Y-55898773D01*
X66592696Y-55770000D01*
X66732303Y-55641227D01*
X66883473Y-55433629D01*
X66991238Y-55200528D01*
X67021910Y-55099400D01*
X66898224Y-54897000D01*
X65881000Y-54897000D01*
X65627000Y-54897000D01*
X65607000Y-54897000D01*
X65607000Y-54643000D01*
X65627000Y-54643000D01*
X65627000Y-52897000D01*
X65881000Y-52897000D01*
X65881000Y-54643000D01*
X66898224Y-54643000D01*
X67021910Y-54440600D01*
X66991238Y-54339472D01*
X66883473Y-54106371D01*
X66732303Y-53898773D01*
X66592696Y-53770000D01*
X66732303Y-53641227D01*
X66883473Y-53433629D01*
X66991238Y-53200528D01*
X67021910Y-53099400D01*
X66898224Y-52897000D01*
X65881000Y-52897000D01*
X65627000Y-52897000D01*
X65607000Y-52897000D01*
X65607000Y-52643000D01*
X65627000Y-52643000D01*
X65627000Y-51624915D01*
X65881000Y-51624915D01*
X65881000Y-52643000D01*
X66898224Y-52643000D01*
X67021910Y-52440600D01*
X66991238Y-52339472D01*
X66883473Y-52106371D01*
X66732303Y-51898773D01*
X66543537Y-51724656D01*
X66324430Y-51590711D01*
X66083401Y-51502085D01*
X65881000Y-51624915D01*
X65627000Y-51624915D01*
X65424599Y-51502085D01*
X65183570Y-51590711D01*
X64964463Y-51724656D01*
X64775697Y-51898773D01*
X64758715Y-51922094D01*
X64589077Y-51752456D01*
X64374518Y-51609093D01*
X64136113Y-51510342D01*
X63883024Y-51460000D01*
X63624976Y-51460000D01*
X63536417Y-51477615D01*
X58283804Y-46225003D01*
X58260001Y-46195999D01*
X58144276Y-46101026D01*
X58012247Y-46030454D01*
X57868986Y-45986997D01*
X57757333Y-45976000D01*
X57757322Y-45976000D01*
X57720000Y-45972324D01*
X57682678Y-45976000D01*
X50494043Y-45976000D01*
X50390637Y-45821241D01*
X50190759Y-45621363D01*
X49958241Y-45466000D01*
X50190759Y-45310637D01*
X50390637Y-45110759D01*
X50494043Y-44956000D01*
X51223913Y-44956000D01*
X51235188Y-45070482D01*
X51271498Y-45190180D01*
X51330463Y-45300494D01*
X51409815Y-45397185D01*
X51506506Y-45476537D01*
X51616820Y-45535502D01*
X51736518Y-45571812D01*
X51861000Y-45584072D01*
X52861000Y-45584072D01*
X52986136Y-45571681D01*
X53105796Y-45535246D01*
X53216049Y-45476166D01*
X53312657Y-45396713D01*
X53391908Y-45299939D01*
X53891908Y-44549939D01*
X53950246Y-44440796D01*
X53986681Y-44321136D01*
X53999072Y-44196667D01*
X53986941Y-44072173D01*
X53950757Y-43952437D01*
X53891908Y-43842061D01*
X53391908Y-43092061D01*
X53312185Y-42994815D01*
X53215494Y-42915463D01*
X53105180Y-42856498D01*
X52985482Y-42820188D01*
X52861000Y-42807928D01*
X51861000Y-42807928D01*
X51736518Y-42820188D01*
X51616820Y-42856498D01*
X51506506Y-42915463D01*
X51409815Y-42994815D01*
X51330463Y-43091506D01*
X51271498Y-43201820D01*
X51235188Y-43321518D01*
X51223913Y-43436000D01*
X50494043Y-43436000D01*
X50390637Y-43281241D01*
X50192039Y-43082643D01*
X50200482Y-43081812D01*
X50320180Y-43045502D01*
X50430494Y-42986537D01*
X50527185Y-42907185D01*
X50606537Y-42810494D01*
X50665502Y-42700180D01*
X50701812Y-42580482D01*
X50714072Y-42456000D01*
X50714072Y-40977117D01*
X64051000Y-40977117D01*
X64051000Y-41318883D01*
X64117675Y-41654081D01*
X64248463Y-41969831D01*
X64438337Y-42253998D01*
X64680002Y-42495663D01*
X64964169Y-42685537D01*
X65279919Y-42816325D01*
X65615117Y-42883000D01*
X65956883Y-42883000D01*
X66292081Y-42816325D01*
X66607831Y-42685537D01*
X66891998Y-42495663D01*
X67133663Y-42253998D01*
X67323537Y-41969831D01*
X67454325Y-41654081D01*
X67521000Y-41318883D01*
X67521000Y-40977117D01*
X67454325Y-40641919D01*
X67323537Y-40326169D01*
X67133663Y-40042002D01*
X66891998Y-39800337D01*
X66607831Y-39610463D01*
X66292081Y-39479675D01*
X65956883Y-39413000D01*
X65615117Y-39413000D01*
X65279919Y-39479675D01*
X64964169Y-39610463D01*
X64680002Y-39800337D01*
X64438337Y-40042002D01*
X64248463Y-40326169D01*
X64117675Y-40641919D01*
X64051000Y-40977117D01*
X50714072Y-40977117D01*
X50714072Y-40856000D01*
X50701812Y-40731518D01*
X50665502Y-40611820D01*
X50606537Y-40501506D01*
X50527185Y-40404815D01*
X50430494Y-40325463D01*
X50320180Y-40266498D01*
X50200482Y-40230188D01*
X50076000Y-40217928D01*
X48476000Y-40217928D01*
X48351518Y-40230188D01*
X48231820Y-40266498D01*
X48121506Y-40325463D01*
X48024815Y-40404815D01*
X47945463Y-40501506D01*
X47886498Y-40611820D01*
X47850188Y-40731518D01*
X47837928Y-40856000D01*
X47837928Y-41683127D01*
X47364774Y-41209973D01*
X47340971Y-41180969D01*
X47225246Y-41085996D01*
X47093217Y-41015424D01*
X46949956Y-40971967D01*
X46838303Y-40960970D01*
X46838292Y-40960970D01*
X46800970Y-40957294D01*
X46763648Y-40960970D01*
X39324120Y-40960970D01*
X39286797Y-40957294D01*
X39249474Y-40960970D01*
X39249465Y-40960970D01*
X39137812Y-40971967D01*
X38994551Y-41015424D01*
X38862522Y-41085996D01*
X38746797Y-41180969D01*
X38722999Y-41209967D01*
X33973198Y-45959769D01*
X33880637Y-45821241D01*
X33682039Y-45622643D01*
X33690482Y-45621812D01*
X33810180Y-45585502D01*
X33920494Y-45526537D01*
X34017185Y-45447185D01*
X34096537Y-45350494D01*
X34155502Y-45240180D01*
X34191812Y-45120482D01*
X34204072Y-44996000D01*
X34201000Y-44481750D01*
X34042250Y-44323000D01*
X32893000Y-44323000D01*
X32893000Y-44343000D01*
X32639000Y-44343000D01*
X32639000Y-44323000D01*
X31489750Y-44323000D01*
X31331000Y-44481750D01*
X31327928Y-44996000D01*
X31340188Y-45120482D01*
X31376498Y-45240180D01*
X31435463Y-45350494D01*
X31514815Y-45447185D01*
X31611506Y-45526537D01*
X31721820Y-45585502D01*
X31841518Y-45621812D01*
X31849961Y-45622643D01*
X31651363Y-45821241D01*
X31494320Y-46056273D01*
X31386147Y-46317426D01*
X31331000Y-46594665D01*
X31331000Y-46877335D01*
X31386147Y-47154574D01*
X31494320Y-47415727D01*
X31651363Y-47650759D01*
X31851241Y-47850637D01*
X32083759Y-48006000D01*
X31851241Y-48161363D01*
X31651363Y-48361241D01*
X31494320Y-48596273D01*
X31386147Y-48857426D01*
X31331000Y-49134665D01*
X31331000Y-49417335D01*
X31386147Y-49694574D01*
X31494320Y-49955727D01*
X31651363Y-50190759D01*
X31851241Y-50390637D01*
X32083759Y-50546000D01*
X31851241Y-50701363D01*
X31651363Y-50901241D01*
X31494320Y-51136273D01*
X31386147Y-51397426D01*
X31331000Y-51674665D01*
X31331000Y-51957335D01*
X31386147Y-52234574D01*
X31494320Y-52495727D01*
X31651363Y-52730759D01*
X31851241Y-52930637D01*
X32083759Y-53086000D01*
X31851241Y-53241363D01*
X31651363Y-53441241D01*
X31494320Y-53676273D01*
X31386147Y-53937426D01*
X31331000Y-54214665D01*
X31331000Y-54497335D01*
X31386147Y-54774574D01*
X31494320Y-55035727D01*
X31651363Y-55270759D01*
X31851241Y-55470637D01*
X32083759Y-55626000D01*
X31851241Y-55781363D01*
X31651363Y-55981241D01*
X31494320Y-56216273D01*
X31386147Y-56477426D01*
X31331000Y-56754665D01*
X31331000Y-57037335D01*
X31386147Y-57314574D01*
X31484077Y-57550999D01*
X22879045Y-57550999D01*
X22924513Y-57401111D01*
X22953185Y-57110000D01*
X22924513Y-56818889D01*
X22839599Y-56538966D01*
X22701706Y-56280986D01*
X22516134Y-56054866D01*
X22452663Y-56002777D01*
X22554386Y-55948405D01*
X22688962Y-55837962D01*
X22799405Y-55703386D01*
X22881472Y-55549850D01*
X22932008Y-55383254D01*
X22949072Y-55210000D01*
X22949072Y-54010000D01*
X22932008Y-53836746D01*
X22881472Y-53670150D01*
X22799405Y-53516614D01*
X22688962Y-53382038D01*
X22554386Y-53271595D01*
X22400850Y-53189528D01*
X22234254Y-53138992D01*
X22061000Y-53121928D01*
X20611000Y-53121928D01*
X20437746Y-53138992D01*
X20271150Y-53189528D01*
X20117614Y-53271595D01*
X19983038Y-53382038D01*
X19872595Y-53516614D01*
X19790528Y-53670150D01*
X19739992Y-53836746D01*
X19722928Y-54010000D01*
X19722928Y-55210000D01*
X19739992Y-55383254D01*
X19765055Y-55465876D01*
X19315941Y-55914990D01*
X19282174Y-55942702D01*
X19254461Y-55976470D01*
X19254458Y-55976473D01*
X19171580Y-56077460D01*
X19089402Y-56231206D01*
X19038795Y-56398029D01*
X19021709Y-56571519D01*
X18744000Y-56571519D01*
X18744000Y-43396000D01*
X31327928Y-43396000D01*
X31331000Y-43910250D01*
X31489750Y-44069000D01*
X32639000Y-44069000D01*
X32639000Y-42919750D01*
X32893000Y-42919750D01*
X32893000Y-44069000D01*
X34042250Y-44069000D01*
X34201000Y-43910250D01*
X34204072Y-43396000D01*
X34191812Y-43271518D01*
X34155502Y-43151820D01*
X34096537Y-43041506D01*
X34017185Y-42944815D01*
X33920494Y-42865463D01*
X33810180Y-42806498D01*
X33690482Y-42770188D01*
X33566000Y-42757928D01*
X33051750Y-42761000D01*
X32893000Y-42919750D01*
X32639000Y-42919750D01*
X32480250Y-42761000D01*
X31966000Y-42757928D01*
X31841518Y-42770188D01*
X31721820Y-42806498D01*
X31611506Y-42865463D01*
X31514815Y-42944815D01*
X31435463Y-43041506D01*
X31376498Y-43151820D01*
X31340188Y-43271518D01*
X31327928Y-43396000D01*
X18744000Y-43396000D01*
X18744000Y-40977117D01*
X19093000Y-40977117D01*
X19093000Y-41318883D01*
X19159675Y-41654081D01*
X19290463Y-41969831D01*
X19480337Y-42253998D01*
X19722002Y-42495663D01*
X20006169Y-42685537D01*
X20321919Y-42816325D01*
X20657117Y-42883000D01*
X20998883Y-42883000D01*
X21334081Y-42816325D01*
X21649831Y-42685537D01*
X21933998Y-42495663D01*
X22175663Y-42253998D01*
X22365537Y-41969831D01*
X22496325Y-41654081D01*
X22563000Y-41318883D01*
X22563000Y-40977117D01*
X22496325Y-40641919D01*
X22365537Y-40326169D01*
X22175663Y-40042002D01*
X21933998Y-39800337D01*
X21649831Y-39610463D01*
X21334081Y-39479675D01*
X20998883Y-39413000D01*
X20657117Y-39413000D01*
X20321919Y-39479675D01*
X20006169Y-39610463D01*
X19722002Y-39800337D01*
X19480337Y-40042002D01*
X19290463Y-40326169D01*
X19159675Y-40641919D01*
X19093000Y-40977117D01*
X18744000Y-40977117D01*
X18744000Y-39064000D01*
X67870001Y-39064000D01*
X67870000Y-89968000D01*
G37*
%TD.AperFunction*%
D20*
X40513000Y-84709000D02*
X40533000Y-84709000D01*
X40533000Y-84963000D01*
X40513000Y-84963000D01*
X40513000Y-84983000D01*
X40259000Y-84983000D01*
X40259000Y-84963000D01*
X40239000Y-84963000D01*
X40239000Y-84709000D01*
X40259000Y-84709000D01*
X40259000Y-84689000D01*
X40513000Y-84689000D01*
X40513000Y-84709000D01*
%TA.AperFunction,Conductor*%
D21*
G36*
X40513000Y-84709000D02*
G01*
X40533000Y-84709000D01*
X40533000Y-84963000D01*
X40513000Y-84963000D01*
X40513000Y-84983000D01*
X40259000Y-84983000D01*
X40259000Y-84963000D01*
X40239000Y-84963000D01*
X40239000Y-84709000D01*
X40259000Y-84709000D01*
X40259000Y-84689000D01*
X40513000Y-84689000D01*
X40513000Y-84709000D01*
G37*
%TD.AperFunction*%
D20*
X31386147Y-69177426D02*
X31331000Y-69454665D01*
X31331000Y-69737335D01*
X31386147Y-70014574D01*
X31494320Y-70275727D01*
X31651363Y-70510759D01*
X31851241Y-70710637D01*
X32083759Y-70866000D01*
X31851241Y-71021363D01*
X31651363Y-71221241D01*
X31494320Y-71456273D01*
X31386147Y-71717426D01*
X31331000Y-71994665D01*
X31331000Y-72277335D01*
X31386147Y-72554574D01*
X31494320Y-72815727D01*
X31651363Y-73050759D01*
X31851241Y-73250637D01*
X32083759Y-73406000D01*
X31851241Y-73561363D01*
X31651363Y-73761241D01*
X31494320Y-73996273D01*
X31386147Y-74257426D01*
X31331000Y-74534665D01*
X31331000Y-74817335D01*
X31386147Y-75094574D01*
X31494320Y-75355727D01*
X31651363Y-75590759D01*
X31851241Y-75790637D01*
X32083759Y-75946000D01*
X31851241Y-76101363D01*
X31651363Y-76301241D01*
X31494320Y-76536273D01*
X31386147Y-76797426D01*
X31331000Y-77074665D01*
X31331000Y-77357335D01*
X31386147Y-77634574D01*
X31494320Y-77895727D01*
X31651363Y-78130759D01*
X31851241Y-78330637D01*
X32083759Y-78486000D01*
X31851241Y-78641363D01*
X31651363Y-78841241D01*
X31494320Y-79076273D01*
X31386147Y-79337426D01*
X31331000Y-79614665D01*
X31331000Y-79897335D01*
X31386147Y-80174574D01*
X31494320Y-80435727D01*
X31651363Y-80670759D01*
X31851241Y-80870637D01*
X32086273Y-81027680D01*
X32096865Y-81032067D01*
X31910869Y-81143615D01*
X31702481Y-81332586D01*
X31534963Y-81558580D01*
X31414754Y-81812913D01*
X31374096Y-81946961D01*
X31496085Y-82169000D01*
X32639000Y-82169000D01*
X32639000Y-82149000D01*
X32893000Y-82149000D01*
X32893000Y-82169000D01*
X32913000Y-82169000D01*
X32913000Y-82423000D01*
X32893000Y-82423000D01*
X32893000Y-82443000D01*
X32639000Y-82443000D01*
X32639000Y-82423000D01*
X31496085Y-82423000D01*
X31374096Y-82645039D01*
X31414754Y-82779087D01*
X31534963Y-83033420D01*
X31702481Y-83259414D01*
X31910869Y-83448385D01*
X32096865Y-83559933D01*
X32086273Y-83564320D01*
X31851241Y-83721363D01*
X31651363Y-83921241D01*
X31631479Y-83951000D01*
X29965088Y-83951000D01*
X22003533Y-75989446D01*
X22238570Y-75875053D01*
X22470429Y-75699049D01*
X22663496Y-75481193D01*
X22810352Y-75229858D01*
X22902476Y-74966890D01*
X22781155Y-74737000D01*
X21463000Y-74737000D01*
X21463000Y-74757000D01*
X21209000Y-74757000D01*
X21209000Y-74737000D01*
X21189000Y-74737000D01*
X21189000Y-74483000D01*
X21209000Y-74483000D01*
X21209000Y-74463000D01*
X21463000Y-74463000D01*
X21463000Y-74483000D01*
X22781155Y-74483000D01*
X22902476Y-74253110D01*
X22810352Y-73990142D01*
X22663496Y-73738807D01*
X22470429Y-73520951D01*
X22264278Y-73364462D01*
X22290014Y-73350706D01*
X22516134Y-73165134D01*
X22701706Y-72939014D01*
X22839599Y-72681034D01*
X22924513Y-72401111D01*
X22953185Y-72110000D01*
X22924513Y-71818889D01*
X22872704Y-71648097D01*
X25579801Y-68941001D01*
X31484077Y-68941001D01*
X31386147Y-69177426D01*
%TA.AperFunction,Conductor*%
D21*
G36*
X31386147Y-69177426D02*
G01*
X31331000Y-69454665D01*
X31331000Y-69737335D01*
X31386147Y-70014574D01*
X31494320Y-70275727D01*
X31651363Y-70510759D01*
X31851241Y-70710637D01*
X32083759Y-70866000D01*
X31851241Y-71021363D01*
X31651363Y-71221241D01*
X31494320Y-71456273D01*
X31386147Y-71717426D01*
X31331000Y-71994665D01*
X31331000Y-72277335D01*
X31386147Y-72554574D01*
X31494320Y-72815727D01*
X31651363Y-73050759D01*
X31851241Y-73250637D01*
X32083759Y-73406000D01*
X31851241Y-73561363D01*
X31651363Y-73761241D01*
X31494320Y-73996273D01*
X31386147Y-74257426D01*
X31331000Y-74534665D01*
X31331000Y-74817335D01*
X31386147Y-75094574D01*
X31494320Y-75355727D01*
X31651363Y-75590759D01*
X31851241Y-75790637D01*
X32083759Y-75946000D01*
X31851241Y-76101363D01*
X31651363Y-76301241D01*
X31494320Y-76536273D01*
X31386147Y-76797426D01*
X31331000Y-77074665D01*
X31331000Y-77357335D01*
X31386147Y-77634574D01*
X31494320Y-77895727D01*
X31651363Y-78130759D01*
X31851241Y-78330637D01*
X32083759Y-78486000D01*
X31851241Y-78641363D01*
X31651363Y-78841241D01*
X31494320Y-79076273D01*
X31386147Y-79337426D01*
X31331000Y-79614665D01*
X31331000Y-79897335D01*
X31386147Y-80174574D01*
X31494320Y-80435727D01*
X31651363Y-80670759D01*
X31851241Y-80870637D01*
X32086273Y-81027680D01*
X32096865Y-81032067D01*
X31910869Y-81143615D01*
X31702481Y-81332586D01*
X31534963Y-81558580D01*
X31414754Y-81812913D01*
X31374096Y-81946961D01*
X31496085Y-82169000D01*
X32639000Y-82169000D01*
X32639000Y-82149000D01*
X32893000Y-82149000D01*
X32893000Y-82169000D01*
X32913000Y-82169000D01*
X32913000Y-82423000D01*
X32893000Y-82423000D01*
X32893000Y-82443000D01*
X32639000Y-82443000D01*
X32639000Y-82423000D01*
X31496085Y-82423000D01*
X31374096Y-82645039D01*
X31414754Y-82779087D01*
X31534963Y-83033420D01*
X31702481Y-83259414D01*
X31910869Y-83448385D01*
X32096865Y-83559933D01*
X32086273Y-83564320D01*
X31851241Y-83721363D01*
X31651363Y-83921241D01*
X31631479Y-83951000D01*
X29965088Y-83951000D01*
X22003533Y-75989446D01*
X22238570Y-75875053D01*
X22470429Y-75699049D01*
X22663496Y-75481193D01*
X22810352Y-75229858D01*
X22902476Y-74966890D01*
X22781155Y-74737000D01*
X21463000Y-74737000D01*
X21463000Y-74757000D01*
X21209000Y-74757000D01*
X21209000Y-74737000D01*
X21189000Y-74737000D01*
X21189000Y-74483000D01*
X21209000Y-74483000D01*
X21209000Y-74463000D01*
X21463000Y-74463000D01*
X21463000Y-74483000D01*
X22781155Y-74483000D01*
X22902476Y-74253110D01*
X22810352Y-73990142D01*
X22663496Y-73738807D01*
X22470429Y-73520951D01*
X22264278Y-73364462D01*
X22290014Y-73350706D01*
X22516134Y-73165134D01*
X22701706Y-72939014D01*
X22839599Y-72681034D01*
X22924513Y-72401111D01*
X22953185Y-72110000D01*
X22924513Y-71818889D01*
X22872704Y-71648097D01*
X25579801Y-68941001D01*
X31484077Y-68941001D01*
X31386147Y-69177426D01*
G37*
%TD.AperFunction*%
D20*
X56993199Y-76456000D02*
X50494043Y-76456000D01*
X50390637Y-76301241D01*
X50190759Y-76101363D01*
X49958241Y-75946000D01*
X50190759Y-75790637D01*
X50390637Y-75590759D01*
X50494043Y-75436000D01*
X51006913Y-75436000D01*
X51018188Y-75550482D01*
X51054498Y-75670180D01*
X51113463Y-75780494D01*
X51192815Y-75877185D01*
X51289506Y-75956537D01*
X51399820Y-76015502D01*
X51519518Y-76051812D01*
X51644000Y-76064072D01*
X52644000Y-76064072D01*
X52769136Y-76051681D01*
X52888796Y-76015246D01*
X52999049Y-75956166D01*
X53095657Y-75876713D01*
X53174908Y-75779939D01*
X53674908Y-75029939D01*
X53733246Y-74920796D01*
X53769681Y-74801136D01*
X53782072Y-74676667D01*
X53769941Y-74552173D01*
X53733757Y-74432437D01*
X53674908Y-74322061D01*
X53174908Y-73572061D01*
X53095185Y-73474815D01*
X52998494Y-73395463D01*
X52888180Y-73336498D01*
X52768482Y-73300188D01*
X52644000Y-73287928D01*
X51644000Y-73287928D01*
X51519518Y-73300188D01*
X51399820Y-73336498D01*
X51289506Y-73395463D01*
X51192815Y-73474815D01*
X51113463Y-73571506D01*
X51054498Y-73681820D01*
X51018188Y-73801518D01*
X51006913Y-73916000D01*
X50494043Y-73916000D01*
X50390637Y-73761241D01*
X50190759Y-73561363D01*
X49958241Y-73406000D01*
X50190759Y-73250637D01*
X50390637Y-73050759D01*
X50494043Y-72896000D01*
X60350678Y-72896000D01*
X60388000Y-72899676D01*
X60425322Y-72896000D01*
X60425333Y-72896000D01*
X60536986Y-72885003D01*
X60576043Y-72873155D01*
X56993199Y-76456000D01*
%TA.AperFunction,Conductor*%
D21*
G36*
X56993199Y-76456000D02*
G01*
X50494043Y-76456000D01*
X50390637Y-76301241D01*
X50190759Y-76101363D01*
X49958241Y-75946000D01*
X50190759Y-75790637D01*
X50390637Y-75590759D01*
X50494043Y-75436000D01*
X51006913Y-75436000D01*
X51018188Y-75550482D01*
X51054498Y-75670180D01*
X51113463Y-75780494D01*
X51192815Y-75877185D01*
X51289506Y-75956537D01*
X51399820Y-76015502D01*
X51519518Y-76051812D01*
X51644000Y-76064072D01*
X52644000Y-76064072D01*
X52769136Y-76051681D01*
X52888796Y-76015246D01*
X52999049Y-75956166D01*
X53095657Y-75876713D01*
X53174908Y-75779939D01*
X53674908Y-75029939D01*
X53733246Y-74920796D01*
X53769681Y-74801136D01*
X53782072Y-74676667D01*
X53769941Y-74552173D01*
X53733757Y-74432437D01*
X53674908Y-74322061D01*
X53174908Y-73572061D01*
X53095185Y-73474815D01*
X52998494Y-73395463D01*
X52888180Y-73336498D01*
X52768482Y-73300188D01*
X52644000Y-73287928D01*
X51644000Y-73287928D01*
X51519518Y-73300188D01*
X51399820Y-73336498D01*
X51289506Y-73395463D01*
X51192815Y-73474815D01*
X51113463Y-73571506D01*
X51054498Y-73681820D01*
X51018188Y-73801518D01*
X51006913Y-73916000D01*
X50494043Y-73916000D01*
X50390637Y-73761241D01*
X50190759Y-73561363D01*
X49958241Y-73406000D01*
X50190759Y-73250637D01*
X50390637Y-73050759D01*
X50494043Y-72896000D01*
X60350678Y-72896000D01*
X60388000Y-72899676D01*
X60425322Y-72896000D01*
X60425333Y-72896000D01*
X60536986Y-72885003D01*
X60576043Y-72873155D01*
X56993199Y-76456000D01*
G37*
%TD.AperFunction*%
D20*
X38987312Y-61652114D02*
X38951000Y-61834665D01*
X38951000Y-62117335D01*
X39006147Y-62394574D01*
X39114320Y-62655727D01*
X39271363Y-62890759D01*
X39471241Y-63090637D01*
X39706273Y-63247680D01*
X39967426Y-63355853D01*
X40244665Y-63411000D01*
X40527335Y-63411000D01*
X40804574Y-63355853D01*
X41065727Y-63247680D01*
X41300759Y-63090637D01*
X41500637Y-62890759D01*
X41657680Y-62655727D01*
X41765853Y-62394574D01*
X41821000Y-62117335D01*
X41821000Y-61945803D01*
X42362205Y-62487008D01*
X42385999Y-62516001D01*
X42414992Y-62539795D01*
X42414996Y-62539799D01*
X42485685Y-62597811D01*
X42501724Y-62610974D01*
X42633753Y-62681546D01*
X42777014Y-62725003D01*
X42888667Y-62736000D01*
X42888676Y-62736000D01*
X42925999Y-62739676D01*
X42963322Y-62736000D01*
X48057957Y-62736000D01*
X48161363Y-62890759D01*
X48361241Y-63090637D01*
X48596273Y-63247680D01*
X48857426Y-63355853D01*
X49134665Y-63411000D01*
X49417335Y-63411000D01*
X49694574Y-63355853D01*
X49955727Y-63247680D01*
X50190759Y-63090637D01*
X50390637Y-62890759D01*
X50494043Y-62736000D01*
X62444000Y-62736000D01*
X62444000Y-62899024D01*
X62494342Y-63152113D01*
X62593093Y-63390518D01*
X62736456Y-63605077D01*
X62901379Y-63770000D01*
X62736456Y-63934923D01*
X62593093Y-64149482D01*
X62494342Y-64387887D01*
X62444000Y-64640976D01*
X62444000Y-64899024D01*
X62461615Y-64987583D01*
X61153199Y-66296000D01*
X50494043Y-66296000D01*
X50390637Y-66141241D01*
X50190759Y-65941363D01*
X49955727Y-65784320D01*
X49694574Y-65676147D01*
X49417335Y-65621000D01*
X49134665Y-65621000D01*
X48857426Y-65676147D01*
X48596273Y-65784320D01*
X48361241Y-65941363D01*
X48161363Y-66141241D01*
X48004320Y-66376273D01*
X47896147Y-66637426D01*
X47842606Y-66906592D01*
X43373199Y-71376000D01*
X41604043Y-71376000D01*
X41500637Y-71221241D01*
X41300759Y-71021363D01*
X41068241Y-70866000D01*
X41300759Y-70710637D01*
X41500637Y-70510759D01*
X41657680Y-70275727D01*
X41765853Y-70014574D01*
X41821000Y-69737335D01*
X41821000Y-69454665D01*
X41765853Y-69177426D01*
X41657680Y-68916273D01*
X41500637Y-68681241D01*
X41300759Y-68481363D01*
X41065727Y-68324320D01*
X41055135Y-68319933D01*
X41241131Y-68208385D01*
X41449519Y-68019414D01*
X41617037Y-67793420D01*
X41737246Y-67539087D01*
X41777904Y-67405039D01*
X41655915Y-67183000D01*
X40513000Y-67183000D01*
X40513000Y-67203000D01*
X40259000Y-67203000D01*
X40259000Y-67183000D01*
X39116085Y-67183000D01*
X38994096Y-67405039D01*
X38998648Y-67420048D01*
X38971001Y-67417325D01*
X38933679Y-67421001D01*
X34156509Y-67421001D01*
X34201000Y-67197335D01*
X34201000Y-66914665D01*
X34159685Y-66706961D01*
X38994096Y-66706961D01*
X39116085Y-66929000D01*
X40259000Y-66929000D01*
X40259000Y-65785376D01*
X40513000Y-65785376D01*
X40513000Y-66929000D01*
X41655915Y-66929000D01*
X41777904Y-66706961D01*
X41737246Y-66572913D01*
X41617037Y-66318580D01*
X41449519Y-66092586D01*
X41241131Y-65903615D01*
X40999881Y-65758930D01*
X40735040Y-65664091D01*
X40513000Y-65785376D01*
X40259000Y-65785376D01*
X40036960Y-65664091D01*
X39772119Y-65758930D01*
X39530869Y-65903615D01*
X39322481Y-66092586D01*
X39154963Y-66318580D01*
X39034754Y-66572913D01*
X38994096Y-66706961D01*
X34159685Y-66706961D01*
X34145853Y-66637426D01*
X34037680Y-66376273D01*
X33880637Y-66141241D01*
X33680759Y-65941363D01*
X33445727Y-65784320D01*
X33184574Y-65676147D01*
X32907335Y-65621000D01*
X32624665Y-65621000D01*
X32347426Y-65676147D01*
X32086273Y-65784320D01*
X31851241Y-65941363D01*
X31651363Y-66141241D01*
X31547957Y-66296000D01*
X23927322Y-66296000D01*
X23889999Y-66292324D01*
X23852676Y-66296000D01*
X23852667Y-66296000D01*
X23741014Y-66306997D01*
X23597753Y-66350454D01*
X23465724Y-66421026D01*
X23465722Y-66421027D01*
X23465723Y-66421027D01*
X23378996Y-66492201D01*
X23378992Y-66492205D01*
X23349999Y-66515999D01*
X23326205Y-66544992D01*
X22935971Y-66935226D01*
X22924513Y-66818889D01*
X22839599Y-66538966D01*
X22701706Y-66280986D01*
X22516134Y-66054866D01*
X22290014Y-65869294D01*
X22272626Y-65860000D01*
X22290014Y-65850706D01*
X22516134Y-65665134D01*
X22701706Y-65439014D01*
X22839599Y-65181034D01*
X22924513Y-64901111D01*
X22953185Y-64610000D01*
X22924513Y-64318889D01*
X22839599Y-64038966D01*
X22701706Y-63780986D01*
X22516134Y-63554866D01*
X22290014Y-63369294D01*
X22272626Y-63360000D01*
X22290014Y-63350706D01*
X22516134Y-63165134D01*
X22701706Y-62939014D01*
X22839599Y-62681034D01*
X22924513Y-62401111D01*
X22932005Y-62325039D01*
X31374096Y-62325039D01*
X31414754Y-62459087D01*
X31534963Y-62713420D01*
X31702481Y-62939414D01*
X31910869Y-63128385D01*
X32152119Y-63273070D01*
X32416960Y-63367909D01*
X32639000Y-63246624D01*
X32639000Y-62103000D01*
X32893000Y-62103000D01*
X32893000Y-63246624D01*
X33115040Y-63367909D01*
X33379881Y-63273070D01*
X33621131Y-63128385D01*
X33829519Y-62939414D01*
X33997037Y-62713420D01*
X34117246Y-62459087D01*
X34157904Y-62325039D01*
X34035915Y-62103000D01*
X32893000Y-62103000D01*
X32639000Y-62103000D01*
X31496085Y-62103000D01*
X31374096Y-62325039D01*
X22932005Y-62325039D01*
X22953185Y-62110000D01*
X22924513Y-61818889D01*
X22839599Y-61538966D01*
X22701706Y-61280986D01*
X22516134Y-61054866D01*
X22290014Y-60869294D01*
X22272626Y-60860000D01*
X22290014Y-60850706D01*
X22516134Y-60665134D01*
X22701706Y-60439014D01*
X22738595Y-60370000D01*
X31670604Y-60370000D01*
X31851241Y-60550637D01*
X32086273Y-60707680D01*
X32096865Y-60712067D01*
X31910869Y-60823615D01*
X31702481Y-61012586D01*
X31534963Y-61238580D01*
X31414754Y-61492913D01*
X31374096Y-61626961D01*
X31496085Y-61849000D01*
X32639000Y-61849000D01*
X32639000Y-61829000D01*
X32893000Y-61829000D01*
X32893000Y-61849000D01*
X34035915Y-61849000D01*
X34157904Y-61626961D01*
X34117246Y-61492913D01*
X33997037Y-61238580D01*
X33829519Y-61012586D01*
X33621131Y-60823615D01*
X33435135Y-60712067D01*
X33445727Y-60707680D01*
X33680759Y-60550637D01*
X33880637Y-60350759D01*
X34037680Y-60115727D01*
X34145853Y-59854574D01*
X34201000Y-59577335D01*
X34201000Y-59294665D01*
X34156509Y-59070999D01*
X36406198Y-59070999D01*
X38987312Y-61652114D01*
%TA.AperFunction,Conductor*%
D21*
G36*
X38987312Y-61652114D02*
G01*
X38951000Y-61834665D01*
X38951000Y-62117335D01*
X39006147Y-62394574D01*
X39114320Y-62655727D01*
X39271363Y-62890759D01*
X39471241Y-63090637D01*
X39706273Y-63247680D01*
X39967426Y-63355853D01*
X40244665Y-63411000D01*
X40527335Y-63411000D01*
X40804574Y-63355853D01*
X41065727Y-63247680D01*
X41300759Y-63090637D01*
X41500637Y-62890759D01*
X41657680Y-62655727D01*
X41765853Y-62394574D01*
X41821000Y-62117335D01*
X41821000Y-61945803D01*
X42362205Y-62487008D01*
X42385999Y-62516001D01*
X42414992Y-62539795D01*
X42414996Y-62539799D01*
X42485685Y-62597811D01*
X42501724Y-62610974D01*
X42633753Y-62681546D01*
X42777014Y-62725003D01*
X42888667Y-62736000D01*
X42888676Y-62736000D01*
X42925999Y-62739676D01*
X42963322Y-62736000D01*
X48057957Y-62736000D01*
X48161363Y-62890759D01*
X48361241Y-63090637D01*
X48596273Y-63247680D01*
X48857426Y-63355853D01*
X49134665Y-63411000D01*
X49417335Y-63411000D01*
X49694574Y-63355853D01*
X49955727Y-63247680D01*
X50190759Y-63090637D01*
X50390637Y-62890759D01*
X50494043Y-62736000D01*
X62444000Y-62736000D01*
X62444000Y-62899024D01*
X62494342Y-63152113D01*
X62593093Y-63390518D01*
X62736456Y-63605077D01*
X62901379Y-63770000D01*
X62736456Y-63934923D01*
X62593093Y-64149482D01*
X62494342Y-64387887D01*
X62444000Y-64640976D01*
X62444000Y-64899024D01*
X62461615Y-64987583D01*
X61153199Y-66296000D01*
X50494043Y-66296000D01*
X50390637Y-66141241D01*
X50190759Y-65941363D01*
X49955727Y-65784320D01*
X49694574Y-65676147D01*
X49417335Y-65621000D01*
X49134665Y-65621000D01*
X48857426Y-65676147D01*
X48596273Y-65784320D01*
X48361241Y-65941363D01*
X48161363Y-66141241D01*
X48004320Y-66376273D01*
X47896147Y-66637426D01*
X47842606Y-66906592D01*
X43373199Y-71376000D01*
X41604043Y-71376000D01*
X41500637Y-71221241D01*
X41300759Y-71021363D01*
X41068241Y-70866000D01*
X41300759Y-70710637D01*
X41500637Y-70510759D01*
X41657680Y-70275727D01*
X41765853Y-70014574D01*
X41821000Y-69737335D01*
X41821000Y-69454665D01*
X41765853Y-69177426D01*
X41657680Y-68916273D01*
X41500637Y-68681241D01*
X41300759Y-68481363D01*
X41065727Y-68324320D01*
X41055135Y-68319933D01*
X41241131Y-68208385D01*
X41449519Y-68019414D01*
X41617037Y-67793420D01*
X41737246Y-67539087D01*
X41777904Y-67405039D01*
X41655915Y-67183000D01*
X40513000Y-67183000D01*
X40513000Y-67203000D01*
X40259000Y-67203000D01*
X40259000Y-67183000D01*
X39116085Y-67183000D01*
X38994096Y-67405039D01*
X38998648Y-67420048D01*
X38971001Y-67417325D01*
X38933679Y-67421001D01*
X34156509Y-67421001D01*
X34201000Y-67197335D01*
X34201000Y-66914665D01*
X34159685Y-66706961D01*
X38994096Y-66706961D01*
X39116085Y-66929000D01*
X40259000Y-66929000D01*
X40259000Y-65785376D01*
X40513000Y-65785376D01*
X40513000Y-66929000D01*
X41655915Y-66929000D01*
X41777904Y-66706961D01*
X41737246Y-66572913D01*
X41617037Y-66318580D01*
X41449519Y-66092586D01*
X41241131Y-65903615D01*
X40999881Y-65758930D01*
X40735040Y-65664091D01*
X40513000Y-65785376D01*
X40259000Y-65785376D01*
X40036960Y-65664091D01*
X39772119Y-65758930D01*
X39530869Y-65903615D01*
X39322481Y-66092586D01*
X39154963Y-66318580D01*
X39034754Y-66572913D01*
X38994096Y-66706961D01*
X34159685Y-66706961D01*
X34145853Y-66637426D01*
X34037680Y-66376273D01*
X33880637Y-66141241D01*
X33680759Y-65941363D01*
X33445727Y-65784320D01*
X33184574Y-65676147D01*
X32907335Y-65621000D01*
X32624665Y-65621000D01*
X32347426Y-65676147D01*
X32086273Y-65784320D01*
X31851241Y-65941363D01*
X31651363Y-66141241D01*
X31547957Y-66296000D01*
X23927322Y-66296000D01*
X23889999Y-66292324D01*
X23852676Y-66296000D01*
X23852667Y-66296000D01*
X23741014Y-66306997D01*
X23597753Y-66350454D01*
X23465724Y-66421026D01*
X23465722Y-66421027D01*
X23465723Y-66421027D01*
X23378996Y-66492201D01*
X23378992Y-66492205D01*
X23349999Y-66515999D01*
X23326205Y-66544992D01*
X22935971Y-66935226D01*
X22924513Y-66818889D01*
X22839599Y-66538966D01*
X22701706Y-66280986D01*
X22516134Y-66054866D01*
X22290014Y-65869294D01*
X22272626Y-65860000D01*
X22290014Y-65850706D01*
X22516134Y-65665134D01*
X22701706Y-65439014D01*
X22839599Y-65181034D01*
X22924513Y-64901111D01*
X22953185Y-64610000D01*
X22924513Y-64318889D01*
X22839599Y-64038966D01*
X22701706Y-63780986D01*
X22516134Y-63554866D01*
X22290014Y-63369294D01*
X22272626Y-63360000D01*
X22290014Y-63350706D01*
X22516134Y-63165134D01*
X22701706Y-62939014D01*
X22839599Y-62681034D01*
X22924513Y-62401111D01*
X22932005Y-62325039D01*
X31374096Y-62325039D01*
X31414754Y-62459087D01*
X31534963Y-62713420D01*
X31702481Y-62939414D01*
X31910869Y-63128385D01*
X32152119Y-63273070D01*
X32416960Y-63367909D01*
X32639000Y-63246624D01*
X32639000Y-62103000D01*
X32893000Y-62103000D01*
X32893000Y-63246624D01*
X33115040Y-63367909D01*
X33379881Y-63273070D01*
X33621131Y-63128385D01*
X33829519Y-62939414D01*
X33997037Y-62713420D01*
X34117246Y-62459087D01*
X34157904Y-62325039D01*
X34035915Y-62103000D01*
X32893000Y-62103000D01*
X32639000Y-62103000D01*
X31496085Y-62103000D01*
X31374096Y-62325039D01*
X22932005Y-62325039D01*
X22953185Y-62110000D01*
X22924513Y-61818889D01*
X22839599Y-61538966D01*
X22701706Y-61280986D01*
X22516134Y-61054866D01*
X22290014Y-60869294D01*
X22272626Y-60860000D01*
X22290014Y-60850706D01*
X22516134Y-60665134D01*
X22701706Y-60439014D01*
X22738595Y-60370000D01*
X31670604Y-60370000D01*
X31851241Y-60550637D01*
X32086273Y-60707680D01*
X32096865Y-60712067D01*
X31910869Y-60823615D01*
X31702481Y-61012586D01*
X31534963Y-61238580D01*
X31414754Y-61492913D01*
X31374096Y-61626961D01*
X31496085Y-61849000D01*
X32639000Y-61849000D01*
X32639000Y-61829000D01*
X32893000Y-61829000D01*
X32893000Y-61849000D01*
X34035915Y-61849000D01*
X34157904Y-61626961D01*
X34117246Y-61492913D01*
X33997037Y-61238580D01*
X33829519Y-61012586D01*
X33621131Y-60823615D01*
X33435135Y-60712067D01*
X33445727Y-60707680D01*
X33680759Y-60550637D01*
X33880637Y-60350759D01*
X34037680Y-60115727D01*
X34145853Y-59854574D01*
X34201000Y-59577335D01*
X34201000Y-59294665D01*
X34156509Y-59070999D01*
X36406198Y-59070999D01*
X38987312Y-61652114D01*
G37*
%TD.AperFunction*%
D20*
X62068043Y-56158845D02*
X62028986Y-56146997D01*
X61917333Y-56136000D01*
X61917322Y-56136000D01*
X61880000Y-56132324D01*
X61842678Y-56136000D01*
X50494043Y-56136000D01*
X50390637Y-55981241D01*
X50190759Y-55781363D01*
X49958241Y-55626000D01*
X50190759Y-55470637D01*
X50390637Y-55270759D01*
X50494043Y-55116000D01*
X51006913Y-55116000D01*
X51018188Y-55230482D01*
X51054498Y-55350180D01*
X51113463Y-55460494D01*
X51192815Y-55557185D01*
X51289506Y-55636537D01*
X51399820Y-55695502D01*
X51519518Y-55731812D01*
X51644000Y-55744072D01*
X52644000Y-55744072D01*
X52769136Y-55731681D01*
X52888796Y-55695246D01*
X52999049Y-55636166D01*
X53095657Y-55556713D01*
X53174908Y-55459939D01*
X53674908Y-54709939D01*
X53733246Y-54600796D01*
X53769681Y-54481136D01*
X53782072Y-54356667D01*
X53769941Y-54232173D01*
X53733757Y-54112437D01*
X53674908Y-54002061D01*
X53174908Y-53252061D01*
X53095185Y-53154815D01*
X52998494Y-53075463D01*
X52888180Y-53016498D01*
X52768482Y-52980188D01*
X52644000Y-52967928D01*
X51644000Y-52967928D01*
X51519518Y-52980188D01*
X51399820Y-53016498D01*
X51289506Y-53075463D01*
X51192815Y-53154815D01*
X51113463Y-53251506D01*
X51054498Y-53361820D01*
X51018188Y-53481518D01*
X51006913Y-53596000D01*
X50494043Y-53596000D01*
X50390637Y-53441241D01*
X50190759Y-53241363D01*
X49958241Y-53086000D01*
X50190759Y-52930637D01*
X50390637Y-52730759D01*
X50494043Y-52576000D01*
X58485199Y-52576000D01*
X62068043Y-56158845D01*
%TA.AperFunction,Conductor*%
D21*
G36*
X62068043Y-56158845D02*
G01*
X62028986Y-56146997D01*
X61917333Y-56136000D01*
X61917322Y-56136000D01*
X61880000Y-56132324D01*
X61842678Y-56136000D01*
X50494043Y-56136000D01*
X50390637Y-55981241D01*
X50190759Y-55781363D01*
X49958241Y-55626000D01*
X50190759Y-55470637D01*
X50390637Y-55270759D01*
X50494043Y-55116000D01*
X51006913Y-55116000D01*
X51018188Y-55230482D01*
X51054498Y-55350180D01*
X51113463Y-55460494D01*
X51192815Y-55557185D01*
X51289506Y-55636537D01*
X51399820Y-55695502D01*
X51519518Y-55731812D01*
X51644000Y-55744072D01*
X52644000Y-55744072D01*
X52769136Y-55731681D01*
X52888796Y-55695246D01*
X52999049Y-55636166D01*
X53095657Y-55556713D01*
X53174908Y-55459939D01*
X53674908Y-54709939D01*
X53733246Y-54600796D01*
X53769681Y-54481136D01*
X53782072Y-54356667D01*
X53769941Y-54232173D01*
X53733757Y-54112437D01*
X53674908Y-54002061D01*
X53174908Y-53252061D01*
X53095185Y-53154815D01*
X52998494Y-53075463D01*
X52888180Y-53016498D01*
X52768482Y-52980188D01*
X52644000Y-52967928D01*
X51644000Y-52967928D01*
X51519518Y-52980188D01*
X51399820Y-53016498D01*
X51289506Y-53075463D01*
X51192815Y-53154815D01*
X51113463Y-53251506D01*
X51054498Y-53361820D01*
X51018188Y-53481518D01*
X51006913Y-53596000D01*
X50494043Y-53596000D01*
X50390637Y-53441241D01*
X50190759Y-53241363D01*
X49958241Y-53086000D01*
X50190759Y-52930637D01*
X50390637Y-52730759D01*
X50494043Y-52576000D01*
X58485199Y-52576000D01*
X62068043Y-56158845D01*
G37*
%TD.AperFunction*%
D20*
X47877312Y-51492114D02*
X47841000Y-51674665D01*
X47841000Y-51957335D01*
X47896147Y-52234574D01*
X48004320Y-52495727D01*
X48161363Y-52730759D01*
X48361241Y-52930637D01*
X48593759Y-53086000D01*
X48361241Y-53241363D01*
X48161363Y-53441241D01*
X48057957Y-53596000D01*
X43240803Y-53596000D01*
X41784688Y-52139886D01*
X41821000Y-51957335D01*
X41821000Y-51674665D01*
X41765853Y-51397426D01*
X41657680Y-51136273D01*
X41500637Y-50901241D01*
X41300759Y-50701363D01*
X41068241Y-50546000D01*
X41300759Y-50390637D01*
X41500637Y-50190759D01*
X41657680Y-49955727D01*
X41765853Y-49694574D01*
X41821000Y-49417335D01*
X41821000Y-49134665D01*
X41765853Y-48857426D01*
X41657680Y-48596273D01*
X41500637Y-48361241D01*
X41300759Y-48161363D01*
X41065727Y-48004320D01*
X41055135Y-47999933D01*
X41241131Y-47888385D01*
X41449519Y-47699414D01*
X41617037Y-47473420D01*
X41737246Y-47219087D01*
X41777904Y-47085039D01*
X41655915Y-46863000D01*
X40513000Y-46863000D01*
X40513000Y-46883000D01*
X40259000Y-46883000D01*
X40259000Y-46863000D01*
X40239000Y-46863000D01*
X40239000Y-46609000D01*
X40259000Y-46609000D01*
X40259000Y-46589000D01*
X40513000Y-46589000D01*
X40513000Y-46609000D01*
X41655915Y-46609000D01*
X41777904Y-46386961D01*
X41737246Y-46252913D01*
X41617037Y-45998580D01*
X41449519Y-45772586D01*
X41241131Y-45583615D01*
X41055135Y-45472067D01*
X41065727Y-45467680D01*
X41300759Y-45310637D01*
X41498297Y-45113099D01*
X47877312Y-51492114D01*
%TA.AperFunction,Conductor*%
D21*
G36*
X47877312Y-51492114D02*
G01*
X47841000Y-51674665D01*
X47841000Y-51957335D01*
X47896147Y-52234574D01*
X48004320Y-52495727D01*
X48161363Y-52730759D01*
X48361241Y-52930637D01*
X48593759Y-53086000D01*
X48361241Y-53241363D01*
X48161363Y-53441241D01*
X48057957Y-53596000D01*
X43240803Y-53596000D01*
X41784688Y-52139886D01*
X41821000Y-51957335D01*
X41821000Y-51674665D01*
X41765853Y-51397426D01*
X41657680Y-51136273D01*
X41500637Y-50901241D01*
X41300759Y-50701363D01*
X41068241Y-50546000D01*
X41300759Y-50390637D01*
X41500637Y-50190759D01*
X41657680Y-49955727D01*
X41765853Y-49694574D01*
X41821000Y-49417335D01*
X41821000Y-49134665D01*
X41765853Y-48857426D01*
X41657680Y-48596273D01*
X41500637Y-48361241D01*
X41300759Y-48161363D01*
X41065727Y-48004320D01*
X41055135Y-47999933D01*
X41241131Y-47888385D01*
X41449519Y-47699414D01*
X41617037Y-47473420D01*
X41737246Y-47219087D01*
X41777904Y-47085039D01*
X41655915Y-46863000D01*
X40513000Y-46863000D01*
X40513000Y-46883000D01*
X40259000Y-46883000D01*
X40259000Y-46863000D01*
X40239000Y-46863000D01*
X40239000Y-46609000D01*
X40259000Y-46609000D01*
X40259000Y-46589000D01*
X40513000Y-46589000D01*
X40513000Y-46609000D01*
X41655915Y-46609000D01*
X41777904Y-46386961D01*
X41737246Y-46252913D01*
X41617037Y-45998580D01*
X41449519Y-45772586D01*
X41241131Y-45583615D01*
X41055135Y-45472067D01*
X41065727Y-45467680D01*
X41300759Y-45310637D01*
X41498297Y-45113099D01*
X47877312Y-51492114D01*
G37*
%TD.AperFunction*%
D20*
X47877312Y-48952114D02*
X47841000Y-49134665D01*
X47841000Y-49306198D01*
X42271001Y-43736200D01*
X42271001Y-43693322D01*
X42274677Y-43655999D01*
X42271001Y-43618676D01*
X42271001Y-43618667D01*
X42260004Y-43507013D01*
X42221776Y-43380989D01*
X42306188Y-43380989D01*
X47877312Y-48952114D01*
%TA.AperFunction,Conductor*%
D21*
G36*
X47877312Y-48952114D02*
G01*
X47841000Y-49134665D01*
X47841000Y-49306198D01*
X42271001Y-43736200D01*
X42271001Y-43693322D01*
X42274677Y-43655999D01*
X42271001Y-43618676D01*
X42271001Y-43618667D01*
X42260004Y-43507013D01*
X42221776Y-43380989D01*
X42306188Y-43380989D01*
X47877312Y-48952114D01*
G37*
%TD.AperFunction*%
%TD*%
D22*
X54864000Y-73406000D03*
X55626000Y-54610000D03*
X56388000Y-43942000D03*
X45720000Y-51816000D03*
X45720000Y-46990000D03*
X49022000Y-64516000D03*
X50038000Y-64516000D03*
X51054000Y-64516000D03*
X52070000Y-64516000D03*
X53086000Y-64516000D03*
X54102000Y-64516000D03*
X52070000Y-63500000D03*
X53086000Y-63500000D03*
X54102000Y-63500000D03*
X52070000Y-65532000D03*
X53086000Y-65532000D03*
X54102000Y-65532000D03*
X65786000Y-87884000D03*
X65786000Y-41148000D03*
X63754000Y-76770000D03*
X65754000Y-76770000D03*
X63754000Y-74770000D03*
X65754000Y-74770000D03*
X63754000Y-72770000D03*
X65754000Y-72770000D03*
X63754000Y-70770000D03*
X65754000Y-70770000D03*
X63754000Y-68770000D03*
X65754000Y-68770000D03*
X63754000Y-66770000D03*
X65754000Y-66770000D03*
X63754000Y-64770000D03*
X65754000Y-64770000D03*
X63754000Y-62770000D03*
X65754000Y-62770000D03*
X63754000Y-60770000D03*
X65754000Y-60770000D03*
X63754000Y-58770000D03*
X65754000Y-58770000D03*
X63754000Y-56770000D03*
X65754000Y-56770000D03*
X63754000Y-54770000D03*
X65754000Y-54770000D03*
X63754000Y-52770000D03*
X65754000Y-52770000D03*
X49276000Y-41656000D03*
X49276000Y-44196000D03*
X49276000Y-46736000D03*
X49276000Y-49276000D03*
X49276000Y-51816000D03*
X49276000Y-54356000D03*
X49276000Y-56896000D03*
X49276000Y-59436000D03*
X49276000Y-61976000D03*
X49276000Y-87376000D03*
X49276000Y-84836000D03*
X49276000Y-82296000D03*
X49276000Y-79756000D03*
X49276000Y-77216000D03*
X49276000Y-74676000D03*
X49276000Y-72136000D03*
X49276000Y-69596000D03*
X49276000Y-67056000D03*
X40386000Y-84836000D03*
X32766000Y-67056000D03*
X40386000Y-82296000D03*
X32766000Y-69596000D03*
X40386000Y-79756000D03*
X32766000Y-72136000D03*
X40386000Y-77216000D03*
X32766000Y-74676000D03*
X40386000Y-74676000D03*
X32766000Y-77216000D03*
X40386000Y-72136000D03*
X32766000Y-79756000D03*
X40386000Y-69596000D03*
X32766000Y-82296000D03*
X40386000Y-67056000D03*
X32766000Y-84836000D03*
X32766000Y-44196000D03*
X40386000Y-61976000D03*
X32766000Y-46736000D03*
X40386000Y-59436000D03*
X32766000Y-49276000D03*
X40386000Y-56896000D03*
X32766000Y-51816000D03*
X40386000Y-54356000D03*
X32766000Y-54356000D03*
X40386000Y-51816000D03*
X32766000Y-56896000D03*
X40386000Y-49276000D03*
X32766000Y-59436000D03*
X40386000Y-46736000D03*
X32766000Y-61976000D03*
X40386000Y-44196000D03*
X20828000Y-41148000D03*
X20828000Y-87884000D03*
X21336000Y-54610000D03*
X21336000Y-57110000D03*
X21336000Y-59610000D03*
X21336000Y-62110000D03*
X21336000Y-64610000D03*
X21336000Y-67110000D03*
X21336000Y-69610000D03*
X21336000Y-72110000D03*
X21336000Y-74610000D03*
M02*
