%TF.GenerationSoftware,KiCad,Pcbnew,(5.1.10)-1*%
%TF.CreationDate,2021-09-08T12:56:42-03:00*%
%TF.ProjectId,SSC-THT,5353432d-5448-4542-9e6b-696361645f70,rev?*%
%TF.SameCoordinates,Original*%
%TF.FileFunction,Legend,Top*%
%TF.FilePolarity,Positive*%
%FSLAX46Y46*%
G04 Gerber Fmt 4.6, Leading zero omitted, Abs format (unit mm)*
G04 Created by KiCad (PCBNEW (5.1.10)-1) date 2021-09-08 12:56:42*
%MOMM*%
%LPD*%
G01*
G04 APERTURE LIST*
%TA.AperFunction,Profile*%
%ADD10C,0.150000*%
%TD*%
%ADD11C,0.300000*%
%ADD12C,0.120000*%
%ADD13C,0.150000*%
G04 APERTURE END LIST*
D10*
X68580000Y-90678000D02*
X18034000Y-90678000D01*
X18034000Y-38354000D02*
X18034000Y-90678000D01*
X68580000Y-38354000D02*
X18034000Y-38354000D01*
X68580000Y-90678000D02*
X68580000Y-38354000D01*
D11*
X45128571Y-75801714D02*
X43628571Y-75801714D01*
X45128571Y-75158857D02*
X44342857Y-75158857D01*
X44200000Y-75230285D01*
X44128571Y-75373142D01*
X44128571Y-75587428D01*
X44200000Y-75730285D01*
X44271428Y-75801714D01*
X44128571Y-74658857D02*
X44128571Y-74087428D01*
X43628571Y-74444571D02*
X44914285Y-74444571D01*
X45057142Y-74373142D01*
X45128571Y-74230285D01*
X45128571Y-74087428D01*
X44128571Y-73801714D02*
X44128571Y-73230285D01*
X43628571Y-73587428D02*
X44914285Y-73587428D01*
X45057142Y-73516000D01*
X45128571Y-73373142D01*
X45128571Y-73230285D01*
X44128571Y-72730285D02*
X45628571Y-72730285D01*
X44200000Y-72730285D02*
X44128571Y-72587428D01*
X44128571Y-72301714D01*
X44200000Y-72158857D01*
X44271428Y-72087428D01*
X44414285Y-72016000D01*
X44842857Y-72016000D01*
X44985714Y-72087428D01*
X45057142Y-72158857D01*
X45128571Y-72301714D01*
X45128571Y-72587428D01*
X45057142Y-72730285D01*
X45057142Y-71444571D02*
X45128571Y-71301714D01*
X45128571Y-71016000D01*
X45057142Y-70873142D01*
X44914285Y-70801714D01*
X44842857Y-70801714D01*
X44700000Y-70873142D01*
X44628571Y-71016000D01*
X44628571Y-71230285D01*
X44557142Y-71373142D01*
X44414285Y-71444571D01*
X44342857Y-71444571D01*
X44200000Y-71373142D01*
X44128571Y-71230285D01*
X44128571Y-71016000D01*
X44200000Y-70873142D01*
X44985714Y-70158857D02*
X45057142Y-70087428D01*
X45128571Y-70158857D01*
X45057142Y-70230285D01*
X44985714Y-70158857D01*
X45128571Y-70158857D01*
X44200000Y-70158857D02*
X44271428Y-70087428D01*
X44342857Y-70158857D01*
X44271428Y-70230285D01*
X44200000Y-70158857D01*
X44342857Y-70158857D01*
X43557142Y-68373142D02*
X45485714Y-69658857D01*
X43557142Y-66801714D02*
X45485714Y-68087428D01*
X44128571Y-65658857D02*
X45342857Y-65658857D01*
X45485714Y-65730285D01*
X45557142Y-65801714D01*
X45628571Y-65944571D01*
X45628571Y-66158857D01*
X45557142Y-66301714D01*
X45057142Y-65658857D02*
X45128571Y-65801714D01*
X45128571Y-66087428D01*
X45057142Y-66230285D01*
X44985714Y-66301714D01*
X44842857Y-66373142D01*
X44414285Y-66373142D01*
X44271428Y-66301714D01*
X44200000Y-66230285D01*
X44128571Y-66087428D01*
X44128571Y-65801714D01*
X44200000Y-65658857D01*
X45128571Y-64944571D02*
X44128571Y-64944571D01*
X43628571Y-64944571D02*
X43700000Y-65016000D01*
X43771428Y-64944571D01*
X43700000Y-64873142D01*
X43628571Y-64944571D01*
X43771428Y-64944571D01*
X44128571Y-64444571D02*
X44128571Y-63873142D01*
X43628571Y-64230285D02*
X44914285Y-64230285D01*
X45057142Y-64158857D01*
X45128571Y-64016000D01*
X45128571Y-63873142D01*
X44985714Y-63373142D02*
X45057142Y-63301714D01*
X45128571Y-63373142D01*
X45057142Y-63444571D01*
X44985714Y-63373142D01*
X45128571Y-63373142D01*
X45128571Y-62658857D02*
X44128571Y-62658857D01*
X43628571Y-62658857D02*
X43700000Y-62730285D01*
X43771428Y-62658857D01*
X43700000Y-62587428D01*
X43628571Y-62658857D01*
X43771428Y-62658857D01*
X45128571Y-61730285D02*
X45057142Y-61873142D01*
X44985714Y-61944571D01*
X44842857Y-62016000D01*
X44414285Y-62016000D01*
X44271428Y-61944571D01*
X44200000Y-61873142D01*
X44128571Y-61730285D01*
X44128571Y-61516000D01*
X44200000Y-61373142D01*
X44271428Y-61301714D01*
X44414285Y-61230285D01*
X44842857Y-61230285D01*
X44985714Y-61301714D01*
X45057142Y-61373142D01*
X45128571Y-61516000D01*
X45128571Y-61730285D01*
X43557142Y-59516000D02*
X45485714Y-60801714D01*
X43628571Y-58587428D02*
X44700000Y-58587428D01*
X44914285Y-58658857D01*
X45057142Y-58801714D01*
X45128571Y-59016000D01*
X45128571Y-59158857D01*
X44128571Y-57230285D02*
X45128571Y-57230285D01*
X44128571Y-57873142D02*
X44914285Y-57873142D01*
X45057142Y-57801714D01*
X45128571Y-57658857D01*
X45128571Y-57444571D01*
X45057142Y-57301714D01*
X44985714Y-57230285D01*
X44985714Y-55658857D02*
X45057142Y-55730285D01*
X45128571Y-55944571D01*
X45128571Y-56087428D01*
X45057142Y-56301714D01*
X44914285Y-56444571D01*
X44771428Y-56516000D01*
X44485714Y-56587428D01*
X44271428Y-56587428D01*
X43985714Y-56516000D01*
X43842857Y-56444571D01*
X43700000Y-56301714D01*
X43628571Y-56087428D01*
X43628571Y-55944571D01*
X43700000Y-55730285D01*
X43771428Y-55658857D01*
X44128571Y-54373142D02*
X45342857Y-54373142D01*
X45485714Y-54444571D01*
X45557142Y-54516000D01*
X45628571Y-54658857D01*
X45628571Y-54873142D01*
X45557142Y-55016000D01*
X45057142Y-54373142D02*
X45128571Y-54516000D01*
X45128571Y-54801714D01*
X45057142Y-54944571D01*
X44985714Y-55016000D01*
X44842857Y-55087428D01*
X44414285Y-55087428D01*
X44271428Y-55016000D01*
X44200000Y-54944571D01*
X44128571Y-54801714D01*
X44128571Y-54516000D01*
X44200000Y-54373142D01*
X44128571Y-53801714D02*
X45128571Y-53444571D01*
X44128571Y-53087428D01*
X60206000Y-55820571D02*
X61206000Y-55820571D01*
X60206000Y-57320571D01*
X61206000Y-57320571D01*
X60813142Y-54502857D02*
X61027428Y-54574285D01*
X61098857Y-54645714D01*
X61170285Y-54788571D01*
X61170285Y-55002857D01*
X61098857Y-55145714D01*
X61027428Y-55217142D01*
X60884571Y-55288571D01*
X60313142Y-55288571D01*
X60313142Y-53788571D01*
X60813142Y-53788571D01*
X60956000Y-53860000D01*
X61027428Y-53931428D01*
X61098857Y-54074285D01*
X61098857Y-54217142D01*
X61027428Y-54360000D01*
X60956000Y-54431428D01*
X60813142Y-54502857D01*
X60313142Y-54502857D01*
X60206000Y-63948571D02*
X61206000Y-65448571D01*
X61206000Y-63948571D02*
X60206000Y-65448571D01*
X55598571Y-59352571D02*
X55598571Y-57852571D01*
X55955714Y-57852571D01*
X56170000Y-57924000D01*
X56312857Y-58066857D01*
X56384285Y-58209714D01*
X56455714Y-58495428D01*
X56455714Y-58709714D01*
X56384285Y-58995428D01*
X56312857Y-59138285D01*
X56170000Y-59281142D01*
X55955714Y-59352571D01*
X55598571Y-59352571D01*
X57384285Y-57852571D02*
X57670000Y-57852571D01*
X57812857Y-57924000D01*
X57955714Y-58066857D01*
X58027142Y-58352571D01*
X58027142Y-58852571D01*
X57955714Y-59138285D01*
X57812857Y-59281142D01*
X57670000Y-59352571D01*
X57384285Y-59352571D01*
X57241428Y-59281142D01*
X57098571Y-59138285D01*
X57027142Y-58852571D01*
X57027142Y-58352571D01*
X57098571Y-58066857D01*
X57241428Y-57924000D01*
X57384285Y-57852571D01*
X58527142Y-57852571D02*
X58884285Y-59352571D01*
X59170000Y-58281142D01*
X59455714Y-59352571D01*
X59812857Y-57852571D01*
X60384285Y-59352571D02*
X60384285Y-57852571D01*
X61241428Y-59352571D01*
X61241428Y-57852571D01*
X61170285Y-61241714D02*
X61098857Y-61313142D01*
X60884571Y-61384571D01*
X60741714Y-61384571D01*
X60527428Y-61313142D01*
X60384571Y-61170285D01*
X60313142Y-61027428D01*
X60241714Y-60741714D01*
X60241714Y-60527428D01*
X60313142Y-60241714D01*
X60384571Y-60098857D01*
X60527428Y-59956000D01*
X60741714Y-59884571D01*
X60884571Y-59884571D01*
X61098857Y-59956000D01*
X61170285Y-60027428D01*
X61170285Y-71290571D02*
X60670285Y-70576285D01*
X60313142Y-71290571D02*
X60313142Y-69790571D01*
X60884571Y-69790571D01*
X61027428Y-69862000D01*
X61098857Y-69933428D01*
X61170285Y-70076285D01*
X61170285Y-70290571D01*
X61098857Y-70433428D01*
X61027428Y-70504857D01*
X60884571Y-70576285D01*
X60313142Y-70576285D01*
X61170285Y-77640571D02*
X60456000Y-77640571D01*
X60456000Y-76140571D01*
X60348857Y-66798000D02*
X61063142Y-66798000D01*
X60206000Y-67226571D02*
X60706000Y-65726571D01*
X61206000Y-67226571D01*
X57499428Y-69258571D02*
X56785142Y-69258571D01*
X56785142Y-67758571D01*
X57999428Y-68472857D02*
X58499428Y-68472857D01*
X58713714Y-69258571D02*
X57999428Y-69258571D01*
X57999428Y-67758571D01*
X58713714Y-67758571D01*
X59856571Y-68472857D02*
X59356571Y-68472857D01*
X59356571Y-69258571D02*
X59356571Y-67758571D01*
X60070857Y-67758571D01*
X60428000Y-67758571D02*
X61285142Y-67758571D01*
X60856571Y-69258571D02*
X60856571Y-67758571D01*
X55201714Y-73251142D02*
X55416000Y-73322571D01*
X55773142Y-73322571D01*
X55916000Y-73251142D01*
X55987428Y-73179714D01*
X56058857Y-73036857D01*
X56058857Y-72894000D01*
X55987428Y-72751142D01*
X55916000Y-72679714D01*
X55773142Y-72608285D01*
X55487428Y-72536857D01*
X55344571Y-72465428D01*
X55273142Y-72394000D01*
X55201714Y-72251142D01*
X55201714Y-72108285D01*
X55273142Y-71965428D01*
X55344571Y-71894000D01*
X55487428Y-71822571D01*
X55844571Y-71822571D01*
X56058857Y-71894000D01*
X56487428Y-71822571D02*
X57344571Y-71822571D01*
X56916000Y-73322571D02*
X56916000Y-71822571D01*
X57773142Y-72894000D02*
X58487428Y-72894000D01*
X57630285Y-73322571D02*
X58130285Y-71822571D01*
X58630285Y-73322571D01*
X59987428Y-73322571D02*
X59487428Y-72608285D01*
X59130285Y-73322571D02*
X59130285Y-71822571D01*
X59701714Y-71822571D01*
X59844571Y-71894000D01*
X59916000Y-71965428D01*
X59987428Y-72108285D01*
X59987428Y-72322571D01*
X59916000Y-72465428D01*
X59844571Y-72536857D01*
X59701714Y-72608285D01*
X59130285Y-72608285D01*
X60416000Y-71822571D02*
X61273142Y-71822571D01*
X60844571Y-73322571D02*
X60844571Y-71822571D01*
X58765428Y-51756571D02*
X58765428Y-52970857D01*
X58836857Y-53113714D01*
X58908285Y-53185142D01*
X59051142Y-53256571D01*
X59336857Y-53256571D01*
X59479714Y-53185142D01*
X59551142Y-53113714D01*
X59622571Y-52970857D01*
X59622571Y-51756571D01*
X60336857Y-53256571D02*
X60336857Y-51756571D01*
X60908285Y-51756571D01*
X61051142Y-51828000D01*
X61122571Y-51899428D01*
X61194000Y-52042285D01*
X61194000Y-52256571D01*
X61122571Y-52399428D01*
X61051142Y-52470857D01*
X60908285Y-52542285D01*
X60336857Y-52542285D01*
X60706000Y-62702285D02*
X60706000Y-63416571D01*
X60206000Y-61916571D02*
X60706000Y-62702285D01*
X61206000Y-61916571D01*
X56166000Y-75354571D02*
X55666000Y-74640285D01*
X55308857Y-75354571D02*
X55308857Y-73854571D01*
X55880285Y-73854571D01*
X56023142Y-73926000D01*
X56094571Y-73997428D01*
X56166000Y-74140285D01*
X56166000Y-74354571D01*
X56094571Y-74497428D01*
X56023142Y-74568857D01*
X55880285Y-74640285D01*
X55308857Y-74640285D01*
X56808857Y-75354571D02*
X56808857Y-73854571D01*
X58308857Y-73926000D02*
X58166000Y-73854571D01*
X57951714Y-73854571D01*
X57737428Y-73926000D01*
X57594571Y-74068857D01*
X57523142Y-74211714D01*
X57451714Y-74497428D01*
X57451714Y-74711714D01*
X57523142Y-74997428D01*
X57594571Y-75140285D01*
X57737428Y-75283142D01*
X57951714Y-75354571D01*
X58094571Y-75354571D01*
X58308857Y-75283142D01*
X58380285Y-75211714D01*
X58380285Y-74711714D01*
X58094571Y-74711714D01*
X59023142Y-75354571D02*
X59023142Y-73854571D01*
X59023142Y-74568857D02*
X59880285Y-74568857D01*
X59880285Y-75354571D02*
X59880285Y-73854571D01*
X60380285Y-73854571D02*
X61237428Y-73854571D01*
X60808857Y-75354571D02*
X60808857Y-73854571D01*
D12*
%TO.C,J2*%
X66814000Y-77830000D02*
X64754000Y-77830000D01*
X66814000Y-77830000D02*
X66814000Y-51710000D01*
X66814000Y-51710000D02*
X62694000Y-51710000D01*
X62694000Y-75770000D02*
X62694000Y-51710000D01*
X64754000Y-75770000D02*
X62694000Y-75770000D01*
X64754000Y-77830000D02*
X64754000Y-75770000D01*
X62694000Y-77830000D02*
X62694000Y-76770000D01*
X63754000Y-77830000D02*
X62694000Y-77830000D01*
%TO.C,SP3*%
X51469000Y-55356000D02*
X51469000Y-53356000D01*
X54269000Y-55356000D02*
X51469000Y-55356000D01*
X54269000Y-53356000D02*
X54269000Y-55356000D01*
X51469000Y-53356000D02*
X54269000Y-53356000D01*
%TO.C,SP2*%
X51469000Y-75676000D02*
X51469000Y-73676000D01*
X54269000Y-75676000D02*
X51469000Y-75676000D01*
X54269000Y-73676000D02*
X54269000Y-75676000D01*
X51469000Y-73676000D02*
X54269000Y-73676000D01*
%TO.C,RN1*%
X50676000Y-40216000D02*
X47876000Y-40216000D01*
X47876000Y-40216000D02*
X47876000Y-63416000D01*
X47876000Y-63416000D02*
X50676000Y-63416000D01*
X50676000Y-63416000D02*
X50676000Y-40216000D01*
X50676000Y-42926000D02*
X47876000Y-42926000D01*
%TO.C,SP1*%
X51686000Y-45196000D02*
X51686000Y-43196000D01*
X54486000Y-45196000D02*
X51686000Y-45196000D01*
X54486000Y-43196000D02*
X54486000Y-45196000D01*
X51686000Y-43196000D02*
X54486000Y-43196000D01*
%TO.C,RN2*%
X47876000Y-88816000D02*
X50676000Y-88816000D01*
X50676000Y-88816000D02*
X50676000Y-65616000D01*
X50676000Y-65616000D02*
X47876000Y-65616000D01*
X47876000Y-65616000D02*
X47876000Y-88816000D01*
X47876000Y-86106000D02*
X50676000Y-86106000D01*
%TO.C,U2*%
X37576000Y-86166000D02*
X39226000Y-86166000D01*
X39226000Y-86166000D02*
X39226000Y-65726000D01*
X39226000Y-65726000D02*
X33926000Y-65726000D01*
X33926000Y-65726000D02*
X33926000Y-86166000D01*
X33926000Y-86166000D02*
X35576000Y-86166000D01*
X35576000Y-86166000D02*
G75*
G02*
X37576000Y-86166000I1000000J0D01*
G01*
%TO.C,U1*%
X35576000Y-42866000D02*
X33926000Y-42866000D01*
X33926000Y-42866000D02*
X33926000Y-63306000D01*
X33926000Y-63306000D02*
X39226000Y-63306000D01*
X39226000Y-63306000D02*
X39226000Y-42866000D01*
X39226000Y-42866000D02*
X37576000Y-42866000D01*
X37576000Y-42866000D02*
G75*
G02*
X35576000Y-42866000I-1000000J0D01*
G01*
%TO.C,J1*%
X18726000Y-51700000D02*
X18726000Y-54200000D01*
X21226000Y-51700000D02*
X18726000Y-51700000D01*
X20526000Y-76220000D02*
X19026000Y-76220000D01*
X20526000Y-77220000D02*
X20526000Y-76220000D01*
X20526000Y-53000000D02*
X19026000Y-53000000D01*
X20526000Y-52000000D02*
X20526000Y-53000000D01*
X21336000Y-76720000D02*
X21336000Y-77220000D01*
X22546000Y-76720000D02*
X21336000Y-76720000D01*
X22546000Y-52500000D02*
X22546000Y-76720000D01*
X21336000Y-52500000D02*
X22546000Y-52500000D01*
X21336000Y-52000000D02*
X21336000Y-52500000D01*
X23046000Y-77220000D02*
X23046000Y-52000000D01*
X19026000Y-77220000D02*
X23046000Y-77220000D01*
X19026000Y-52000000D02*
X19026000Y-77220000D01*
X23046000Y-52000000D02*
X19026000Y-52000000D01*
%TD*%
%TO.C,J2*%
D13*
X64420666Y-78722380D02*
X64420666Y-79436666D01*
X64373047Y-79579523D01*
X64277809Y-79674761D01*
X64134952Y-79722380D01*
X64039714Y-79722380D01*
X64849238Y-78817619D02*
X64896857Y-78770000D01*
X64992095Y-78722380D01*
X65230190Y-78722380D01*
X65325428Y-78770000D01*
X65373047Y-78817619D01*
X65420666Y-78912857D01*
X65420666Y-79008095D01*
X65373047Y-79150952D01*
X64801619Y-79722380D01*
X65420666Y-79722380D01*
%TO.C,SP3*%
X51607095Y-52960761D02*
X51749952Y-53008380D01*
X51988047Y-53008380D01*
X52083285Y-52960761D01*
X52130904Y-52913142D01*
X52178523Y-52817904D01*
X52178523Y-52722666D01*
X52130904Y-52627428D01*
X52083285Y-52579809D01*
X51988047Y-52532190D01*
X51797571Y-52484571D01*
X51702333Y-52436952D01*
X51654714Y-52389333D01*
X51607095Y-52294095D01*
X51607095Y-52198857D01*
X51654714Y-52103619D01*
X51702333Y-52056000D01*
X51797571Y-52008380D01*
X52035666Y-52008380D01*
X52178523Y-52056000D01*
X52607095Y-53008380D02*
X52607095Y-52008380D01*
X52988047Y-52008380D01*
X53083285Y-52056000D01*
X53130904Y-52103619D01*
X53178523Y-52198857D01*
X53178523Y-52341714D01*
X53130904Y-52436952D01*
X53083285Y-52484571D01*
X52988047Y-52532190D01*
X52607095Y-52532190D01*
X53511857Y-52008380D02*
X54130904Y-52008380D01*
X53797571Y-52389333D01*
X53940428Y-52389333D01*
X54035666Y-52436952D01*
X54083285Y-52484571D01*
X54130904Y-52579809D01*
X54130904Y-52817904D01*
X54083285Y-52913142D01*
X54035666Y-52960761D01*
X53940428Y-53008380D01*
X53654714Y-53008380D01*
X53559476Y-52960761D01*
X53511857Y-52913142D01*
%TO.C,SP2*%
X51607095Y-73280761D02*
X51749952Y-73328380D01*
X51988047Y-73328380D01*
X52083285Y-73280761D01*
X52130904Y-73233142D01*
X52178523Y-73137904D01*
X52178523Y-73042666D01*
X52130904Y-72947428D01*
X52083285Y-72899809D01*
X51988047Y-72852190D01*
X51797571Y-72804571D01*
X51702333Y-72756952D01*
X51654714Y-72709333D01*
X51607095Y-72614095D01*
X51607095Y-72518857D01*
X51654714Y-72423619D01*
X51702333Y-72376000D01*
X51797571Y-72328380D01*
X52035666Y-72328380D01*
X52178523Y-72376000D01*
X52607095Y-73328380D02*
X52607095Y-72328380D01*
X52988047Y-72328380D01*
X53083285Y-72376000D01*
X53130904Y-72423619D01*
X53178523Y-72518857D01*
X53178523Y-72661714D01*
X53130904Y-72756952D01*
X53083285Y-72804571D01*
X52988047Y-72852190D01*
X52607095Y-72852190D01*
X53559476Y-72423619D02*
X53607095Y-72376000D01*
X53702333Y-72328380D01*
X53940428Y-72328380D01*
X54035666Y-72376000D01*
X54083285Y-72423619D01*
X54130904Y-72518857D01*
X54130904Y-72614095D01*
X54083285Y-72756952D01*
X53511857Y-73328380D01*
X54130904Y-73328380D01*
%TO.C,RN1*%
X46934380Y-42092476D02*
X46458190Y-42425809D01*
X46934380Y-42663904D02*
X45934380Y-42663904D01*
X45934380Y-42282952D01*
X45982000Y-42187714D01*
X46029619Y-42140095D01*
X46124857Y-42092476D01*
X46267714Y-42092476D01*
X46362952Y-42140095D01*
X46410571Y-42187714D01*
X46458190Y-42282952D01*
X46458190Y-42663904D01*
X46934380Y-41663904D02*
X45934380Y-41663904D01*
X46934380Y-41092476D01*
X45934380Y-41092476D01*
X46934380Y-40092476D02*
X46934380Y-40663904D01*
X46934380Y-40378190D02*
X45934380Y-40378190D01*
X46077238Y-40473428D01*
X46172476Y-40568666D01*
X46220095Y-40663904D01*
%TO.C,SP1*%
X51824095Y-42800761D02*
X51966952Y-42848380D01*
X52205047Y-42848380D01*
X52300285Y-42800761D01*
X52347904Y-42753142D01*
X52395523Y-42657904D01*
X52395523Y-42562666D01*
X52347904Y-42467428D01*
X52300285Y-42419809D01*
X52205047Y-42372190D01*
X52014571Y-42324571D01*
X51919333Y-42276952D01*
X51871714Y-42229333D01*
X51824095Y-42134095D01*
X51824095Y-42038857D01*
X51871714Y-41943619D01*
X51919333Y-41896000D01*
X52014571Y-41848380D01*
X52252666Y-41848380D01*
X52395523Y-41896000D01*
X52824095Y-42848380D02*
X52824095Y-41848380D01*
X53205047Y-41848380D01*
X53300285Y-41896000D01*
X53347904Y-41943619D01*
X53395523Y-42038857D01*
X53395523Y-42181714D01*
X53347904Y-42276952D01*
X53300285Y-42324571D01*
X53205047Y-42372190D01*
X52824095Y-42372190D01*
X54347904Y-42848380D02*
X53776476Y-42848380D01*
X54062190Y-42848380D02*
X54062190Y-41848380D01*
X53966952Y-41991238D01*
X53871714Y-42086476D01*
X53776476Y-42134095D01*
%TO.C,RN2*%
X52522380Y-88320476D02*
X52046190Y-88653809D01*
X52522380Y-88891904D02*
X51522380Y-88891904D01*
X51522380Y-88510952D01*
X51570000Y-88415714D01*
X51617619Y-88368095D01*
X51712857Y-88320476D01*
X51855714Y-88320476D01*
X51950952Y-88368095D01*
X51998571Y-88415714D01*
X52046190Y-88510952D01*
X52046190Y-88891904D01*
X52522380Y-87891904D02*
X51522380Y-87891904D01*
X52522380Y-87320476D01*
X51522380Y-87320476D01*
X51617619Y-86891904D02*
X51570000Y-86844285D01*
X51522380Y-86749047D01*
X51522380Y-86510952D01*
X51570000Y-86415714D01*
X51617619Y-86368095D01*
X51712857Y-86320476D01*
X51808095Y-86320476D01*
X51950952Y-86368095D01*
X52522380Y-86939523D01*
X52522380Y-86320476D01*
%TO.C,U2*%
X43433904Y-85637619D02*
X43433904Y-84828095D01*
X43386285Y-84732857D01*
X43338666Y-84685238D01*
X43243428Y-84637619D01*
X43052952Y-84637619D01*
X42957714Y-84685238D01*
X42910095Y-84732857D01*
X42862476Y-84828095D01*
X42862476Y-85637619D01*
X42433904Y-85542380D02*
X42386285Y-85590000D01*
X42291047Y-85637619D01*
X42052952Y-85637619D01*
X41957714Y-85590000D01*
X41910095Y-85542380D01*
X41862476Y-85447142D01*
X41862476Y-85351904D01*
X41910095Y-85209047D01*
X42481523Y-84637619D01*
X41862476Y-84637619D01*
%TO.C,U1*%
X35814095Y-41318380D02*
X35814095Y-42127904D01*
X35861714Y-42223142D01*
X35909333Y-42270761D01*
X36004571Y-42318380D01*
X36195047Y-42318380D01*
X36290285Y-42270761D01*
X36337904Y-42223142D01*
X36385523Y-42127904D01*
X36385523Y-41318380D01*
X37385523Y-42318380D02*
X36814095Y-42318380D01*
X37099809Y-42318380D02*
X37099809Y-41318380D01*
X37004571Y-41461238D01*
X36909333Y-41556476D01*
X36814095Y-41604095D01*
%TD*%
M02*
