%TF.GenerationSoftware,KiCad,Pcbnew,(5.1.10)-1*%
%TF.CreationDate,2021-09-08T12:56:42-03:00*%
%TF.ProjectId,SSC-THT,5353432d-5448-4542-9e6b-696361645f70,rev?*%
%TF.SameCoordinates,Original*%
%TF.FileFunction,Soldermask,Bot*%
%TF.FilePolarity,Negative*%
%FSLAX46Y46*%
G04 Gerber Fmt 4.6, Leading zero omitted, Abs format (unit mm)*
G04 Created by KiCad (PCBNEW (5.1.10)-1) date 2021-09-08 12:56:42*
%MOMM*%
%LPD*%
G01*
G04 APERTURE LIST*
%TA.AperFunction,Profile*%
%ADD10C,0.150000*%
%TD*%
%ADD11C,2.200000*%
%ADD12R,1.350000X1.350000*%
%ADD13O,1.350000X1.350000*%
%ADD14R,1.600000X1.600000*%
%ADD15O,1.600000X1.600000*%
%ADD16O,1.950000X1.700000*%
%ADD17C,0.800000*%
G04 APERTURE END LIST*
D10*
X68580000Y-90678000D02*
X18034000Y-90678000D01*
X18034000Y-38354000D02*
X18034000Y-90678000D01*
X68580000Y-38354000D02*
X18034000Y-38354000D01*
X68580000Y-90678000D02*
X68580000Y-38354000D01*
D11*
%TO.C,REF\u002A\u002A*%
X65786000Y-87884000D03*
%TD*%
%TO.C,REF\u002A\u002A*%
X65786000Y-41148000D03*
%TD*%
D12*
%TO.C,J2*%
X63754000Y-76770000D03*
D13*
X65754000Y-76770000D03*
X63754000Y-74770000D03*
X65754000Y-74770000D03*
X63754000Y-72770000D03*
X65754000Y-72770000D03*
X63754000Y-70770000D03*
X65754000Y-70770000D03*
X63754000Y-68770000D03*
X65754000Y-68770000D03*
X63754000Y-66770000D03*
X65754000Y-66770000D03*
X63754000Y-64770000D03*
X65754000Y-64770000D03*
X63754000Y-62770000D03*
X65754000Y-62770000D03*
X63754000Y-60770000D03*
X65754000Y-60770000D03*
X63754000Y-58770000D03*
X65754000Y-58770000D03*
X63754000Y-56770000D03*
X65754000Y-56770000D03*
X63754000Y-54770000D03*
X65754000Y-54770000D03*
X63754000Y-52770000D03*
X65754000Y-52770000D03*
%TD*%
D14*
%TO.C,RN1*%
X49276000Y-41656000D03*
D15*
X49276000Y-44196000D03*
X49276000Y-46736000D03*
X49276000Y-49276000D03*
X49276000Y-51816000D03*
X49276000Y-54356000D03*
X49276000Y-56896000D03*
X49276000Y-59436000D03*
X49276000Y-61976000D03*
%TD*%
D14*
%TO.C,RN2*%
X49276000Y-87376000D03*
D15*
X49276000Y-84836000D03*
X49276000Y-82296000D03*
X49276000Y-79756000D03*
X49276000Y-77216000D03*
X49276000Y-74676000D03*
X49276000Y-72136000D03*
X49276000Y-69596000D03*
X49276000Y-67056000D03*
%TD*%
D14*
%TO.C,U2*%
X40386000Y-84836000D03*
D15*
X32766000Y-67056000D03*
X40386000Y-82296000D03*
X32766000Y-69596000D03*
X40386000Y-79756000D03*
X32766000Y-72136000D03*
X40386000Y-77216000D03*
X32766000Y-74676000D03*
X40386000Y-74676000D03*
X32766000Y-77216000D03*
X40386000Y-72136000D03*
X32766000Y-79756000D03*
X40386000Y-69596000D03*
X32766000Y-82296000D03*
X40386000Y-67056000D03*
X32766000Y-84836000D03*
%TD*%
D14*
%TO.C,U1*%
X32766000Y-44196000D03*
D15*
X40386000Y-61976000D03*
X32766000Y-46736000D03*
X40386000Y-59436000D03*
X32766000Y-49276000D03*
X40386000Y-56896000D03*
X32766000Y-51816000D03*
X40386000Y-54356000D03*
X32766000Y-54356000D03*
X40386000Y-51816000D03*
X32766000Y-56896000D03*
X40386000Y-49276000D03*
X32766000Y-59436000D03*
X40386000Y-46736000D03*
X32766000Y-61976000D03*
X40386000Y-44196000D03*
%TD*%
D11*
%TO.C,REF\u002A\u002A*%
X20828000Y-41148000D03*
%TD*%
%TO.C,REF\u002A\u002A*%
X20828000Y-87884000D03*
%TD*%
%TO.C,J1*%
G36*
G01*
X20611000Y-53760000D02*
X22061000Y-53760000D01*
G75*
G02*
X22311000Y-54010000I0J-250000D01*
G01*
X22311000Y-55210000D01*
G75*
G02*
X22061000Y-55460000I-250000J0D01*
G01*
X20611000Y-55460000D01*
G75*
G02*
X20361000Y-55210000I0J250000D01*
G01*
X20361000Y-54010000D01*
G75*
G02*
X20611000Y-53760000I250000J0D01*
G01*
G37*
D16*
X21336000Y-57110000D03*
X21336000Y-59610000D03*
X21336000Y-62110000D03*
X21336000Y-64610000D03*
X21336000Y-67110000D03*
X21336000Y-69610000D03*
X21336000Y-72110000D03*
X21336000Y-74610000D03*
%TD*%
D17*
X54864000Y-73406000D03*
X55626000Y-54610000D03*
X56388000Y-43942000D03*
X45720000Y-51816000D03*
X45720000Y-46990000D03*
X49022000Y-64516000D03*
X50038000Y-64516000D03*
X51054000Y-64516000D03*
X52070000Y-64516000D03*
X53086000Y-64516000D03*
X54102000Y-64516000D03*
X52070000Y-63500000D03*
X53086000Y-63500000D03*
X54102000Y-63500000D03*
X52070000Y-65532000D03*
X53086000Y-65532000D03*
X54102000Y-65532000D03*
M02*
