M48
METRIC
T1C0.400
T2C0.800
T3C0.950
T4C2.200
%
G90
G05
T1
X45.72Y-46.99
X45.72Y-51.816
X49.022Y-64.516
X50.038Y-64.516
X51.054Y-64.516
X52.07Y-63.5
X52.07Y-64.516
X52.07Y-65.532
X53.086Y-63.5
X53.086Y-64.516
X53.086Y-65.532
X54.102Y-63.5
X54.102Y-64.516
X54.102Y-65.532
X54.864Y-73.406
X55.626Y-54.61
X56.388Y-43.942
T2
X32.766Y-44.196
X32.766Y-46.736
X32.766Y-49.276
X32.766Y-51.816
X32.766Y-54.356
X32.766Y-56.896
X32.766Y-59.436
X32.766Y-61.976
X32.766Y-67.056
X32.766Y-69.596
X32.766Y-72.136
X32.766Y-74.676
X32.766Y-77.216
X32.766Y-79.756
X32.766Y-82.296
X32.766Y-84.836
X40.386Y-44.196
X40.386Y-46.736
X40.386Y-49.276
X40.386Y-51.816
X40.386Y-54.356
X40.386Y-56.896
X40.386Y-59.436
X40.386Y-61.976
X40.386Y-67.056
X40.386Y-69.596
X40.386Y-72.136
X40.386Y-74.676
X40.386Y-77.216
X40.386Y-79.756
X40.386Y-82.296
X40.386Y-84.836
X49.276Y-41.656
X49.276Y-44.196
X49.276Y-46.736
X49.276Y-49.276
X49.276Y-51.816
X49.276Y-54.356
X49.276Y-56.896
X49.276Y-59.436
X49.276Y-61.976
X49.276Y-67.056
X49.276Y-69.596
X49.276Y-72.136
X49.276Y-74.676
X49.276Y-77.216
X49.276Y-79.756
X49.276Y-82.296
X49.276Y-84.836
X49.276Y-87.376
X63.754Y-52.77
X63.754Y-54.77
X63.754Y-56.77
X63.754Y-58.77
X63.754Y-60.77
X63.754Y-62.77
X63.754Y-64.77
X63.754Y-66.77
X63.754Y-68.77
X63.754Y-70.77
X63.754Y-72.77
X63.754Y-74.77
X63.754Y-76.77
X65.754Y-52.77
X65.754Y-54.77
X65.754Y-56.77
X65.754Y-58.77
X65.754Y-60.77
X65.754Y-62.77
X65.754Y-64.77
X65.754Y-66.77
X65.754Y-68.77
X65.754Y-70.77
X65.754Y-72.77
X65.754Y-74.77
X65.754Y-76.77
T3
X21.336Y-54.61
X21.336Y-57.11
X21.336Y-59.61
X21.336Y-62.11
X21.336Y-64.61
X21.336Y-67.11
X21.336Y-69.61
X21.336Y-72.11
X21.336Y-74.61
T4
X20.828Y-41.148
X20.828Y-87.884
X65.786Y-41.148
X65.786Y-87.884
T0
M30
