%TF.GenerationSoftware,KiCad,Pcbnew,(5.1.10)-1*%
%TF.CreationDate,2021-09-08T09:18:34-03:00*%
%TF.ProjectId,SSC,5353432e-6b69-4636-9164-5f7063625858,rev?*%
%TF.SameCoordinates,Original*%
%TF.FileFunction,Legend,Bot*%
%TF.FilePolarity,Positive*%
%FSLAX46Y46*%
G04 Gerber Fmt 4.6, Leading zero omitted, Abs format (unit mm)*
G04 Created by KiCad (PCBNEW (5.1.10)-1) date 2021-09-08 09:18:34*
%MOMM*%
%LPD*%
G01*
G04 APERTURE LIST*
%ADD10C,0.300000*%
%TA.AperFunction,Profile*%
%ADD11C,0.150000*%
%TD*%
G04 APERTURE END LIST*
D10*
X123062857Y-74434000D02*
X123205714Y-74362571D01*
X123420000Y-74362571D01*
X123634285Y-74434000D01*
X123777142Y-74576857D01*
X123848571Y-74719714D01*
X123920000Y-75005428D01*
X123920000Y-75219714D01*
X123848571Y-75505428D01*
X123777142Y-75648285D01*
X123634285Y-75791142D01*
X123420000Y-75862571D01*
X123277142Y-75862571D01*
X123062857Y-75791142D01*
X122991428Y-75719714D01*
X122991428Y-75219714D01*
X123277142Y-75219714D01*
X122348571Y-75862571D02*
X122348571Y-74362571D01*
X121491428Y-75862571D01*
X121491428Y-74362571D01*
X120777142Y-75862571D02*
X120777142Y-74362571D01*
X120420000Y-74362571D01*
X120205714Y-74434000D01*
X120062857Y-74576857D01*
X119991428Y-74719714D01*
X119920000Y-75005428D01*
X119920000Y-75219714D01*
X119991428Y-75505428D01*
X120062857Y-75648285D01*
X120205714Y-75791142D01*
X120420000Y-75862571D01*
X120777142Y-75862571D01*
X124428000Y-54042571D02*
X123928000Y-55542571D01*
X123428000Y-54042571D01*
X122070857Y-55399714D02*
X122142285Y-55471142D01*
X122356571Y-55542571D01*
X122499428Y-55542571D01*
X122713714Y-55471142D01*
X122856571Y-55328285D01*
X122928000Y-55185428D01*
X122999428Y-54899714D01*
X122999428Y-54685428D01*
X122928000Y-54399714D01*
X122856571Y-54256857D01*
X122713714Y-54114000D01*
X122499428Y-54042571D01*
X122356571Y-54042571D01*
X122142285Y-54114000D01*
X122070857Y-54185428D01*
X120570857Y-55399714D02*
X120642285Y-55471142D01*
X120856571Y-55542571D01*
X120999428Y-55542571D01*
X121213714Y-55471142D01*
X121356571Y-55328285D01*
X121428000Y-55185428D01*
X121499428Y-54899714D01*
X121499428Y-54685428D01*
X121428000Y-54399714D01*
X121356571Y-54256857D01*
X121213714Y-54114000D01*
X120999428Y-54042571D01*
X120856571Y-54042571D01*
X120642285Y-54114000D01*
X120570857Y-54185428D01*
X124043142Y-58082571D02*
X124043142Y-56582571D01*
X123686000Y-56582571D01*
X123471714Y-56654000D01*
X123328857Y-56796857D01*
X123257428Y-56939714D01*
X123186000Y-57225428D01*
X123186000Y-57439714D01*
X123257428Y-57725428D01*
X123328857Y-57868285D01*
X123471714Y-58011142D01*
X123686000Y-58082571D01*
X124043142Y-58082571D01*
X121757428Y-58082571D02*
X122614571Y-58082571D01*
X122186000Y-58082571D02*
X122186000Y-56582571D01*
X122328857Y-56796857D01*
X122471714Y-56939714D01*
X122614571Y-57011142D01*
X124043142Y-60622571D02*
X124043142Y-59122571D01*
X123686000Y-59122571D01*
X123471714Y-59194000D01*
X123328857Y-59336857D01*
X123257428Y-59479714D01*
X123186000Y-59765428D01*
X123186000Y-59979714D01*
X123257428Y-60265428D01*
X123328857Y-60408285D01*
X123471714Y-60551142D01*
X123686000Y-60622571D01*
X124043142Y-60622571D01*
X122257428Y-59122571D02*
X122114571Y-59122571D01*
X121971714Y-59194000D01*
X121900285Y-59265428D01*
X121828857Y-59408285D01*
X121757428Y-59694000D01*
X121757428Y-60051142D01*
X121828857Y-60336857D01*
X121900285Y-60479714D01*
X121971714Y-60551142D01*
X122114571Y-60622571D01*
X122257428Y-60622571D01*
X122400285Y-60551142D01*
X122471714Y-60479714D01*
X122543142Y-60336857D01*
X122614571Y-60051142D01*
X122614571Y-59694000D01*
X122543142Y-59408285D01*
X122471714Y-59265428D01*
X122400285Y-59194000D01*
X122257428Y-59122571D01*
X124078857Y-63091142D02*
X123864571Y-63162571D01*
X123507428Y-63162571D01*
X123364571Y-63091142D01*
X123293142Y-63019714D01*
X123221714Y-62876857D01*
X123221714Y-62734000D01*
X123293142Y-62591142D01*
X123364571Y-62519714D01*
X123507428Y-62448285D01*
X123793142Y-62376857D01*
X123936000Y-62305428D01*
X124007428Y-62234000D01*
X124078857Y-62091142D01*
X124078857Y-61948285D01*
X124007428Y-61805428D01*
X123936000Y-61734000D01*
X123793142Y-61662571D01*
X123436000Y-61662571D01*
X123221714Y-61734000D01*
X122293142Y-61662571D02*
X122150285Y-61662571D01*
X122007428Y-61734000D01*
X121936000Y-61805428D01*
X121864571Y-61948285D01*
X121793142Y-62234000D01*
X121793142Y-62591142D01*
X121864571Y-62876857D01*
X121936000Y-63019714D01*
X122007428Y-63091142D01*
X122150285Y-63162571D01*
X122293142Y-63162571D01*
X122436000Y-63091142D01*
X122507428Y-63019714D01*
X122578857Y-62876857D01*
X122650285Y-62591142D01*
X122650285Y-62234000D01*
X122578857Y-61948285D01*
X122507428Y-61805428D01*
X122436000Y-61734000D01*
X122293142Y-61662571D01*
X124078857Y-65631142D02*
X123864571Y-65702571D01*
X123507428Y-65702571D01*
X123364571Y-65631142D01*
X123293142Y-65559714D01*
X123221714Y-65416857D01*
X123221714Y-65274000D01*
X123293142Y-65131142D01*
X123364571Y-65059714D01*
X123507428Y-64988285D01*
X123793142Y-64916857D01*
X123936000Y-64845428D01*
X124007428Y-64774000D01*
X124078857Y-64631142D01*
X124078857Y-64488285D01*
X124007428Y-64345428D01*
X123936000Y-64274000D01*
X123793142Y-64202571D01*
X123436000Y-64202571D01*
X123221714Y-64274000D01*
X121793142Y-65702571D02*
X122650285Y-65702571D01*
X122221714Y-65702571D02*
X122221714Y-64202571D01*
X122364571Y-64416857D01*
X122507428Y-64559714D01*
X122650285Y-64631142D01*
X123920000Y-66742571D02*
X123420000Y-68242571D01*
X122920000Y-66742571D01*
X121562857Y-68099714D02*
X121634285Y-68171142D01*
X121848571Y-68242571D01*
X121991428Y-68242571D01*
X122205714Y-68171142D01*
X122348571Y-68028285D01*
X122420000Y-67885428D01*
X122491428Y-67599714D01*
X122491428Y-67385428D01*
X122420000Y-67099714D01*
X122348571Y-66956857D01*
X122205714Y-66814000D01*
X121991428Y-66742571D01*
X121848571Y-66742571D01*
X121634285Y-66814000D01*
X121562857Y-66885428D01*
X120062857Y-68099714D02*
X120134285Y-68171142D01*
X120348571Y-68242571D01*
X120491428Y-68242571D01*
X120705714Y-68171142D01*
X120848571Y-68028285D01*
X120920000Y-67885428D01*
X120991428Y-67599714D01*
X120991428Y-67385428D01*
X120920000Y-67099714D01*
X120848571Y-66956857D01*
X120705714Y-66814000D01*
X120491428Y-66742571D01*
X120348571Y-66742571D01*
X120134285Y-66814000D01*
X120062857Y-66885428D01*
X124043142Y-70782571D02*
X124043142Y-69282571D01*
X123686000Y-69282571D01*
X123471714Y-69354000D01*
X123328857Y-69496857D01*
X123257428Y-69639714D01*
X123186000Y-69925428D01*
X123186000Y-70139714D01*
X123257428Y-70425428D01*
X123328857Y-70568285D01*
X123471714Y-70711142D01*
X123686000Y-70782571D01*
X124043142Y-70782571D01*
X122686000Y-69282571D02*
X121757428Y-69282571D01*
X122257428Y-69854000D01*
X122043142Y-69854000D01*
X121900285Y-69925428D01*
X121828857Y-69996857D01*
X121757428Y-70139714D01*
X121757428Y-70496857D01*
X121828857Y-70639714D01*
X121900285Y-70711142D01*
X122043142Y-70782571D01*
X122471714Y-70782571D01*
X122614571Y-70711142D01*
X122686000Y-70639714D01*
X124043142Y-73322571D02*
X124043142Y-71822571D01*
X123686000Y-71822571D01*
X123471714Y-71894000D01*
X123328857Y-72036857D01*
X123257428Y-72179714D01*
X123186000Y-72465428D01*
X123186000Y-72679714D01*
X123257428Y-72965428D01*
X123328857Y-73108285D01*
X123471714Y-73251142D01*
X123686000Y-73322571D01*
X124043142Y-73322571D01*
X122614571Y-71965428D02*
X122543142Y-71894000D01*
X122400285Y-71822571D01*
X122043142Y-71822571D01*
X121900285Y-71894000D01*
X121828857Y-71965428D01*
X121757428Y-72108285D01*
X121757428Y-72251142D01*
X121828857Y-72465428D01*
X122686000Y-73322571D01*
X121757428Y-73322571D01*
D11*
X154178000Y-40640000D02*
X114300000Y-40640000D01*
X154178000Y-89916000D02*
X154178000Y-40640000D01*
X114300000Y-89916000D02*
X154178000Y-89916000D01*
X114300000Y-89408000D02*
X114300000Y-89916000D01*
X114300000Y-40640000D02*
X114300000Y-89408000D01*
M02*
