%TF.GenerationSoftware,KiCad,Pcbnew,(5.1.10)-1*%
%TF.CreationDate,2021-09-08T09:18:34-03:00*%
%TF.ProjectId,SSC,5353432e-6b69-4636-9164-5f7063625858,rev?*%
%TF.SameCoordinates,Original*%
%TF.FileFunction,Copper,L2,Bot*%
%TF.FilePolarity,Positive*%
%FSLAX46Y46*%
G04 Gerber Fmt 4.6, Leading zero omitted, Abs format (unit mm)*
G04 Created by KiCad (PCBNEW (5.1.10)-1) date 2021-09-08 09:18:34*
%MOMM*%
%LPD*%
G01*
G04 APERTURE LIST*
%TA.AperFunction,Profile*%
%ADD10C,0.150000*%
%TD*%
%TA.AperFunction,ComponentPad*%
%ADD11O,1.950000X1.700000*%
%TD*%
%TA.AperFunction,ComponentPad*%
%ADD12O,1.350000X1.350000*%
%TD*%
%TA.AperFunction,ComponentPad*%
%ADD13R,1.350000X1.350000*%
%TD*%
%TA.AperFunction,ComponentPad*%
%ADD14O,1.600000X1.600000*%
%TD*%
%TA.AperFunction,ComponentPad*%
%ADD15R,1.600000X1.600000*%
%TD*%
%TA.AperFunction,ViaPad*%
%ADD16C,0.800000*%
%TD*%
%TA.AperFunction,Conductor*%
%ADD17C,0.500000*%
%TD*%
%TA.AperFunction,Conductor*%
%ADD18C,0.250000*%
%TD*%
%TA.AperFunction,Conductor*%
%ADD19C,0.254000*%
%TD*%
%TA.AperFunction,Conductor*%
%ADD20C,0.100000*%
%TD*%
%TA.AperFunction,Conductor*%
%ADD21C,0.025400*%
%TD*%
%ADD22C,0.350000*%
G04 APERTURE END LIST*
D10*
X154178000Y-40640000D02*
X114300000Y-40640000D01*
X154178000Y-89916000D02*
X154178000Y-40640000D01*
X114300000Y-89916000D02*
X154178000Y-89916000D01*
X114300000Y-89408000D02*
X114300000Y-89916000D01*
X114300000Y-40640000D02*
X114300000Y-89408000D01*
D11*
%TO.P,J1,9*%
%TO.N,GND*%
X117475000Y-75245000D03*
%TO.P,J1,8*%
%TO.N,D2*%
X117475000Y-72745000D03*
%TO.P,J1,7*%
%TO.N,D3*%
X117475000Y-70245000D03*
%TO.P,J1,6*%
%TO.N,VCC*%
X117475000Y-67745000D03*
%TO.P,J1,5*%
%TO.N,S1*%
X117475000Y-65245000D03*
%TO.P,J1,4*%
%TO.N,S0*%
X117475000Y-62745000D03*
%TO.P,J1,3*%
%TO.N,D0*%
X117475000Y-60245000D03*
%TO.P,J1,2*%
%TO.N,D1*%
X117475000Y-57745000D03*
%TO.P,J1,1*%
%TO.N,VCC*%
%TA.AperFunction,ComponentPad*%
G36*
G01*
X116750000Y-54395000D02*
X118200000Y-54395000D01*
G75*
G02*
X118450000Y-54645000I0J-250000D01*
G01*
X118450000Y-55845000D01*
G75*
G02*
X118200000Y-56095000I-250000J0D01*
G01*
X116750000Y-56095000D01*
G75*
G02*
X116500000Y-55845000I0J250000D01*
G01*
X116500000Y-54645000D01*
G75*
G02*
X116750000Y-54395000I250000J0D01*
G01*
G37*
%TD.AperFunction*%
%TD*%
D12*
%TO.P,J2,26*%
%TO.N,GND*%
X149955000Y-53470000D03*
%TO.P,J2,25*%
%TO.N,Y*%
X147955000Y-53470000D03*
%TO.P,J2,24*%
%TO.N,GND*%
X149955000Y-55470000D03*
%TO.P,J2,23*%
%TO.N,C*%
X147955000Y-55470000D03*
%TO.P,J2,22*%
%TO.N,GND*%
X149955000Y-57470000D03*
%TO.P,J2,21*%
%TO.N,DOWN*%
X147955000Y-57470000D03*
%TO.P,J2,20*%
%TO.N,GND*%
X149955000Y-59470000D03*
%TO.P,J2,19*%
%TO.N,Z*%
X147955000Y-59470000D03*
%TO.P,J2,18*%
%TO.N,GND*%
X149955000Y-61470000D03*
%TO.P,J2,17*%
%TO.N,B*%
X147955000Y-61470000D03*
%TO.P,J2,16*%
%TO.N,GND*%
X149955000Y-63470000D03*
%TO.P,J2,15*%
%TO.N,UP*%
X147955000Y-63470000D03*
%TO.P,J2,14*%
%TO.N,GND*%
X149955000Y-65470000D03*
%TO.P,J2,13*%
%TO.N,L*%
X147955000Y-65470000D03*
%TO.P,J2,12*%
%TO.N,GND*%
X149955000Y-67470000D03*
%TO.P,J2,11*%
%TO.N,RIGHT*%
X147955000Y-67470000D03*
%TO.P,J2,10*%
%TO.N,GND*%
X149955000Y-69470000D03*
%TO.P,J2,9*%
%TO.N,START*%
X147955000Y-69470000D03*
%TO.P,J2,8*%
%TO.N,GND*%
X149955000Y-71470000D03*
%TO.P,J2,7*%
%TO.N,R*%
X147955000Y-71470000D03*
%TO.P,J2,6*%
%TO.N,GND*%
X149955000Y-73470000D03*
%TO.P,J2,5*%
%TO.N,LEFT*%
X147955000Y-73470000D03*
%TO.P,J2,4*%
%TO.N,GND*%
X149955000Y-75470000D03*
%TO.P,J2,3*%
%TO.N,A*%
X147955000Y-75470000D03*
%TO.P,J2,2*%
%TO.N,GND*%
X149955000Y-77470000D03*
D13*
%TO.P,J2,1*%
%TO.N,X*%
X147955000Y-77470000D03*
%TD*%
D14*
%TO.P,RN2,9*%
%TO.N,X*%
X146050000Y-85090000D03*
%TO.P,RN2,8*%
%TO.N,A*%
X143510000Y-85090000D03*
%TO.P,RN2,7*%
%TO.N,LEFT*%
X140970000Y-85090000D03*
%TO.P,RN2,6*%
%TO.N,2C3*%
X138430000Y-85090000D03*
%TO.P,RN2,5*%
%TO.N,R*%
X135890000Y-85090000D03*
%TO.P,RN2,4*%
%TO.N,START*%
X133350000Y-85090000D03*
%TO.P,RN2,3*%
%TO.N,RIGHT*%
X130810000Y-85090000D03*
%TO.P,RN2,2*%
%TO.N,L*%
X128270000Y-85090000D03*
D15*
%TO.P,RN2,1*%
%TO.N,VCC*%
X125730000Y-85090000D03*
%TD*%
D14*
%TO.P,RN1,9*%
%TO.N,Y*%
X146050000Y-45720000D03*
%TO.P,RN1,8*%
%TO.N,C*%
X143510000Y-45720000D03*
%TO.P,RN1,7*%
%TO.N,DOWN*%
X140970000Y-45720000D03*
%TO.P,RN1,6*%
%TO.N,3C3*%
X138430000Y-45720000D03*
%TO.P,RN1,5*%
%TO.N,Z*%
X135890000Y-45720000D03*
%TO.P,RN1,4*%
%TO.N,B*%
X133350000Y-45720000D03*
%TO.P,RN1,3*%
%TO.N,UP*%
X130810000Y-45720000D03*
%TO.P,RN1,2*%
%TO.N,1C3*%
X128270000Y-45720000D03*
D15*
%TO.P,RN1,1*%
%TO.N,VCC*%
X125730000Y-45720000D03*
%TD*%
D16*
%TO.N,GND*%
X132588000Y-53107000D03*
X125000000Y-41500000D03*
X142000000Y-41500000D03*
X129500000Y-79500000D03*
X133000000Y-80500000D03*
X141500000Y-87500000D03*
X130990000Y-66910000D03*
X130990000Y-65410000D03*
X132490000Y-65410000D03*
X132490000Y-66910000D03*
X130990000Y-63910000D03*
X132490000Y-63910000D03*
X133990000Y-63910000D03*
X133990000Y-65410000D03*
X133990000Y-66910000D03*
%TO.N,VCC*%
X130556000Y-52324000D03*
%TO.N,S1*%
X123444000Y-54864000D03*
X119888000Y-61976000D03*
X132080000Y-76200000D03*
%TO.N,S0*%
X123444000Y-74168000D03*
X131958847Y-55250847D03*
%TD*%
D17*
%TO.N,VCC*%
X124430000Y-85090000D02*
X115824000Y-76484000D01*
X125730000Y-85090000D02*
X124430000Y-85090000D01*
X115824000Y-69396000D02*
X117475000Y-67745000D01*
X115824000Y-76484000D02*
X115824000Y-69396000D01*
X116049990Y-56670010D02*
X117475000Y-55245000D01*
X116049990Y-66319990D02*
X116049990Y-56670010D01*
X117475000Y-67745000D02*
X116049990Y-66319990D01*
X117475000Y-53975000D02*
X125730000Y-45720000D01*
X117475000Y-55245000D02*
X117475000Y-53975000D01*
X125730000Y-47498000D02*
X125730000Y-45720000D01*
X130556000Y-52324000D02*
X125730000Y-47498000D01*
D18*
%TO.N,S1*%
X119888000Y-58420000D02*
X119888000Y-61976000D01*
X123444000Y-54864000D02*
X119888000Y-58420000D01*
X121208990Y-73005992D02*
X124402998Y-76200000D01*
X121208990Y-68978990D02*
X121208990Y-73005992D01*
X124402998Y-76200000D02*
X132080000Y-76200000D01*
X117475000Y-65245000D02*
X121208990Y-68978990D01*
%TO.N,S0*%
X121659000Y-72383000D02*
X121659000Y-62745000D01*
X123444000Y-74168000D02*
X121659000Y-72383000D01*
X121659000Y-62745000D02*
X124199000Y-62745000D01*
X117475000Y-62745000D02*
X121659000Y-62745000D01*
X124464694Y-62745000D02*
X124199000Y-62745000D01*
X131958847Y-55250847D02*
X124464694Y-62745000D01*
%TO.N,UP*%
X130810000Y-46325000D02*
X130810000Y-45720000D01*
X147955000Y-63470000D02*
X130810000Y-46325000D01*
%TO.N,DOWN*%
X140970000Y-50485000D02*
X140970000Y-45720000D01*
X147955000Y-57470000D02*
X140970000Y-50485000D01*
%TO.N,LEFT*%
X140970000Y-80455000D02*
X147955000Y-73470000D01*
X140970000Y-85090000D02*
X140970000Y-80455000D01*
%TO.N,RIGHT*%
X130810000Y-85090000D02*
X130810000Y-83820000D01*
X147160000Y-67470000D02*
X147955000Y-67470000D01*
X130810000Y-83820000D02*
X147160000Y-67470000D01*
%TO.N,X*%
X146050000Y-79375000D02*
X147955000Y-77470000D01*
X146050000Y-85090000D02*
X146050000Y-79375000D01*
%TO.N,Y*%
X147955000Y-53470000D02*
X146304000Y-51819000D01*
X146050000Y-51565000D02*
X146304000Y-51819000D01*
X146050000Y-45720000D02*
X146050000Y-51565000D01*
%TO.N,Z*%
X135890000Y-47405000D02*
X135890000Y-45720000D01*
X147955000Y-59470000D02*
X135890000Y-47405000D01*
%TO.N,START*%
X133350000Y-84075000D02*
X147955000Y-69470000D01*
X133350000Y-85090000D02*
X133350000Y-84075000D01*
%TO.N,A*%
X143510000Y-79915000D02*
X147955000Y-75470000D01*
X143510000Y-85090000D02*
X143510000Y-79915000D01*
%TO.N,B*%
X133350000Y-46865000D02*
X133350000Y-45720000D01*
X147955000Y-61470000D02*
X133350000Y-46865000D01*
%TO.N,C*%
X143510000Y-51025000D02*
X143510000Y-45720000D01*
X147955000Y-55470000D02*
X143510000Y-51025000D01*
%TO.N,R*%
X135890000Y-83535000D02*
X135890000Y-85090000D01*
X147955000Y-71470000D02*
X135890000Y-83535000D01*
%TO.N,L*%
X128270000Y-85090000D02*
X128270000Y-83820000D01*
X146620000Y-65470000D02*
X147955000Y-65470000D01*
X128270000Y-83820000D02*
X146620000Y-65470000D01*
%TD*%
D19*
%TO.N,GND*%
X153468000Y-89206000D02*
X115010000Y-89206000D01*
X115010000Y-86697117D01*
X115613000Y-86697117D01*
X115613000Y-87038883D01*
X115679675Y-87374081D01*
X115810463Y-87689831D01*
X116000337Y-87973998D01*
X116242002Y-88215663D01*
X116526169Y-88405537D01*
X116841919Y-88536325D01*
X117177117Y-88603000D01*
X117518883Y-88603000D01*
X117854081Y-88536325D01*
X118169831Y-88405537D01*
X118453998Y-88215663D01*
X118695663Y-87973998D01*
X118885537Y-87689831D01*
X119016325Y-87374081D01*
X119083000Y-87038883D01*
X119083000Y-86697117D01*
X149395000Y-86697117D01*
X149395000Y-87038883D01*
X149461675Y-87374081D01*
X149592463Y-87689831D01*
X149782337Y-87973998D01*
X150024002Y-88215663D01*
X150308169Y-88405537D01*
X150623919Y-88536325D01*
X150959117Y-88603000D01*
X151300883Y-88603000D01*
X151636081Y-88536325D01*
X151951831Y-88405537D01*
X152235998Y-88215663D01*
X152477663Y-87973998D01*
X152667537Y-87689831D01*
X152798325Y-87374081D01*
X152865000Y-87038883D01*
X152865000Y-86697117D01*
X152798325Y-86361919D01*
X152667537Y-86046169D01*
X152477663Y-85762002D01*
X152235998Y-85520337D01*
X151951831Y-85330463D01*
X151636081Y-85199675D01*
X151300883Y-85133000D01*
X150959117Y-85133000D01*
X150623919Y-85199675D01*
X150308169Y-85330463D01*
X150024002Y-85520337D01*
X149782337Y-85762002D01*
X149592463Y-86046169D01*
X149461675Y-86361919D01*
X149395000Y-86697117D01*
X119083000Y-86697117D01*
X119016325Y-86361919D01*
X118885537Y-86046169D01*
X118695663Y-85762002D01*
X118453998Y-85520337D01*
X118169831Y-85330463D01*
X117854081Y-85199675D01*
X117518883Y-85133000D01*
X117177117Y-85133000D01*
X116841919Y-85199675D01*
X116526169Y-85330463D01*
X116242002Y-85520337D01*
X116000337Y-85762002D01*
X115810463Y-86046169D01*
X115679675Y-86361919D01*
X115613000Y-86697117D01*
X115010000Y-86697117D01*
X115010000Y-76838510D01*
X115084589Y-76978058D01*
X115195183Y-77112817D01*
X115228956Y-77140534D01*
X123773470Y-85685049D01*
X123801183Y-85718817D01*
X123834951Y-85746530D01*
X123834953Y-85746532D01*
X123927375Y-85822381D01*
X123935941Y-85829411D01*
X124089687Y-85911589D01*
X124205903Y-85946843D01*
X124256509Y-85962195D01*
X124271306Y-85963652D01*
X124299455Y-85966425D01*
X124304188Y-86014482D01*
X124340498Y-86134180D01*
X124399463Y-86244494D01*
X124478815Y-86341185D01*
X124575506Y-86420537D01*
X124685820Y-86479502D01*
X124805518Y-86515812D01*
X124930000Y-86528072D01*
X126530000Y-86528072D01*
X126654482Y-86515812D01*
X126774180Y-86479502D01*
X126884494Y-86420537D01*
X126981185Y-86341185D01*
X127060537Y-86244494D01*
X127119502Y-86134180D01*
X127155812Y-86014482D01*
X127156643Y-86006039D01*
X127355241Y-86204637D01*
X127590273Y-86361680D01*
X127851426Y-86469853D01*
X128128665Y-86525000D01*
X128411335Y-86525000D01*
X128688574Y-86469853D01*
X128949727Y-86361680D01*
X129184759Y-86204637D01*
X129384637Y-86004759D01*
X129540000Y-85772241D01*
X129695363Y-86004759D01*
X129895241Y-86204637D01*
X130130273Y-86361680D01*
X130391426Y-86469853D01*
X130668665Y-86525000D01*
X130951335Y-86525000D01*
X131228574Y-86469853D01*
X131489727Y-86361680D01*
X131724759Y-86204637D01*
X131924637Y-86004759D01*
X132080000Y-85772241D01*
X132235363Y-86004759D01*
X132435241Y-86204637D01*
X132670273Y-86361680D01*
X132931426Y-86469853D01*
X133208665Y-86525000D01*
X133491335Y-86525000D01*
X133768574Y-86469853D01*
X134029727Y-86361680D01*
X134264759Y-86204637D01*
X134464637Y-86004759D01*
X134620000Y-85772241D01*
X134775363Y-86004759D01*
X134975241Y-86204637D01*
X135210273Y-86361680D01*
X135471426Y-86469853D01*
X135748665Y-86525000D01*
X136031335Y-86525000D01*
X136308574Y-86469853D01*
X136569727Y-86361680D01*
X136804759Y-86204637D01*
X137004637Y-86004759D01*
X137160000Y-85772241D01*
X137315363Y-86004759D01*
X137515241Y-86204637D01*
X137750273Y-86361680D01*
X138011426Y-86469853D01*
X138288665Y-86525000D01*
X138571335Y-86525000D01*
X138848574Y-86469853D01*
X139109727Y-86361680D01*
X139344759Y-86204637D01*
X139544637Y-86004759D01*
X139700000Y-85772241D01*
X139855363Y-86004759D01*
X140055241Y-86204637D01*
X140290273Y-86361680D01*
X140551426Y-86469853D01*
X140828665Y-86525000D01*
X141111335Y-86525000D01*
X141388574Y-86469853D01*
X141649727Y-86361680D01*
X141884759Y-86204637D01*
X142084637Y-86004759D01*
X142240000Y-85772241D01*
X142395363Y-86004759D01*
X142595241Y-86204637D01*
X142830273Y-86361680D01*
X143091426Y-86469853D01*
X143368665Y-86525000D01*
X143651335Y-86525000D01*
X143928574Y-86469853D01*
X144189727Y-86361680D01*
X144424759Y-86204637D01*
X144624637Y-86004759D01*
X144780000Y-85772241D01*
X144935363Y-86004759D01*
X145135241Y-86204637D01*
X145370273Y-86361680D01*
X145631426Y-86469853D01*
X145908665Y-86525000D01*
X146191335Y-86525000D01*
X146468574Y-86469853D01*
X146729727Y-86361680D01*
X146964759Y-86204637D01*
X147164637Y-86004759D01*
X147321680Y-85769727D01*
X147429853Y-85508574D01*
X147485000Y-85231335D01*
X147485000Y-84948665D01*
X147429853Y-84671426D01*
X147321680Y-84410273D01*
X147274133Y-84339113D01*
X147246971Y-84289149D01*
X147217530Y-84240348D01*
X147135023Y-84116511D01*
X147109730Y-84081224D01*
X147028016Y-83975085D01*
X147015846Y-83959772D01*
X146941326Y-83868911D01*
X146887216Y-83800179D01*
X146857552Y-83755957D01*
X146841795Y-83724707D01*
X146828970Y-83685825D01*
X146816716Y-83615994D01*
X146810000Y-83483875D01*
X146810000Y-79689801D01*
X147530600Y-78969201D01*
X147608930Y-78898025D01*
X147650726Y-78868061D01*
X147672646Y-78856502D01*
X147690587Y-78850079D01*
X147724969Y-78842269D01*
X147790987Y-78832515D01*
X147886154Y-78820761D01*
X147901773Y-78818634D01*
X148012491Y-78802160D01*
X148050684Y-78795279D01*
X148108285Y-78783072D01*
X148630000Y-78783072D01*
X148754482Y-78770812D01*
X148874180Y-78734502D01*
X148984494Y-78675537D01*
X149081185Y-78596185D01*
X149155256Y-78505929D01*
X149165463Y-78515344D01*
X149384570Y-78649289D01*
X149625599Y-78737915D01*
X149828000Y-78615085D01*
X149828000Y-77597000D01*
X150082000Y-77597000D01*
X150082000Y-78615085D01*
X150284401Y-78737915D01*
X150525430Y-78649289D01*
X150744537Y-78515344D01*
X150933303Y-78341227D01*
X151084473Y-78133629D01*
X151192238Y-77900528D01*
X151222910Y-77799400D01*
X151099224Y-77597000D01*
X150082000Y-77597000D01*
X149828000Y-77597000D01*
X149808000Y-77597000D01*
X149808000Y-77343000D01*
X149828000Y-77343000D01*
X149828000Y-75597000D01*
X150082000Y-75597000D01*
X150082000Y-77343000D01*
X151099224Y-77343000D01*
X151222910Y-77140600D01*
X151192238Y-77039472D01*
X151084473Y-76806371D01*
X150933303Y-76598773D01*
X150793696Y-76470000D01*
X150933303Y-76341227D01*
X151084473Y-76133629D01*
X151192238Y-75900528D01*
X151222910Y-75799400D01*
X151099224Y-75597000D01*
X150082000Y-75597000D01*
X149828000Y-75597000D01*
X149808000Y-75597000D01*
X149808000Y-75343000D01*
X149828000Y-75343000D01*
X149828000Y-73597000D01*
X150082000Y-73597000D01*
X150082000Y-75343000D01*
X151099224Y-75343000D01*
X151222910Y-75140600D01*
X151192238Y-75039472D01*
X151084473Y-74806371D01*
X150933303Y-74598773D01*
X150793696Y-74470000D01*
X150933303Y-74341227D01*
X151084473Y-74133629D01*
X151192238Y-73900528D01*
X151222910Y-73799400D01*
X151099224Y-73597000D01*
X150082000Y-73597000D01*
X149828000Y-73597000D01*
X149808000Y-73597000D01*
X149808000Y-73343000D01*
X149828000Y-73343000D01*
X149828000Y-71597000D01*
X150082000Y-71597000D01*
X150082000Y-73343000D01*
X151099224Y-73343000D01*
X151222910Y-73140600D01*
X151192238Y-73039472D01*
X151084473Y-72806371D01*
X150933303Y-72598773D01*
X150793696Y-72470000D01*
X150933303Y-72341227D01*
X151084473Y-72133629D01*
X151192238Y-71900528D01*
X151222910Y-71799400D01*
X151099224Y-71597000D01*
X150082000Y-71597000D01*
X149828000Y-71597000D01*
X149808000Y-71597000D01*
X149808000Y-71343000D01*
X149828000Y-71343000D01*
X149828000Y-69597000D01*
X150082000Y-69597000D01*
X150082000Y-71343000D01*
X151099224Y-71343000D01*
X151222910Y-71140600D01*
X151192238Y-71039472D01*
X151084473Y-70806371D01*
X150933303Y-70598773D01*
X150793696Y-70470000D01*
X150933303Y-70341227D01*
X151084473Y-70133629D01*
X151192238Y-69900528D01*
X151222910Y-69799400D01*
X151099224Y-69597000D01*
X150082000Y-69597000D01*
X149828000Y-69597000D01*
X149808000Y-69597000D01*
X149808000Y-69343000D01*
X149828000Y-69343000D01*
X149828000Y-67597000D01*
X150082000Y-67597000D01*
X150082000Y-69343000D01*
X151099224Y-69343000D01*
X151222910Y-69140600D01*
X151192238Y-69039472D01*
X151084473Y-68806371D01*
X150933303Y-68598773D01*
X150793696Y-68470000D01*
X150933303Y-68341227D01*
X151084473Y-68133629D01*
X151192238Y-67900528D01*
X151222910Y-67799400D01*
X151099224Y-67597000D01*
X150082000Y-67597000D01*
X149828000Y-67597000D01*
X149808000Y-67597000D01*
X149808000Y-67343000D01*
X149828000Y-67343000D01*
X149828000Y-65597000D01*
X150082000Y-65597000D01*
X150082000Y-67343000D01*
X151099224Y-67343000D01*
X151222910Y-67140600D01*
X151192238Y-67039472D01*
X151084473Y-66806371D01*
X150933303Y-66598773D01*
X150793696Y-66470000D01*
X150933303Y-66341227D01*
X151084473Y-66133629D01*
X151192238Y-65900528D01*
X151222910Y-65799400D01*
X151099224Y-65597000D01*
X150082000Y-65597000D01*
X149828000Y-65597000D01*
X149808000Y-65597000D01*
X149808000Y-65343000D01*
X149828000Y-65343000D01*
X149828000Y-63597000D01*
X150082000Y-63597000D01*
X150082000Y-65343000D01*
X151099224Y-65343000D01*
X151222910Y-65140600D01*
X151192238Y-65039472D01*
X151084473Y-64806371D01*
X150933303Y-64598773D01*
X150793696Y-64470000D01*
X150933303Y-64341227D01*
X151084473Y-64133629D01*
X151192238Y-63900528D01*
X151222910Y-63799400D01*
X151099224Y-63597000D01*
X150082000Y-63597000D01*
X149828000Y-63597000D01*
X149808000Y-63597000D01*
X149808000Y-63343000D01*
X149828000Y-63343000D01*
X149828000Y-61597000D01*
X150082000Y-61597000D01*
X150082000Y-63343000D01*
X151099224Y-63343000D01*
X151222910Y-63140600D01*
X151192238Y-63039472D01*
X151084473Y-62806371D01*
X150933303Y-62598773D01*
X150793696Y-62470000D01*
X150933303Y-62341227D01*
X151084473Y-62133629D01*
X151192238Y-61900528D01*
X151222910Y-61799400D01*
X151099224Y-61597000D01*
X150082000Y-61597000D01*
X149828000Y-61597000D01*
X149808000Y-61597000D01*
X149808000Y-61343000D01*
X149828000Y-61343000D01*
X149828000Y-59597000D01*
X150082000Y-59597000D01*
X150082000Y-61343000D01*
X151099224Y-61343000D01*
X151222910Y-61140600D01*
X151192238Y-61039472D01*
X151084473Y-60806371D01*
X150933303Y-60598773D01*
X150793696Y-60470000D01*
X150933303Y-60341227D01*
X151084473Y-60133629D01*
X151192238Y-59900528D01*
X151222910Y-59799400D01*
X151099224Y-59597000D01*
X150082000Y-59597000D01*
X149828000Y-59597000D01*
X149808000Y-59597000D01*
X149808000Y-59343000D01*
X149828000Y-59343000D01*
X149828000Y-57597000D01*
X150082000Y-57597000D01*
X150082000Y-59343000D01*
X151099224Y-59343000D01*
X151222910Y-59140600D01*
X151192238Y-59039472D01*
X151084473Y-58806371D01*
X150933303Y-58598773D01*
X150793696Y-58470000D01*
X150933303Y-58341227D01*
X151084473Y-58133629D01*
X151192238Y-57900528D01*
X151222910Y-57799400D01*
X151099224Y-57597000D01*
X150082000Y-57597000D01*
X149828000Y-57597000D01*
X149808000Y-57597000D01*
X149808000Y-57343000D01*
X149828000Y-57343000D01*
X149828000Y-55597000D01*
X150082000Y-55597000D01*
X150082000Y-57343000D01*
X151099224Y-57343000D01*
X151222910Y-57140600D01*
X151192238Y-57039472D01*
X151084473Y-56806371D01*
X150933303Y-56598773D01*
X150793696Y-56470000D01*
X150933303Y-56341227D01*
X151084473Y-56133629D01*
X151192238Y-55900528D01*
X151222910Y-55799400D01*
X151099224Y-55597000D01*
X150082000Y-55597000D01*
X149828000Y-55597000D01*
X149808000Y-55597000D01*
X149808000Y-55343000D01*
X149828000Y-55343000D01*
X149828000Y-53597000D01*
X150082000Y-53597000D01*
X150082000Y-55343000D01*
X151099224Y-55343000D01*
X151222910Y-55140600D01*
X151192238Y-55039472D01*
X151084473Y-54806371D01*
X150933303Y-54598773D01*
X150793696Y-54470000D01*
X150933303Y-54341227D01*
X151084473Y-54133629D01*
X151192238Y-53900528D01*
X151222910Y-53799400D01*
X151099224Y-53597000D01*
X150082000Y-53597000D01*
X149828000Y-53597000D01*
X149808000Y-53597000D01*
X149808000Y-53343000D01*
X149828000Y-53343000D01*
X149828000Y-52324915D01*
X150082000Y-52324915D01*
X150082000Y-53343000D01*
X151099224Y-53343000D01*
X151222910Y-53140600D01*
X151192238Y-53039472D01*
X151084473Y-52806371D01*
X150933303Y-52598773D01*
X150744537Y-52424656D01*
X150525430Y-52290711D01*
X150284401Y-52202085D01*
X150082000Y-52324915D01*
X149828000Y-52324915D01*
X149625599Y-52202085D01*
X149384570Y-52290711D01*
X149165463Y-52424656D01*
X148976697Y-52598773D01*
X148959715Y-52622094D01*
X148790077Y-52452456D01*
X148575518Y-52309093D01*
X148337113Y-52210342D01*
X148264860Y-52195970D01*
X148222993Y-52183429D01*
X148172427Y-52170520D01*
X148050684Y-52144720D01*
X148012491Y-52137839D01*
X147901773Y-52121365D01*
X147886154Y-52119238D01*
X147790987Y-52107484D01*
X147724969Y-52097730D01*
X147690587Y-52089920D01*
X147672646Y-52083497D01*
X147650726Y-52071938D01*
X147608929Y-52041973D01*
X147530596Y-51970795D01*
X146810000Y-51250199D01*
X146810000Y-47326125D01*
X146816716Y-47194005D01*
X146828970Y-47124174D01*
X146841795Y-47085292D01*
X146857552Y-47054042D01*
X146887216Y-47009820D01*
X146941326Y-46941088D01*
X147015846Y-46850227D01*
X147028016Y-46834914D01*
X147109730Y-46728775D01*
X147135023Y-46693488D01*
X147217530Y-46569651D01*
X147246970Y-46520852D01*
X147274131Y-46470889D01*
X147321680Y-46399727D01*
X147429853Y-46138574D01*
X147485000Y-45861335D01*
X147485000Y-45578665D01*
X147429853Y-45301426D01*
X147321680Y-45040273D01*
X147164637Y-44805241D01*
X146964759Y-44605363D01*
X146729727Y-44448320D01*
X146468574Y-44340147D01*
X146191335Y-44285000D01*
X145908665Y-44285000D01*
X145631426Y-44340147D01*
X145370273Y-44448320D01*
X145135241Y-44605363D01*
X144935363Y-44805241D01*
X144780000Y-45037759D01*
X144624637Y-44805241D01*
X144424759Y-44605363D01*
X144189727Y-44448320D01*
X143928574Y-44340147D01*
X143651335Y-44285000D01*
X143368665Y-44285000D01*
X143091426Y-44340147D01*
X142830273Y-44448320D01*
X142595241Y-44605363D01*
X142395363Y-44805241D01*
X142240000Y-45037759D01*
X142084637Y-44805241D01*
X141884759Y-44605363D01*
X141649727Y-44448320D01*
X141388574Y-44340147D01*
X141111335Y-44285000D01*
X140828665Y-44285000D01*
X140551426Y-44340147D01*
X140290273Y-44448320D01*
X140055241Y-44605363D01*
X139855363Y-44805241D01*
X139700000Y-45037759D01*
X139544637Y-44805241D01*
X139344759Y-44605363D01*
X139109727Y-44448320D01*
X138848574Y-44340147D01*
X138571335Y-44285000D01*
X138288665Y-44285000D01*
X138011426Y-44340147D01*
X137750273Y-44448320D01*
X137515241Y-44605363D01*
X137315363Y-44805241D01*
X137160000Y-45037759D01*
X137004637Y-44805241D01*
X136804759Y-44605363D01*
X136569727Y-44448320D01*
X136308574Y-44340147D01*
X136031335Y-44285000D01*
X135748665Y-44285000D01*
X135471426Y-44340147D01*
X135210273Y-44448320D01*
X134975241Y-44605363D01*
X134775363Y-44805241D01*
X134620000Y-45037759D01*
X134464637Y-44805241D01*
X134264759Y-44605363D01*
X134029727Y-44448320D01*
X133768574Y-44340147D01*
X133491335Y-44285000D01*
X133208665Y-44285000D01*
X132931426Y-44340147D01*
X132670273Y-44448320D01*
X132435241Y-44605363D01*
X132235363Y-44805241D01*
X132080000Y-45037759D01*
X131924637Y-44805241D01*
X131724759Y-44605363D01*
X131489727Y-44448320D01*
X131228574Y-44340147D01*
X130951335Y-44285000D01*
X130668665Y-44285000D01*
X130391426Y-44340147D01*
X130130273Y-44448320D01*
X129895241Y-44605363D01*
X129695363Y-44805241D01*
X129540000Y-45037759D01*
X129384637Y-44805241D01*
X129184759Y-44605363D01*
X128949727Y-44448320D01*
X128688574Y-44340147D01*
X128411335Y-44285000D01*
X128128665Y-44285000D01*
X127851426Y-44340147D01*
X127590273Y-44448320D01*
X127355241Y-44605363D01*
X127156643Y-44803961D01*
X127155812Y-44795518D01*
X127119502Y-44675820D01*
X127060537Y-44565506D01*
X126981185Y-44468815D01*
X126884494Y-44389463D01*
X126774180Y-44330498D01*
X126654482Y-44294188D01*
X126530000Y-44281928D01*
X124930000Y-44281928D01*
X124805518Y-44294188D01*
X124685820Y-44330498D01*
X124575506Y-44389463D01*
X124478815Y-44468815D01*
X124399463Y-44565506D01*
X124340498Y-44675820D01*
X124304188Y-44795518D01*
X124291928Y-44920000D01*
X124291928Y-45525531D01*
X124276802Y-45583410D01*
X124272208Y-45602150D01*
X124244258Y-45724140D01*
X124221030Y-45825196D01*
X124201506Y-45897023D01*
X124183216Y-45948216D01*
X124161534Y-45993374D01*
X124127510Y-46047628D01*
X124069873Y-46121316D01*
X123971903Y-46226518D01*
X116879952Y-53318470D01*
X116846184Y-53346183D01*
X116818471Y-53379951D01*
X116818468Y-53379954D01*
X116735590Y-53480941D01*
X116653412Y-53634687D01*
X116612212Y-53770499D01*
X116576746Y-53773992D01*
X116410150Y-53824528D01*
X116256614Y-53906595D01*
X116122038Y-54017038D01*
X116011595Y-54151614D01*
X115929528Y-54305150D01*
X115878992Y-54471746D01*
X115861928Y-54645000D01*
X115861928Y-55541243D01*
X115848235Y-55570909D01*
X115811906Y-55630267D01*
X115750441Y-55709849D01*
X115645790Y-55822631D01*
X115454941Y-56013481D01*
X115421174Y-56041193D01*
X115393461Y-56074961D01*
X115393458Y-56074964D01*
X115310580Y-56175951D01*
X115228402Y-56329697D01*
X115177795Y-56496520D01*
X115160709Y-56670010D01*
X115164991Y-56713489D01*
X115164990Y-66276521D01*
X115160709Y-66319990D01*
X115164990Y-66363459D01*
X115164990Y-66363466D01*
X115177795Y-66493479D01*
X115228401Y-66660302D01*
X115310579Y-66814048D01*
X115421173Y-66948807D01*
X115454946Y-66976524D01*
X115645806Y-67167384D01*
X115750436Y-67280144D01*
X115811906Y-67359732D01*
X115848235Y-67419090D01*
X115871539Y-67469579D01*
X115881913Y-67500326D01*
X115857815Y-67745000D01*
X115881913Y-67989673D01*
X115871539Y-68020420D01*
X115848235Y-68070909D01*
X115811906Y-68130267D01*
X115750441Y-68209849D01*
X115645792Y-68322630D01*
X115228951Y-68739471D01*
X115195184Y-68767183D01*
X115167471Y-68800951D01*
X115167468Y-68800954D01*
X115084590Y-68901941D01*
X115010000Y-69041491D01*
X115010000Y-43517117D01*
X115613000Y-43517117D01*
X115613000Y-43858883D01*
X115679675Y-44194081D01*
X115810463Y-44509831D01*
X116000337Y-44793998D01*
X116242002Y-45035663D01*
X116526169Y-45225537D01*
X116841919Y-45356325D01*
X117177117Y-45423000D01*
X117518883Y-45423000D01*
X117854081Y-45356325D01*
X118169831Y-45225537D01*
X118453998Y-45035663D01*
X118695663Y-44793998D01*
X118885537Y-44509831D01*
X119016325Y-44194081D01*
X119083000Y-43858883D01*
X119083000Y-43517117D01*
X149395000Y-43517117D01*
X149395000Y-43858883D01*
X149461675Y-44194081D01*
X149592463Y-44509831D01*
X149782337Y-44793998D01*
X150024002Y-45035663D01*
X150308169Y-45225537D01*
X150623919Y-45356325D01*
X150959117Y-45423000D01*
X151300883Y-45423000D01*
X151636081Y-45356325D01*
X151951831Y-45225537D01*
X152235998Y-45035663D01*
X152477663Y-44793998D01*
X152667537Y-44509831D01*
X152798325Y-44194081D01*
X152865000Y-43858883D01*
X152865000Y-43517117D01*
X152798325Y-43181919D01*
X152667537Y-42866169D01*
X152477663Y-42582002D01*
X152235998Y-42340337D01*
X151951831Y-42150463D01*
X151636081Y-42019675D01*
X151300883Y-41953000D01*
X150959117Y-41953000D01*
X150623919Y-42019675D01*
X150308169Y-42150463D01*
X150024002Y-42340337D01*
X149782337Y-42582002D01*
X149592463Y-42866169D01*
X149461675Y-43181919D01*
X149395000Y-43517117D01*
X119083000Y-43517117D01*
X119016325Y-43181919D01*
X118885537Y-42866169D01*
X118695663Y-42582002D01*
X118453998Y-42340337D01*
X118169831Y-42150463D01*
X117854081Y-42019675D01*
X117518883Y-41953000D01*
X117177117Y-41953000D01*
X116841919Y-42019675D01*
X116526169Y-42150463D01*
X116242002Y-42340337D01*
X116000337Y-42582002D01*
X115810463Y-42866169D01*
X115679675Y-43181919D01*
X115613000Y-43517117D01*
X115010000Y-43517117D01*
X115010000Y-41350000D01*
X153468001Y-41350000D01*
X153468000Y-89206000D01*
%TA.AperFunction,Conductor*%
D20*
G36*
X153468000Y-89206000D02*
G01*
X115010000Y-89206000D01*
X115010000Y-86697117D01*
X115613000Y-86697117D01*
X115613000Y-87038883D01*
X115679675Y-87374081D01*
X115810463Y-87689831D01*
X116000337Y-87973998D01*
X116242002Y-88215663D01*
X116526169Y-88405537D01*
X116841919Y-88536325D01*
X117177117Y-88603000D01*
X117518883Y-88603000D01*
X117854081Y-88536325D01*
X118169831Y-88405537D01*
X118453998Y-88215663D01*
X118695663Y-87973998D01*
X118885537Y-87689831D01*
X119016325Y-87374081D01*
X119083000Y-87038883D01*
X119083000Y-86697117D01*
X149395000Y-86697117D01*
X149395000Y-87038883D01*
X149461675Y-87374081D01*
X149592463Y-87689831D01*
X149782337Y-87973998D01*
X150024002Y-88215663D01*
X150308169Y-88405537D01*
X150623919Y-88536325D01*
X150959117Y-88603000D01*
X151300883Y-88603000D01*
X151636081Y-88536325D01*
X151951831Y-88405537D01*
X152235998Y-88215663D01*
X152477663Y-87973998D01*
X152667537Y-87689831D01*
X152798325Y-87374081D01*
X152865000Y-87038883D01*
X152865000Y-86697117D01*
X152798325Y-86361919D01*
X152667537Y-86046169D01*
X152477663Y-85762002D01*
X152235998Y-85520337D01*
X151951831Y-85330463D01*
X151636081Y-85199675D01*
X151300883Y-85133000D01*
X150959117Y-85133000D01*
X150623919Y-85199675D01*
X150308169Y-85330463D01*
X150024002Y-85520337D01*
X149782337Y-85762002D01*
X149592463Y-86046169D01*
X149461675Y-86361919D01*
X149395000Y-86697117D01*
X119083000Y-86697117D01*
X119016325Y-86361919D01*
X118885537Y-86046169D01*
X118695663Y-85762002D01*
X118453998Y-85520337D01*
X118169831Y-85330463D01*
X117854081Y-85199675D01*
X117518883Y-85133000D01*
X117177117Y-85133000D01*
X116841919Y-85199675D01*
X116526169Y-85330463D01*
X116242002Y-85520337D01*
X116000337Y-85762002D01*
X115810463Y-86046169D01*
X115679675Y-86361919D01*
X115613000Y-86697117D01*
X115010000Y-86697117D01*
X115010000Y-76838510D01*
X115084589Y-76978058D01*
X115195183Y-77112817D01*
X115228956Y-77140534D01*
X123773470Y-85685049D01*
X123801183Y-85718817D01*
X123834951Y-85746530D01*
X123834953Y-85746532D01*
X123927375Y-85822381D01*
X123935941Y-85829411D01*
X124089687Y-85911589D01*
X124205903Y-85946843D01*
X124256509Y-85962195D01*
X124271306Y-85963652D01*
X124299455Y-85966425D01*
X124304188Y-86014482D01*
X124340498Y-86134180D01*
X124399463Y-86244494D01*
X124478815Y-86341185D01*
X124575506Y-86420537D01*
X124685820Y-86479502D01*
X124805518Y-86515812D01*
X124930000Y-86528072D01*
X126530000Y-86528072D01*
X126654482Y-86515812D01*
X126774180Y-86479502D01*
X126884494Y-86420537D01*
X126981185Y-86341185D01*
X127060537Y-86244494D01*
X127119502Y-86134180D01*
X127155812Y-86014482D01*
X127156643Y-86006039D01*
X127355241Y-86204637D01*
X127590273Y-86361680D01*
X127851426Y-86469853D01*
X128128665Y-86525000D01*
X128411335Y-86525000D01*
X128688574Y-86469853D01*
X128949727Y-86361680D01*
X129184759Y-86204637D01*
X129384637Y-86004759D01*
X129540000Y-85772241D01*
X129695363Y-86004759D01*
X129895241Y-86204637D01*
X130130273Y-86361680D01*
X130391426Y-86469853D01*
X130668665Y-86525000D01*
X130951335Y-86525000D01*
X131228574Y-86469853D01*
X131489727Y-86361680D01*
X131724759Y-86204637D01*
X131924637Y-86004759D01*
X132080000Y-85772241D01*
X132235363Y-86004759D01*
X132435241Y-86204637D01*
X132670273Y-86361680D01*
X132931426Y-86469853D01*
X133208665Y-86525000D01*
X133491335Y-86525000D01*
X133768574Y-86469853D01*
X134029727Y-86361680D01*
X134264759Y-86204637D01*
X134464637Y-86004759D01*
X134620000Y-85772241D01*
X134775363Y-86004759D01*
X134975241Y-86204637D01*
X135210273Y-86361680D01*
X135471426Y-86469853D01*
X135748665Y-86525000D01*
X136031335Y-86525000D01*
X136308574Y-86469853D01*
X136569727Y-86361680D01*
X136804759Y-86204637D01*
X137004637Y-86004759D01*
X137160000Y-85772241D01*
X137315363Y-86004759D01*
X137515241Y-86204637D01*
X137750273Y-86361680D01*
X138011426Y-86469853D01*
X138288665Y-86525000D01*
X138571335Y-86525000D01*
X138848574Y-86469853D01*
X139109727Y-86361680D01*
X139344759Y-86204637D01*
X139544637Y-86004759D01*
X139700000Y-85772241D01*
X139855363Y-86004759D01*
X140055241Y-86204637D01*
X140290273Y-86361680D01*
X140551426Y-86469853D01*
X140828665Y-86525000D01*
X141111335Y-86525000D01*
X141388574Y-86469853D01*
X141649727Y-86361680D01*
X141884759Y-86204637D01*
X142084637Y-86004759D01*
X142240000Y-85772241D01*
X142395363Y-86004759D01*
X142595241Y-86204637D01*
X142830273Y-86361680D01*
X143091426Y-86469853D01*
X143368665Y-86525000D01*
X143651335Y-86525000D01*
X143928574Y-86469853D01*
X144189727Y-86361680D01*
X144424759Y-86204637D01*
X144624637Y-86004759D01*
X144780000Y-85772241D01*
X144935363Y-86004759D01*
X145135241Y-86204637D01*
X145370273Y-86361680D01*
X145631426Y-86469853D01*
X145908665Y-86525000D01*
X146191335Y-86525000D01*
X146468574Y-86469853D01*
X146729727Y-86361680D01*
X146964759Y-86204637D01*
X147164637Y-86004759D01*
X147321680Y-85769727D01*
X147429853Y-85508574D01*
X147485000Y-85231335D01*
X147485000Y-84948665D01*
X147429853Y-84671426D01*
X147321680Y-84410273D01*
X147274133Y-84339113D01*
X147246971Y-84289149D01*
X147217530Y-84240348D01*
X147135023Y-84116511D01*
X147109730Y-84081224D01*
X147028016Y-83975085D01*
X147015846Y-83959772D01*
X146941326Y-83868911D01*
X146887216Y-83800179D01*
X146857552Y-83755957D01*
X146841795Y-83724707D01*
X146828970Y-83685825D01*
X146816716Y-83615994D01*
X146810000Y-83483875D01*
X146810000Y-79689801D01*
X147530600Y-78969201D01*
X147608930Y-78898025D01*
X147650726Y-78868061D01*
X147672646Y-78856502D01*
X147690587Y-78850079D01*
X147724969Y-78842269D01*
X147790987Y-78832515D01*
X147886154Y-78820761D01*
X147901773Y-78818634D01*
X148012491Y-78802160D01*
X148050684Y-78795279D01*
X148108285Y-78783072D01*
X148630000Y-78783072D01*
X148754482Y-78770812D01*
X148874180Y-78734502D01*
X148984494Y-78675537D01*
X149081185Y-78596185D01*
X149155256Y-78505929D01*
X149165463Y-78515344D01*
X149384570Y-78649289D01*
X149625599Y-78737915D01*
X149828000Y-78615085D01*
X149828000Y-77597000D01*
X150082000Y-77597000D01*
X150082000Y-78615085D01*
X150284401Y-78737915D01*
X150525430Y-78649289D01*
X150744537Y-78515344D01*
X150933303Y-78341227D01*
X151084473Y-78133629D01*
X151192238Y-77900528D01*
X151222910Y-77799400D01*
X151099224Y-77597000D01*
X150082000Y-77597000D01*
X149828000Y-77597000D01*
X149808000Y-77597000D01*
X149808000Y-77343000D01*
X149828000Y-77343000D01*
X149828000Y-75597000D01*
X150082000Y-75597000D01*
X150082000Y-77343000D01*
X151099224Y-77343000D01*
X151222910Y-77140600D01*
X151192238Y-77039472D01*
X151084473Y-76806371D01*
X150933303Y-76598773D01*
X150793696Y-76470000D01*
X150933303Y-76341227D01*
X151084473Y-76133629D01*
X151192238Y-75900528D01*
X151222910Y-75799400D01*
X151099224Y-75597000D01*
X150082000Y-75597000D01*
X149828000Y-75597000D01*
X149808000Y-75597000D01*
X149808000Y-75343000D01*
X149828000Y-75343000D01*
X149828000Y-73597000D01*
X150082000Y-73597000D01*
X150082000Y-75343000D01*
X151099224Y-75343000D01*
X151222910Y-75140600D01*
X151192238Y-75039472D01*
X151084473Y-74806371D01*
X150933303Y-74598773D01*
X150793696Y-74470000D01*
X150933303Y-74341227D01*
X151084473Y-74133629D01*
X151192238Y-73900528D01*
X151222910Y-73799400D01*
X151099224Y-73597000D01*
X150082000Y-73597000D01*
X149828000Y-73597000D01*
X149808000Y-73597000D01*
X149808000Y-73343000D01*
X149828000Y-73343000D01*
X149828000Y-71597000D01*
X150082000Y-71597000D01*
X150082000Y-73343000D01*
X151099224Y-73343000D01*
X151222910Y-73140600D01*
X151192238Y-73039472D01*
X151084473Y-72806371D01*
X150933303Y-72598773D01*
X150793696Y-72470000D01*
X150933303Y-72341227D01*
X151084473Y-72133629D01*
X151192238Y-71900528D01*
X151222910Y-71799400D01*
X151099224Y-71597000D01*
X150082000Y-71597000D01*
X149828000Y-71597000D01*
X149808000Y-71597000D01*
X149808000Y-71343000D01*
X149828000Y-71343000D01*
X149828000Y-69597000D01*
X150082000Y-69597000D01*
X150082000Y-71343000D01*
X151099224Y-71343000D01*
X151222910Y-71140600D01*
X151192238Y-71039472D01*
X151084473Y-70806371D01*
X150933303Y-70598773D01*
X150793696Y-70470000D01*
X150933303Y-70341227D01*
X151084473Y-70133629D01*
X151192238Y-69900528D01*
X151222910Y-69799400D01*
X151099224Y-69597000D01*
X150082000Y-69597000D01*
X149828000Y-69597000D01*
X149808000Y-69597000D01*
X149808000Y-69343000D01*
X149828000Y-69343000D01*
X149828000Y-67597000D01*
X150082000Y-67597000D01*
X150082000Y-69343000D01*
X151099224Y-69343000D01*
X151222910Y-69140600D01*
X151192238Y-69039472D01*
X151084473Y-68806371D01*
X150933303Y-68598773D01*
X150793696Y-68470000D01*
X150933303Y-68341227D01*
X151084473Y-68133629D01*
X151192238Y-67900528D01*
X151222910Y-67799400D01*
X151099224Y-67597000D01*
X150082000Y-67597000D01*
X149828000Y-67597000D01*
X149808000Y-67597000D01*
X149808000Y-67343000D01*
X149828000Y-67343000D01*
X149828000Y-65597000D01*
X150082000Y-65597000D01*
X150082000Y-67343000D01*
X151099224Y-67343000D01*
X151222910Y-67140600D01*
X151192238Y-67039472D01*
X151084473Y-66806371D01*
X150933303Y-66598773D01*
X150793696Y-66470000D01*
X150933303Y-66341227D01*
X151084473Y-66133629D01*
X151192238Y-65900528D01*
X151222910Y-65799400D01*
X151099224Y-65597000D01*
X150082000Y-65597000D01*
X149828000Y-65597000D01*
X149808000Y-65597000D01*
X149808000Y-65343000D01*
X149828000Y-65343000D01*
X149828000Y-63597000D01*
X150082000Y-63597000D01*
X150082000Y-65343000D01*
X151099224Y-65343000D01*
X151222910Y-65140600D01*
X151192238Y-65039472D01*
X151084473Y-64806371D01*
X150933303Y-64598773D01*
X150793696Y-64470000D01*
X150933303Y-64341227D01*
X151084473Y-64133629D01*
X151192238Y-63900528D01*
X151222910Y-63799400D01*
X151099224Y-63597000D01*
X150082000Y-63597000D01*
X149828000Y-63597000D01*
X149808000Y-63597000D01*
X149808000Y-63343000D01*
X149828000Y-63343000D01*
X149828000Y-61597000D01*
X150082000Y-61597000D01*
X150082000Y-63343000D01*
X151099224Y-63343000D01*
X151222910Y-63140600D01*
X151192238Y-63039472D01*
X151084473Y-62806371D01*
X150933303Y-62598773D01*
X150793696Y-62470000D01*
X150933303Y-62341227D01*
X151084473Y-62133629D01*
X151192238Y-61900528D01*
X151222910Y-61799400D01*
X151099224Y-61597000D01*
X150082000Y-61597000D01*
X149828000Y-61597000D01*
X149808000Y-61597000D01*
X149808000Y-61343000D01*
X149828000Y-61343000D01*
X149828000Y-59597000D01*
X150082000Y-59597000D01*
X150082000Y-61343000D01*
X151099224Y-61343000D01*
X151222910Y-61140600D01*
X151192238Y-61039472D01*
X151084473Y-60806371D01*
X150933303Y-60598773D01*
X150793696Y-60470000D01*
X150933303Y-60341227D01*
X151084473Y-60133629D01*
X151192238Y-59900528D01*
X151222910Y-59799400D01*
X151099224Y-59597000D01*
X150082000Y-59597000D01*
X149828000Y-59597000D01*
X149808000Y-59597000D01*
X149808000Y-59343000D01*
X149828000Y-59343000D01*
X149828000Y-57597000D01*
X150082000Y-57597000D01*
X150082000Y-59343000D01*
X151099224Y-59343000D01*
X151222910Y-59140600D01*
X151192238Y-59039472D01*
X151084473Y-58806371D01*
X150933303Y-58598773D01*
X150793696Y-58470000D01*
X150933303Y-58341227D01*
X151084473Y-58133629D01*
X151192238Y-57900528D01*
X151222910Y-57799400D01*
X151099224Y-57597000D01*
X150082000Y-57597000D01*
X149828000Y-57597000D01*
X149808000Y-57597000D01*
X149808000Y-57343000D01*
X149828000Y-57343000D01*
X149828000Y-55597000D01*
X150082000Y-55597000D01*
X150082000Y-57343000D01*
X151099224Y-57343000D01*
X151222910Y-57140600D01*
X151192238Y-57039472D01*
X151084473Y-56806371D01*
X150933303Y-56598773D01*
X150793696Y-56470000D01*
X150933303Y-56341227D01*
X151084473Y-56133629D01*
X151192238Y-55900528D01*
X151222910Y-55799400D01*
X151099224Y-55597000D01*
X150082000Y-55597000D01*
X149828000Y-55597000D01*
X149808000Y-55597000D01*
X149808000Y-55343000D01*
X149828000Y-55343000D01*
X149828000Y-53597000D01*
X150082000Y-53597000D01*
X150082000Y-55343000D01*
X151099224Y-55343000D01*
X151222910Y-55140600D01*
X151192238Y-55039472D01*
X151084473Y-54806371D01*
X150933303Y-54598773D01*
X150793696Y-54470000D01*
X150933303Y-54341227D01*
X151084473Y-54133629D01*
X151192238Y-53900528D01*
X151222910Y-53799400D01*
X151099224Y-53597000D01*
X150082000Y-53597000D01*
X149828000Y-53597000D01*
X149808000Y-53597000D01*
X149808000Y-53343000D01*
X149828000Y-53343000D01*
X149828000Y-52324915D01*
X150082000Y-52324915D01*
X150082000Y-53343000D01*
X151099224Y-53343000D01*
X151222910Y-53140600D01*
X151192238Y-53039472D01*
X151084473Y-52806371D01*
X150933303Y-52598773D01*
X150744537Y-52424656D01*
X150525430Y-52290711D01*
X150284401Y-52202085D01*
X150082000Y-52324915D01*
X149828000Y-52324915D01*
X149625599Y-52202085D01*
X149384570Y-52290711D01*
X149165463Y-52424656D01*
X148976697Y-52598773D01*
X148959715Y-52622094D01*
X148790077Y-52452456D01*
X148575518Y-52309093D01*
X148337113Y-52210342D01*
X148264860Y-52195970D01*
X148222993Y-52183429D01*
X148172427Y-52170520D01*
X148050684Y-52144720D01*
X148012491Y-52137839D01*
X147901773Y-52121365D01*
X147886154Y-52119238D01*
X147790987Y-52107484D01*
X147724969Y-52097730D01*
X147690587Y-52089920D01*
X147672646Y-52083497D01*
X147650726Y-52071938D01*
X147608929Y-52041973D01*
X147530596Y-51970795D01*
X146810000Y-51250199D01*
X146810000Y-47326125D01*
X146816716Y-47194005D01*
X146828970Y-47124174D01*
X146841795Y-47085292D01*
X146857552Y-47054042D01*
X146887216Y-47009820D01*
X146941326Y-46941088D01*
X147015846Y-46850227D01*
X147028016Y-46834914D01*
X147109730Y-46728775D01*
X147135023Y-46693488D01*
X147217530Y-46569651D01*
X147246970Y-46520852D01*
X147274131Y-46470889D01*
X147321680Y-46399727D01*
X147429853Y-46138574D01*
X147485000Y-45861335D01*
X147485000Y-45578665D01*
X147429853Y-45301426D01*
X147321680Y-45040273D01*
X147164637Y-44805241D01*
X146964759Y-44605363D01*
X146729727Y-44448320D01*
X146468574Y-44340147D01*
X146191335Y-44285000D01*
X145908665Y-44285000D01*
X145631426Y-44340147D01*
X145370273Y-44448320D01*
X145135241Y-44605363D01*
X144935363Y-44805241D01*
X144780000Y-45037759D01*
X144624637Y-44805241D01*
X144424759Y-44605363D01*
X144189727Y-44448320D01*
X143928574Y-44340147D01*
X143651335Y-44285000D01*
X143368665Y-44285000D01*
X143091426Y-44340147D01*
X142830273Y-44448320D01*
X142595241Y-44605363D01*
X142395363Y-44805241D01*
X142240000Y-45037759D01*
X142084637Y-44805241D01*
X141884759Y-44605363D01*
X141649727Y-44448320D01*
X141388574Y-44340147D01*
X141111335Y-44285000D01*
X140828665Y-44285000D01*
X140551426Y-44340147D01*
X140290273Y-44448320D01*
X140055241Y-44605363D01*
X139855363Y-44805241D01*
X139700000Y-45037759D01*
X139544637Y-44805241D01*
X139344759Y-44605363D01*
X139109727Y-44448320D01*
X138848574Y-44340147D01*
X138571335Y-44285000D01*
X138288665Y-44285000D01*
X138011426Y-44340147D01*
X137750273Y-44448320D01*
X137515241Y-44605363D01*
X137315363Y-44805241D01*
X137160000Y-45037759D01*
X137004637Y-44805241D01*
X136804759Y-44605363D01*
X136569727Y-44448320D01*
X136308574Y-44340147D01*
X136031335Y-44285000D01*
X135748665Y-44285000D01*
X135471426Y-44340147D01*
X135210273Y-44448320D01*
X134975241Y-44605363D01*
X134775363Y-44805241D01*
X134620000Y-45037759D01*
X134464637Y-44805241D01*
X134264759Y-44605363D01*
X134029727Y-44448320D01*
X133768574Y-44340147D01*
X133491335Y-44285000D01*
X133208665Y-44285000D01*
X132931426Y-44340147D01*
X132670273Y-44448320D01*
X132435241Y-44605363D01*
X132235363Y-44805241D01*
X132080000Y-45037759D01*
X131924637Y-44805241D01*
X131724759Y-44605363D01*
X131489727Y-44448320D01*
X131228574Y-44340147D01*
X130951335Y-44285000D01*
X130668665Y-44285000D01*
X130391426Y-44340147D01*
X130130273Y-44448320D01*
X129895241Y-44605363D01*
X129695363Y-44805241D01*
X129540000Y-45037759D01*
X129384637Y-44805241D01*
X129184759Y-44605363D01*
X128949727Y-44448320D01*
X128688574Y-44340147D01*
X128411335Y-44285000D01*
X128128665Y-44285000D01*
X127851426Y-44340147D01*
X127590273Y-44448320D01*
X127355241Y-44605363D01*
X127156643Y-44803961D01*
X127155812Y-44795518D01*
X127119502Y-44675820D01*
X127060537Y-44565506D01*
X126981185Y-44468815D01*
X126884494Y-44389463D01*
X126774180Y-44330498D01*
X126654482Y-44294188D01*
X126530000Y-44281928D01*
X124930000Y-44281928D01*
X124805518Y-44294188D01*
X124685820Y-44330498D01*
X124575506Y-44389463D01*
X124478815Y-44468815D01*
X124399463Y-44565506D01*
X124340498Y-44675820D01*
X124304188Y-44795518D01*
X124291928Y-44920000D01*
X124291928Y-45525531D01*
X124276802Y-45583410D01*
X124272208Y-45602150D01*
X124244258Y-45724140D01*
X124221030Y-45825196D01*
X124201506Y-45897023D01*
X124183216Y-45948216D01*
X124161534Y-45993374D01*
X124127510Y-46047628D01*
X124069873Y-46121316D01*
X123971903Y-46226518D01*
X116879952Y-53318470D01*
X116846184Y-53346183D01*
X116818471Y-53379951D01*
X116818468Y-53379954D01*
X116735590Y-53480941D01*
X116653412Y-53634687D01*
X116612212Y-53770499D01*
X116576746Y-53773992D01*
X116410150Y-53824528D01*
X116256614Y-53906595D01*
X116122038Y-54017038D01*
X116011595Y-54151614D01*
X115929528Y-54305150D01*
X115878992Y-54471746D01*
X115861928Y-54645000D01*
X115861928Y-55541243D01*
X115848235Y-55570909D01*
X115811906Y-55630267D01*
X115750441Y-55709849D01*
X115645790Y-55822631D01*
X115454941Y-56013481D01*
X115421174Y-56041193D01*
X115393461Y-56074961D01*
X115393458Y-56074964D01*
X115310580Y-56175951D01*
X115228402Y-56329697D01*
X115177795Y-56496520D01*
X115160709Y-56670010D01*
X115164991Y-56713489D01*
X115164990Y-66276521D01*
X115160709Y-66319990D01*
X115164990Y-66363459D01*
X115164990Y-66363466D01*
X115177795Y-66493479D01*
X115228401Y-66660302D01*
X115310579Y-66814048D01*
X115421173Y-66948807D01*
X115454946Y-66976524D01*
X115645806Y-67167384D01*
X115750436Y-67280144D01*
X115811906Y-67359732D01*
X115848235Y-67419090D01*
X115871539Y-67469579D01*
X115881913Y-67500326D01*
X115857815Y-67745000D01*
X115881913Y-67989673D01*
X115871539Y-68020420D01*
X115848235Y-68070909D01*
X115811906Y-68130267D01*
X115750441Y-68209849D01*
X115645792Y-68322630D01*
X115228951Y-68739471D01*
X115195184Y-68767183D01*
X115167471Y-68800951D01*
X115167468Y-68800954D01*
X115084590Y-68901941D01*
X115010000Y-69041491D01*
X115010000Y-43517117D01*
X115613000Y-43517117D01*
X115613000Y-43858883D01*
X115679675Y-44194081D01*
X115810463Y-44509831D01*
X116000337Y-44793998D01*
X116242002Y-45035663D01*
X116526169Y-45225537D01*
X116841919Y-45356325D01*
X117177117Y-45423000D01*
X117518883Y-45423000D01*
X117854081Y-45356325D01*
X118169831Y-45225537D01*
X118453998Y-45035663D01*
X118695663Y-44793998D01*
X118885537Y-44509831D01*
X119016325Y-44194081D01*
X119083000Y-43858883D01*
X119083000Y-43517117D01*
X149395000Y-43517117D01*
X149395000Y-43858883D01*
X149461675Y-44194081D01*
X149592463Y-44509831D01*
X149782337Y-44793998D01*
X150024002Y-45035663D01*
X150308169Y-45225537D01*
X150623919Y-45356325D01*
X150959117Y-45423000D01*
X151300883Y-45423000D01*
X151636081Y-45356325D01*
X151951831Y-45225537D01*
X152235998Y-45035663D01*
X152477663Y-44793998D01*
X152667537Y-44509831D01*
X152798325Y-44194081D01*
X152865000Y-43858883D01*
X152865000Y-43517117D01*
X152798325Y-43181919D01*
X152667537Y-42866169D01*
X152477663Y-42582002D01*
X152235998Y-42340337D01*
X151951831Y-42150463D01*
X151636081Y-42019675D01*
X151300883Y-41953000D01*
X150959117Y-41953000D01*
X150623919Y-42019675D01*
X150308169Y-42150463D01*
X150024002Y-42340337D01*
X149782337Y-42582002D01*
X149592463Y-42866169D01*
X149461675Y-43181919D01*
X149395000Y-43517117D01*
X119083000Y-43517117D01*
X119016325Y-43181919D01*
X118885537Y-42866169D01*
X118695663Y-42582002D01*
X118453998Y-42340337D01*
X118169831Y-42150463D01*
X117854081Y-42019675D01*
X117518883Y-41953000D01*
X117177117Y-41953000D01*
X116841919Y-42019675D01*
X116526169Y-42150463D01*
X116242002Y-42340337D01*
X116000337Y-42582002D01*
X115810463Y-42866169D01*
X115679675Y-43181919D01*
X115613000Y-43517117D01*
X115010000Y-43517117D01*
X115010000Y-41350000D01*
X153468001Y-41350000D01*
X153468000Y-89206000D01*
G37*
%TD.AperFunction*%
D19*
X146966824Y-66340199D02*
X147013133Y-66385203D01*
X147049450Y-66417071D01*
X147102379Y-66470000D01*
X147029019Y-66543360D01*
X146934686Y-66637221D01*
X146854533Y-66716108D01*
X146784048Y-66784729D01*
X146718744Y-66847743D01*
X146710031Y-66856112D01*
X146619999Y-66929999D01*
X146596201Y-66958997D01*
X130298998Y-83256201D01*
X130270000Y-83279999D01*
X130246202Y-83308997D01*
X130246201Y-83308998D01*
X130175026Y-83395724D01*
X130104454Y-83527754D01*
X130085097Y-83591568D01*
X130076437Y-83620117D01*
X130071706Y-83628595D01*
X130057632Y-83655286D01*
X130011451Y-83748148D01*
X130009503Y-83752099D01*
X129970064Y-83832804D01*
X129936983Y-83894575D01*
X129903739Y-83947157D01*
X129860176Y-84004040D01*
X129786034Y-84084570D01*
X129695363Y-84175241D01*
X129540000Y-84407759D01*
X129465249Y-84295885D01*
X129463206Y-84292387D01*
X129420407Y-84228355D01*
X129418086Y-84225301D01*
X129384637Y-84175241D01*
X129365480Y-84156084D01*
X129331540Y-84111427D01*
X129303359Y-84076930D01*
X129208865Y-83969201D01*
X129202605Y-83962196D01*
X146898316Y-66266486D01*
X146966824Y-66340199D01*
%TA.AperFunction,Conductor*%
D20*
G36*
X146966824Y-66340199D02*
G01*
X147013133Y-66385203D01*
X147049450Y-66417071D01*
X147102379Y-66470000D01*
X147029019Y-66543360D01*
X146934686Y-66637221D01*
X146854533Y-66716108D01*
X146784048Y-66784729D01*
X146718744Y-66847743D01*
X146710031Y-66856112D01*
X146619999Y-66929999D01*
X146596201Y-66958997D01*
X130298998Y-83256201D01*
X130270000Y-83279999D01*
X130246202Y-83308997D01*
X130246201Y-83308998D01*
X130175026Y-83395724D01*
X130104454Y-83527754D01*
X130085097Y-83591568D01*
X130076437Y-83620117D01*
X130071706Y-83628595D01*
X130057632Y-83655286D01*
X130011451Y-83748148D01*
X130009503Y-83752099D01*
X129970064Y-83832804D01*
X129936983Y-83894575D01*
X129903739Y-83947157D01*
X129860176Y-84004040D01*
X129786034Y-84084570D01*
X129695363Y-84175241D01*
X129540000Y-84407759D01*
X129465249Y-84295885D01*
X129463206Y-84292387D01*
X129420407Y-84228355D01*
X129418086Y-84225301D01*
X129384637Y-84175241D01*
X129365480Y-84156084D01*
X129331540Y-84111427D01*
X129303359Y-84076930D01*
X129208865Y-83969201D01*
X129202605Y-83962196D01*
X146898316Y-66266486D01*
X146966824Y-66340199D01*
G37*
%TD.AperFunction*%
D19*
X129695363Y-46634759D02*
X129895241Y-46834637D01*
X129921211Y-46851989D01*
X129946048Y-46875003D01*
X129986405Y-46909380D01*
X130108395Y-47004801D01*
X130151163Y-47035484D01*
X130265127Y-47110293D01*
X130301318Y-47132358D01*
X130410558Y-47194054D01*
X130429814Y-47204496D01*
X130535796Y-47259620D01*
X130631335Y-47310100D01*
X130715276Y-47359304D01*
X130800178Y-47417263D01*
X130897530Y-47495480D01*
X131022624Y-47612425D01*
X146455800Y-63045602D01*
X146526973Y-63123929D01*
X146556938Y-63165726D01*
X146568497Y-63187646D01*
X146574920Y-63205587D01*
X146582730Y-63239969D01*
X146592484Y-63305987D01*
X146604238Y-63401154D01*
X146606365Y-63416773D01*
X146622839Y-63527491D01*
X146629720Y-63565684D01*
X146655520Y-63687427D01*
X146668429Y-63737993D01*
X146680970Y-63779860D01*
X146695342Y-63852113D01*
X146794093Y-64090518D01*
X146937456Y-64305077D01*
X147102379Y-64470000D01*
X147048629Y-64523750D01*
X147033594Y-64536327D01*
X147021340Y-64538403D01*
X146951067Y-64545462D01*
X146942882Y-64546338D01*
X146849855Y-64556902D01*
X146794061Y-64565767D01*
X146698760Y-64585291D01*
X146607735Y-64611135D01*
X146509242Y-64647224D01*
X146406136Y-64695906D01*
X146303531Y-64756165D01*
X146212431Y-64821096D01*
X146196833Y-64834433D01*
X146195724Y-64835026D01*
X146079999Y-64929999D01*
X146056201Y-64958997D01*
X127758998Y-83256201D01*
X127730000Y-83279999D01*
X127706202Y-83308997D01*
X127706201Y-83308998D01*
X127635026Y-83395724D01*
X127564454Y-83527754D01*
X127545097Y-83591568D01*
X127536437Y-83620117D01*
X127531706Y-83628595D01*
X127517632Y-83655286D01*
X127471451Y-83748148D01*
X127469503Y-83752099D01*
X127430064Y-83832804D01*
X127396983Y-83894575D01*
X127363739Y-83947157D01*
X127320176Y-84004040D01*
X127246034Y-84084570D01*
X127156643Y-84173961D01*
X127155812Y-84165518D01*
X127119502Y-84045820D01*
X127060537Y-83935506D01*
X126981185Y-83838815D01*
X126884494Y-83759463D01*
X126774180Y-83700498D01*
X126654482Y-83664188D01*
X126530000Y-83651928D01*
X124930000Y-83651928D01*
X124805518Y-83664188D01*
X124685820Y-83700498D01*
X124575506Y-83759463D01*
X124478815Y-83838815D01*
X124456989Y-83865410D01*
X117232462Y-76640883D01*
X117348000Y-76571165D01*
X117348000Y-75372000D01*
X117602000Y-75372000D01*
X117602000Y-76571165D01*
X117834267Y-76711320D01*
X118115830Y-76637442D01*
X118377570Y-76510053D01*
X118609429Y-76334049D01*
X118802496Y-76116193D01*
X118949352Y-75864858D01*
X119041476Y-75601890D01*
X118920155Y-75372000D01*
X117602000Y-75372000D01*
X117348000Y-75372000D01*
X117328000Y-75372000D01*
X117328000Y-75118000D01*
X117348000Y-75118000D01*
X117348000Y-75098000D01*
X117602000Y-75098000D01*
X117602000Y-75118000D01*
X118920155Y-75118000D01*
X119041476Y-74888110D01*
X118949352Y-74625142D01*
X118802496Y-74373807D01*
X118609429Y-74155951D01*
X118403278Y-73999462D01*
X118429014Y-73985706D01*
X118655134Y-73800134D01*
X118840706Y-73574014D01*
X118978599Y-73316034D01*
X119063513Y-73036111D01*
X119092185Y-72745000D01*
X119063513Y-72453889D01*
X118978599Y-72173966D01*
X118840706Y-71915986D01*
X118655134Y-71689866D01*
X118429014Y-71504294D01*
X118411626Y-71495000D01*
X118429014Y-71485706D01*
X118655134Y-71300134D01*
X118840706Y-71074014D01*
X118978599Y-70816034D01*
X119063513Y-70536111D01*
X119092185Y-70245000D01*
X119063513Y-69953889D01*
X118978599Y-69673966D01*
X118840706Y-69415986D01*
X118655134Y-69189866D01*
X118429014Y-69004294D01*
X118411626Y-68995000D01*
X118429014Y-68985706D01*
X118655134Y-68800134D01*
X118840706Y-68574014D01*
X118978599Y-68316034D01*
X119063513Y-68036111D01*
X119074971Y-67919773D01*
X120448990Y-69293792D01*
X120448991Y-72968660D01*
X120445314Y-73005992D01*
X120448991Y-73043325D01*
X120459171Y-73146677D01*
X120459988Y-73154977D01*
X120503444Y-73298238D01*
X120574016Y-73430268D01*
X120606624Y-73470000D01*
X120668990Y-73545993D01*
X120697988Y-73569791D01*
X123839203Y-76711008D01*
X123862997Y-76740001D01*
X123891990Y-76763795D01*
X123891994Y-76763799D01*
X123930353Y-76795279D01*
X123978722Y-76834974D01*
X124110751Y-76905546D01*
X124254012Y-76949003D01*
X124365665Y-76960000D01*
X124365674Y-76960000D01*
X124402997Y-76963676D01*
X124440320Y-76960000D01*
X131278529Y-76960000D01*
X131329855Y-76961853D01*
X131337099Y-76962751D01*
X131345585Y-76967663D01*
X131383974Y-76991921D01*
X131384118Y-76992012D01*
X131436872Y-77025328D01*
X131454004Y-77035772D01*
X131513788Y-77070936D01*
X131542477Y-77086828D01*
X131550650Y-77091083D01*
X131589744Y-77117205D01*
X131778102Y-77195226D01*
X131978061Y-77235000D01*
X132181939Y-77235000D01*
X132381898Y-77195226D01*
X132570256Y-77117205D01*
X132739774Y-77003937D01*
X132883937Y-76859774D01*
X132997205Y-76690256D01*
X133075226Y-76501898D01*
X133115000Y-76301939D01*
X133115000Y-76098061D01*
X133075226Y-75898102D01*
X132997205Y-75709744D01*
X132883937Y-75540226D01*
X132739774Y-75396063D01*
X132570256Y-75282795D01*
X132381898Y-75204774D01*
X132181939Y-75165000D01*
X131978061Y-75165000D01*
X131778102Y-75204774D01*
X131589744Y-75282795D01*
X131550662Y-75308909D01*
X131542483Y-75313167D01*
X131513788Y-75329063D01*
X131454004Y-75364227D01*
X131436872Y-75374671D01*
X131384118Y-75407987D01*
X131383974Y-75408078D01*
X131345585Y-75432336D01*
X131337099Y-75437248D01*
X131329843Y-75438147D01*
X131278543Y-75440000D01*
X124717801Y-75440000D01*
X124176756Y-74898955D01*
X124247937Y-74827774D01*
X124361205Y-74658256D01*
X124439226Y-74469898D01*
X124479000Y-74269939D01*
X124479000Y-74066061D01*
X124439226Y-73866102D01*
X124361205Y-73677744D01*
X124247937Y-73508226D01*
X124103774Y-73364063D01*
X123934256Y-73250795D01*
X123745898Y-73172774D01*
X123699782Y-73163601D01*
X123691001Y-73160833D01*
X123659463Y-73151780D01*
X123592324Y-73134372D01*
X123572848Y-73129648D01*
X123511988Y-73115902D01*
X123511799Y-73115860D01*
X123467511Y-73105871D01*
X123458038Y-73103344D01*
X123452271Y-73098848D01*
X123414676Y-73063874D01*
X122419000Y-72068199D01*
X122419000Y-63505000D01*
X124427372Y-63505000D01*
X124464694Y-63508676D01*
X124502016Y-63505000D01*
X124502027Y-63505000D01*
X124613680Y-63494003D01*
X124756941Y-63450546D01*
X124888970Y-63379974D01*
X125004695Y-63285001D01*
X125028498Y-63255997D01*
X131929519Y-56354977D01*
X131967125Y-56319992D01*
X131972885Y-56315502D01*
X131982358Y-56312975D01*
X132026646Y-56302986D01*
X132026835Y-56302944D01*
X132087695Y-56289198D01*
X132107171Y-56284474D01*
X132174310Y-56267066D01*
X132205841Y-56258016D01*
X132214628Y-56255246D01*
X132260745Y-56246073D01*
X132449103Y-56168052D01*
X132618621Y-56054784D01*
X132762784Y-55910621D01*
X132876052Y-55741103D01*
X132954073Y-55552745D01*
X132993847Y-55352786D01*
X132993847Y-55148908D01*
X132954073Y-54948949D01*
X132876052Y-54760591D01*
X132762784Y-54591073D01*
X132618621Y-54446910D01*
X132449103Y-54333642D01*
X132260745Y-54255621D01*
X132060786Y-54215847D01*
X131856908Y-54215847D01*
X131656949Y-54255621D01*
X131468591Y-54333642D01*
X131299073Y-54446910D01*
X131154910Y-54591073D01*
X131041642Y-54760591D01*
X130963621Y-54948949D01*
X130954450Y-54995058D01*
X130951680Y-55003843D01*
X130942627Y-55035383D01*
X130925219Y-55102522D01*
X130920495Y-55121998D01*
X130906749Y-55182858D01*
X130906707Y-55183047D01*
X130896718Y-55227335D01*
X130894191Y-55236808D01*
X130889695Y-55242576D01*
X130854722Y-55280170D01*
X124149893Y-61985000D01*
X121696333Y-61985000D01*
X121659000Y-61981323D01*
X121621667Y-61985000D01*
X120923000Y-61985000D01*
X120923000Y-61874061D01*
X120883226Y-61674102D01*
X120805205Y-61485744D01*
X120779083Y-61446650D01*
X120774828Y-61438477D01*
X120758936Y-61409788D01*
X120723772Y-61350004D01*
X120713328Y-61332872D01*
X120680012Y-61280118D01*
X120679921Y-61279974D01*
X120655663Y-61241585D01*
X120650751Y-61233099D01*
X120649853Y-61225855D01*
X120648000Y-61174529D01*
X120648000Y-58734801D01*
X123414683Y-55968120D01*
X123452278Y-55933145D01*
X123458038Y-55928655D01*
X123467511Y-55926128D01*
X123511799Y-55916139D01*
X123511988Y-55916097D01*
X123572848Y-55902351D01*
X123592324Y-55897627D01*
X123659463Y-55880219D01*
X123690994Y-55871169D01*
X123699781Y-55868399D01*
X123745898Y-55859226D01*
X123934256Y-55781205D01*
X124103774Y-55667937D01*
X124247937Y-55523774D01*
X124361205Y-55354256D01*
X124439226Y-55165898D01*
X124479000Y-54965939D01*
X124479000Y-54762061D01*
X124439226Y-54562102D01*
X124361205Y-54373744D01*
X124247937Y-54204226D01*
X124103774Y-54060063D01*
X123934256Y-53946795D01*
X123745898Y-53868774D01*
X123545939Y-53829000D01*
X123342061Y-53829000D01*
X123142102Y-53868774D01*
X122953744Y-53946795D01*
X122784226Y-54060063D01*
X122640063Y-54204226D01*
X122526795Y-54373744D01*
X122448774Y-54562102D01*
X122439603Y-54608211D01*
X122436833Y-54616996D01*
X122427780Y-54648536D01*
X122410372Y-54715675D01*
X122405648Y-54735151D01*
X122391902Y-54796011D01*
X122391860Y-54796200D01*
X122381871Y-54840488D01*
X122379344Y-54849961D01*
X122374848Y-54855729D01*
X122339885Y-54893313D01*
X119377003Y-57856196D01*
X119347999Y-57879999D01*
X119298644Y-57940139D01*
X119253026Y-57995724D01*
X119206110Y-58083497D01*
X119182454Y-58127754D01*
X119138997Y-58271015D01*
X119128000Y-58382668D01*
X119128000Y-58382678D01*
X119124324Y-58420000D01*
X119128000Y-58457323D01*
X119128001Y-61174522D01*
X119126147Y-61225843D01*
X119125248Y-61233099D01*
X119120336Y-61241585D01*
X119096078Y-61279974D01*
X119095987Y-61280118D01*
X119062671Y-61332872D01*
X119052227Y-61350004D01*
X119017063Y-61409788D01*
X119001167Y-61438483D01*
X118996909Y-61446662D01*
X118970795Y-61485744D01*
X118892774Y-61674102D01*
X118853000Y-61874061D01*
X118853000Y-61912917D01*
X118826641Y-61894925D01*
X118817266Y-61887424D01*
X118655134Y-61689866D01*
X118429014Y-61504294D01*
X118411626Y-61495000D01*
X118429014Y-61485706D01*
X118655134Y-61300134D01*
X118840706Y-61074014D01*
X118978599Y-60816034D01*
X119063513Y-60536111D01*
X119092185Y-60245000D01*
X119063513Y-59953889D01*
X118978599Y-59673966D01*
X118840706Y-59415986D01*
X118655134Y-59189866D01*
X118429014Y-59004294D01*
X118411626Y-58995000D01*
X118429014Y-58985706D01*
X118655134Y-58800134D01*
X118840706Y-58574014D01*
X118978599Y-58316034D01*
X119063513Y-58036111D01*
X119092185Y-57745000D01*
X119063513Y-57453889D01*
X118978599Y-57173966D01*
X118840706Y-56915986D01*
X118655134Y-56689866D01*
X118591663Y-56637777D01*
X118693386Y-56583405D01*
X118827962Y-56472962D01*
X118938405Y-56338386D01*
X119020472Y-56184850D01*
X119071008Y-56018254D01*
X119088072Y-55845000D01*
X119088072Y-54645000D01*
X119071008Y-54471746D01*
X119020472Y-54305150D01*
X118938405Y-54151614D01*
X118827962Y-54017038D01*
X118749188Y-53952390D01*
X124897904Y-47803675D01*
X124908411Y-47838312D01*
X124990589Y-47992058D01*
X125101183Y-48126817D01*
X125134956Y-48154534D01*
X129370666Y-52390245D01*
X129428060Y-52448140D01*
X129472336Y-52494139D01*
X129504163Y-52528949D01*
X129524602Y-52553124D01*
X129535966Y-52568097D01*
X129541978Y-52577171D01*
X129546799Y-52585671D01*
X129553652Y-52599870D01*
X129557387Y-52608869D01*
X129560774Y-52625898D01*
X129638795Y-52814256D01*
X129752063Y-52983774D01*
X129896226Y-53127937D01*
X130065744Y-53241205D01*
X130254102Y-53319226D01*
X130454061Y-53359000D01*
X130657939Y-53359000D01*
X130857898Y-53319226D01*
X131046256Y-53241205D01*
X131215774Y-53127937D01*
X131359937Y-52983774D01*
X131473205Y-52814256D01*
X131551226Y-52625898D01*
X131591000Y-52425939D01*
X131591000Y-52222061D01*
X131551226Y-52022102D01*
X131473205Y-51833744D01*
X131359937Y-51664226D01*
X131215774Y-51520063D01*
X131046256Y-51406795D01*
X130857898Y-51328774D01*
X130840869Y-51325387D01*
X130831870Y-51321652D01*
X130817671Y-51314799D01*
X130809171Y-51309978D01*
X130800097Y-51303966D01*
X130785124Y-51292602D01*
X130760949Y-51272163D01*
X130726139Y-51240336D01*
X130680140Y-51196060D01*
X130622245Y-51138666D01*
X126631640Y-47148062D01*
X126654482Y-47145812D01*
X126774180Y-47109502D01*
X126884494Y-47050537D01*
X126981185Y-46971185D01*
X127060537Y-46874494D01*
X127119502Y-46764180D01*
X127155812Y-46644482D01*
X127156643Y-46636039D01*
X127355241Y-46834637D01*
X127590273Y-46991680D01*
X127851426Y-47099853D01*
X128128665Y-47155000D01*
X128411335Y-47155000D01*
X128688574Y-47099853D01*
X128949727Y-46991680D01*
X129184759Y-46834637D01*
X129384637Y-46634759D01*
X129540000Y-46402241D01*
X129695363Y-46634759D01*
%TA.AperFunction,Conductor*%
D20*
G36*
X129695363Y-46634759D02*
G01*
X129895241Y-46834637D01*
X129921211Y-46851989D01*
X129946048Y-46875003D01*
X129986405Y-46909380D01*
X130108395Y-47004801D01*
X130151163Y-47035484D01*
X130265127Y-47110293D01*
X130301318Y-47132358D01*
X130410558Y-47194054D01*
X130429814Y-47204496D01*
X130535796Y-47259620D01*
X130631335Y-47310100D01*
X130715276Y-47359304D01*
X130800178Y-47417263D01*
X130897530Y-47495480D01*
X131022624Y-47612425D01*
X146455800Y-63045602D01*
X146526973Y-63123929D01*
X146556938Y-63165726D01*
X146568497Y-63187646D01*
X146574920Y-63205587D01*
X146582730Y-63239969D01*
X146592484Y-63305987D01*
X146604238Y-63401154D01*
X146606365Y-63416773D01*
X146622839Y-63527491D01*
X146629720Y-63565684D01*
X146655520Y-63687427D01*
X146668429Y-63737993D01*
X146680970Y-63779860D01*
X146695342Y-63852113D01*
X146794093Y-64090518D01*
X146937456Y-64305077D01*
X147102379Y-64470000D01*
X147048629Y-64523750D01*
X147033594Y-64536327D01*
X147021340Y-64538403D01*
X146951067Y-64545462D01*
X146942882Y-64546338D01*
X146849855Y-64556902D01*
X146794061Y-64565767D01*
X146698760Y-64585291D01*
X146607735Y-64611135D01*
X146509242Y-64647224D01*
X146406136Y-64695906D01*
X146303531Y-64756165D01*
X146212431Y-64821096D01*
X146196833Y-64834433D01*
X146195724Y-64835026D01*
X146079999Y-64929999D01*
X146056201Y-64958997D01*
X127758998Y-83256201D01*
X127730000Y-83279999D01*
X127706202Y-83308997D01*
X127706201Y-83308998D01*
X127635026Y-83395724D01*
X127564454Y-83527754D01*
X127545097Y-83591568D01*
X127536437Y-83620117D01*
X127531706Y-83628595D01*
X127517632Y-83655286D01*
X127471451Y-83748148D01*
X127469503Y-83752099D01*
X127430064Y-83832804D01*
X127396983Y-83894575D01*
X127363739Y-83947157D01*
X127320176Y-84004040D01*
X127246034Y-84084570D01*
X127156643Y-84173961D01*
X127155812Y-84165518D01*
X127119502Y-84045820D01*
X127060537Y-83935506D01*
X126981185Y-83838815D01*
X126884494Y-83759463D01*
X126774180Y-83700498D01*
X126654482Y-83664188D01*
X126530000Y-83651928D01*
X124930000Y-83651928D01*
X124805518Y-83664188D01*
X124685820Y-83700498D01*
X124575506Y-83759463D01*
X124478815Y-83838815D01*
X124456989Y-83865410D01*
X117232462Y-76640883D01*
X117348000Y-76571165D01*
X117348000Y-75372000D01*
X117602000Y-75372000D01*
X117602000Y-76571165D01*
X117834267Y-76711320D01*
X118115830Y-76637442D01*
X118377570Y-76510053D01*
X118609429Y-76334049D01*
X118802496Y-76116193D01*
X118949352Y-75864858D01*
X119041476Y-75601890D01*
X118920155Y-75372000D01*
X117602000Y-75372000D01*
X117348000Y-75372000D01*
X117328000Y-75372000D01*
X117328000Y-75118000D01*
X117348000Y-75118000D01*
X117348000Y-75098000D01*
X117602000Y-75098000D01*
X117602000Y-75118000D01*
X118920155Y-75118000D01*
X119041476Y-74888110D01*
X118949352Y-74625142D01*
X118802496Y-74373807D01*
X118609429Y-74155951D01*
X118403278Y-73999462D01*
X118429014Y-73985706D01*
X118655134Y-73800134D01*
X118840706Y-73574014D01*
X118978599Y-73316034D01*
X119063513Y-73036111D01*
X119092185Y-72745000D01*
X119063513Y-72453889D01*
X118978599Y-72173966D01*
X118840706Y-71915986D01*
X118655134Y-71689866D01*
X118429014Y-71504294D01*
X118411626Y-71495000D01*
X118429014Y-71485706D01*
X118655134Y-71300134D01*
X118840706Y-71074014D01*
X118978599Y-70816034D01*
X119063513Y-70536111D01*
X119092185Y-70245000D01*
X119063513Y-69953889D01*
X118978599Y-69673966D01*
X118840706Y-69415986D01*
X118655134Y-69189866D01*
X118429014Y-69004294D01*
X118411626Y-68995000D01*
X118429014Y-68985706D01*
X118655134Y-68800134D01*
X118840706Y-68574014D01*
X118978599Y-68316034D01*
X119063513Y-68036111D01*
X119074971Y-67919773D01*
X120448990Y-69293792D01*
X120448991Y-72968660D01*
X120445314Y-73005992D01*
X120448991Y-73043325D01*
X120459171Y-73146677D01*
X120459988Y-73154977D01*
X120503444Y-73298238D01*
X120574016Y-73430268D01*
X120606624Y-73470000D01*
X120668990Y-73545993D01*
X120697988Y-73569791D01*
X123839203Y-76711008D01*
X123862997Y-76740001D01*
X123891990Y-76763795D01*
X123891994Y-76763799D01*
X123930353Y-76795279D01*
X123978722Y-76834974D01*
X124110751Y-76905546D01*
X124254012Y-76949003D01*
X124365665Y-76960000D01*
X124365674Y-76960000D01*
X124402997Y-76963676D01*
X124440320Y-76960000D01*
X131278529Y-76960000D01*
X131329855Y-76961853D01*
X131337099Y-76962751D01*
X131345585Y-76967663D01*
X131383974Y-76991921D01*
X131384118Y-76992012D01*
X131436872Y-77025328D01*
X131454004Y-77035772D01*
X131513788Y-77070936D01*
X131542477Y-77086828D01*
X131550650Y-77091083D01*
X131589744Y-77117205D01*
X131778102Y-77195226D01*
X131978061Y-77235000D01*
X132181939Y-77235000D01*
X132381898Y-77195226D01*
X132570256Y-77117205D01*
X132739774Y-77003937D01*
X132883937Y-76859774D01*
X132997205Y-76690256D01*
X133075226Y-76501898D01*
X133115000Y-76301939D01*
X133115000Y-76098061D01*
X133075226Y-75898102D01*
X132997205Y-75709744D01*
X132883937Y-75540226D01*
X132739774Y-75396063D01*
X132570256Y-75282795D01*
X132381898Y-75204774D01*
X132181939Y-75165000D01*
X131978061Y-75165000D01*
X131778102Y-75204774D01*
X131589744Y-75282795D01*
X131550662Y-75308909D01*
X131542483Y-75313167D01*
X131513788Y-75329063D01*
X131454004Y-75364227D01*
X131436872Y-75374671D01*
X131384118Y-75407987D01*
X131383974Y-75408078D01*
X131345585Y-75432336D01*
X131337099Y-75437248D01*
X131329843Y-75438147D01*
X131278543Y-75440000D01*
X124717801Y-75440000D01*
X124176756Y-74898955D01*
X124247937Y-74827774D01*
X124361205Y-74658256D01*
X124439226Y-74469898D01*
X124479000Y-74269939D01*
X124479000Y-74066061D01*
X124439226Y-73866102D01*
X124361205Y-73677744D01*
X124247937Y-73508226D01*
X124103774Y-73364063D01*
X123934256Y-73250795D01*
X123745898Y-73172774D01*
X123699782Y-73163601D01*
X123691001Y-73160833D01*
X123659463Y-73151780D01*
X123592324Y-73134372D01*
X123572848Y-73129648D01*
X123511988Y-73115902D01*
X123511799Y-73115860D01*
X123467511Y-73105871D01*
X123458038Y-73103344D01*
X123452271Y-73098848D01*
X123414676Y-73063874D01*
X122419000Y-72068199D01*
X122419000Y-63505000D01*
X124427372Y-63505000D01*
X124464694Y-63508676D01*
X124502016Y-63505000D01*
X124502027Y-63505000D01*
X124613680Y-63494003D01*
X124756941Y-63450546D01*
X124888970Y-63379974D01*
X125004695Y-63285001D01*
X125028498Y-63255997D01*
X131929519Y-56354977D01*
X131967125Y-56319992D01*
X131972885Y-56315502D01*
X131982358Y-56312975D01*
X132026646Y-56302986D01*
X132026835Y-56302944D01*
X132087695Y-56289198D01*
X132107171Y-56284474D01*
X132174310Y-56267066D01*
X132205841Y-56258016D01*
X132214628Y-56255246D01*
X132260745Y-56246073D01*
X132449103Y-56168052D01*
X132618621Y-56054784D01*
X132762784Y-55910621D01*
X132876052Y-55741103D01*
X132954073Y-55552745D01*
X132993847Y-55352786D01*
X132993847Y-55148908D01*
X132954073Y-54948949D01*
X132876052Y-54760591D01*
X132762784Y-54591073D01*
X132618621Y-54446910D01*
X132449103Y-54333642D01*
X132260745Y-54255621D01*
X132060786Y-54215847D01*
X131856908Y-54215847D01*
X131656949Y-54255621D01*
X131468591Y-54333642D01*
X131299073Y-54446910D01*
X131154910Y-54591073D01*
X131041642Y-54760591D01*
X130963621Y-54948949D01*
X130954450Y-54995058D01*
X130951680Y-55003843D01*
X130942627Y-55035383D01*
X130925219Y-55102522D01*
X130920495Y-55121998D01*
X130906749Y-55182858D01*
X130906707Y-55183047D01*
X130896718Y-55227335D01*
X130894191Y-55236808D01*
X130889695Y-55242576D01*
X130854722Y-55280170D01*
X124149893Y-61985000D01*
X121696333Y-61985000D01*
X121659000Y-61981323D01*
X121621667Y-61985000D01*
X120923000Y-61985000D01*
X120923000Y-61874061D01*
X120883226Y-61674102D01*
X120805205Y-61485744D01*
X120779083Y-61446650D01*
X120774828Y-61438477D01*
X120758936Y-61409788D01*
X120723772Y-61350004D01*
X120713328Y-61332872D01*
X120680012Y-61280118D01*
X120679921Y-61279974D01*
X120655663Y-61241585D01*
X120650751Y-61233099D01*
X120649853Y-61225855D01*
X120648000Y-61174529D01*
X120648000Y-58734801D01*
X123414683Y-55968120D01*
X123452278Y-55933145D01*
X123458038Y-55928655D01*
X123467511Y-55926128D01*
X123511799Y-55916139D01*
X123511988Y-55916097D01*
X123572848Y-55902351D01*
X123592324Y-55897627D01*
X123659463Y-55880219D01*
X123690994Y-55871169D01*
X123699781Y-55868399D01*
X123745898Y-55859226D01*
X123934256Y-55781205D01*
X124103774Y-55667937D01*
X124247937Y-55523774D01*
X124361205Y-55354256D01*
X124439226Y-55165898D01*
X124479000Y-54965939D01*
X124479000Y-54762061D01*
X124439226Y-54562102D01*
X124361205Y-54373744D01*
X124247937Y-54204226D01*
X124103774Y-54060063D01*
X123934256Y-53946795D01*
X123745898Y-53868774D01*
X123545939Y-53829000D01*
X123342061Y-53829000D01*
X123142102Y-53868774D01*
X122953744Y-53946795D01*
X122784226Y-54060063D01*
X122640063Y-54204226D01*
X122526795Y-54373744D01*
X122448774Y-54562102D01*
X122439603Y-54608211D01*
X122436833Y-54616996D01*
X122427780Y-54648536D01*
X122410372Y-54715675D01*
X122405648Y-54735151D01*
X122391902Y-54796011D01*
X122391860Y-54796200D01*
X122381871Y-54840488D01*
X122379344Y-54849961D01*
X122374848Y-54855729D01*
X122339885Y-54893313D01*
X119377003Y-57856196D01*
X119347999Y-57879999D01*
X119298644Y-57940139D01*
X119253026Y-57995724D01*
X119206110Y-58083497D01*
X119182454Y-58127754D01*
X119138997Y-58271015D01*
X119128000Y-58382668D01*
X119128000Y-58382678D01*
X119124324Y-58420000D01*
X119128000Y-58457323D01*
X119128001Y-61174522D01*
X119126147Y-61225843D01*
X119125248Y-61233099D01*
X119120336Y-61241585D01*
X119096078Y-61279974D01*
X119095987Y-61280118D01*
X119062671Y-61332872D01*
X119052227Y-61350004D01*
X119017063Y-61409788D01*
X119001167Y-61438483D01*
X118996909Y-61446662D01*
X118970795Y-61485744D01*
X118892774Y-61674102D01*
X118853000Y-61874061D01*
X118853000Y-61912917D01*
X118826641Y-61894925D01*
X118817266Y-61887424D01*
X118655134Y-61689866D01*
X118429014Y-61504294D01*
X118411626Y-61495000D01*
X118429014Y-61485706D01*
X118655134Y-61300134D01*
X118840706Y-61074014D01*
X118978599Y-60816034D01*
X119063513Y-60536111D01*
X119092185Y-60245000D01*
X119063513Y-59953889D01*
X118978599Y-59673966D01*
X118840706Y-59415986D01*
X118655134Y-59189866D01*
X118429014Y-59004294D01*
X118411626Y-58995000D01*
X118429014Y-58985706D01*
X118655134Y-58800134D01*
X118840706Y-58574014D01*
X118978599Y-58316034D01*
X119063513Y-58036111D01*
X119092185Y-57745000D01*
X119063513Y-57453889D01*
X118978599Y-57173966D01*
X118840706Y-56915986D01*
X118655134Y-56689866D01*
X118591663Y-56637777D01*
X118693386Y-56583405D01*
X118827962Y-56472962D01*
X118938405Y-56338386D01*
X119020472Y-56184850D01*
X119071008Y-56018254D01*
X119088072Y-55845000D01*
X119088072Y-54645000D01*
X119071008Y-54471746D01*
X119020472Y-54305150D01*
X118938405Y-54151614D01*
X118827962Y-54017038D01*
X118749188Y-53952390D01*
X124897904Y-47803675D01*
X124908411Y-47838312D01*
X124990589Y-47992058D01*
X125101183Y-48126817D01*
X125134956Y-48154534D01*
X129370666Y-52390245D01*
X129428060Y-52448140D01*
X129472336Y-52494139D01*
X129504163Y-52528949D01*
X129524602Y-52553124D01*
X129535966Y-52568097D01*
X129541978Y-52577171D01*
X129546799Y-52585671D01*
X129553652Y-52599870D01*
X129557387Y-52608869D01*
X129560774Y-52625898D01*
X129638795Y-52814256D01*
X129752063Y-52983774D01*
X129896226Y-53127937D01*
X130065744Y-53241205D01*
X130254102Y-53319226D01*
X130454061Y-53359000D01*
X130657939Y-53359000D01*
X130857898Y-53319226D01*
X131046256Y-53241205D01*
X131215774Y-53127937D01*
X131359937Y-52983774D01*
X131473205Y-52814256D01*
X131551226Y-52625898D01*
X131591000Y-52425939D01*
X131591000Y-52222061D01*
X131551226Y-52022102D01*
X131473205Y-51833744D01*
X131359937Y-51664226D01*
X131215774Y-51520063D01*
X131046256Y-51406795D01*
X130857898Y-51328774D01*
X130840869Y-51325387D01*
X130831870Y-51321652D01*
X130817671Y-51314799D01*
X130809171Y-51309978D01*
X130800097Y-51303966D01*
X130785124Y-51292602D01*
X130760949Y-51272163D01*
X130726139Y-51240336D01*
X130680140Y-51196060D01*
X130622245Y-51138666D01*
X126631640Y-47148062D01*
X126654482Y-47145812D01*
X126774180Y-47109502D01*
X126884494Y-47050537D01*
X126981185Y-46971185D01*
X127060537Y-46874494D01*
X127119502Y-46764180D01*
X127155812Y-46644482D01*
X127156643Y-46636039D01*
X127355241Y-46834637D01*
X127590273Y-46991680D01*
X127851426Y-47099853D01*
X128128665Y-47155000D01*
X128411335Y-47155000D01*
X128688574Y-47099853D01*
X128949727Y-46991680D01*
X129184759Y-46834637D01*
X129384637Y-46634759D01*
X129540000Y-46402241D01*
X129695363Y-46634759D01*
G37*
%TD.AperFunction*%
%TD*%
D21*
%TO.N,VCC*%
X126109103Y-85087523D02*
X125165770Y-85640114D01*
X125059836Y-85547909D01*
X125058301Y-85546765D01*
X124949744Y-85477894D01*
X124948128Y-85477026D01*
X124842276Y-85429658D01*
X124840979Y-85429160D01*
X124736274Y-85395472D01*
X124735634Y-85395285D01*
X124630604Y-85367477D01*
X124524033Y-85337823D01*
X124414561Y-85298643D01*
X124300312Y-85242155D01*
X124179401Y-85160475D01*
X124059601Y-85054096D01*
X124395569Y-84718128D01*
X124492921Y-84796365D01*
X124496120Y-84798242D01*
X124595371Y-84838333D01*
X124597760Y-84839034D01*
X124599870Y-84839254D01*
X124694129Y-84841171D01*
X124696611Y-84840978D01*
X124698252Y-84840572D01*
X124789504Y-84811421D01*
X124792081Y-84810268D01*
X124882313Y-84757156D01*
X124883601Y-84756287D01*
X124974802Y-84686322D01*
X124975278Y-84685939D01*
X125069343Y-84606303D01*
X125168160Y-84524186D01*
X125273296Y-84446958D01*
X125379367Y-84385771D01*
X126109103Y-85087523D01*
%TA.AperFunction,Conductor*%
D20*
G36*
X126109103Y-85087523D02*
G01*
X125165770Y-85640114D01*
X125059836Y-85547909D01*
X125058301Y-85546765D01*
X124949744Y-85477894D01*
X124948128Y-85477026D01*
X124842276Y-85429658D01*
X124840979Y-85429160D01*
X124736274Y-85395472D01*
X124735634Y-85395285D01*
X124630604Y-85367477D01*
X124524033Y-85337823D01*
X124414561Y-85298643D01*
X124300312Y-85242155D01*
X124179401Y-85160475D01*
X124059601Y-85054096D01*
X124395569Y-84718128D01*
X124492921Y-84796365D01*
X124496120Y-84798242D01*
X124595371Y-84838333D01*
X124597760Y-84839034D01*
X124599870Y-84839254D01*
X124694129Y-84841171D01*
X124696611Y-84840978D01*
X124698252Y-84840572D01*
X124789504Y-84811421D01*
X124792081Y-84810268D01*
X124882313Y-84757156D01*
X124883601Y-84756287D01*
X124974802Y-84686322D01*
X124975278Y-84685939D01*
X125069343Y-84606303D01*
X125168160Y-84524186D01*
X125273296Y-84446958D01*
X125379367Y-84385771D01*
X126109103Y-85087523D01*
G37*
%TD.AperFunction*%
%TD*%
D21*
%TO.N,VCC*%
X117741430Y-68538539D02*
X117588153Y-68586582D01*
X117443684Y-68623256D01*
X117312522Y-68651707D01*
X117312522Y-68651706D01*
X117190851Y-68677698D01*
X117190391Y-68677806D01*
X117074707Y-68707058D01*
X117073760Y-68707337D01*
X116960279Y-68745628D01*
X116959017Y-68746130D01*
X116843955Y-68799238D01*
X116842647Y-68799937D01*
X116722220Y-68873642D01*
X116721087Y-68874423D01*
X116591511Y-68974502D01*
X116590636Y-68975243D01*
X116457096Y-69099155D01*
X116120845Y-68762904D01*
X116244756Y-68629363D01*
X116245497Y-68628488D01*
X116345576Y-68498912D01*
X116346357Y-68497779D01*
X116420062Y-68377352D01*
X116420761Y-68376044D01*
X116473869Y-68260982D01*
X116474371Y-68259720D01*
X116512662Y-68146239D01*
X116512941Y-68145292D01*
X116542193Y-68029608D01*
X116542301Y-68029148D01*
X116568293Y-67907477D01*
X116568292Y-67907477D01*
X116596743Y-67776315D01*
X116633416Y-67631851D01*
X116681462Y-67478570D01*
X117762564Y-67457436D01*
X117741430Y-68538539D01*
%TA.AperFunction,Conductor*%
D20*
G36*
X117741430Y-68538539D02*
G01*
X117588153Y-68586582D01*
X117443684Y-68623256D01*
X117312522Y-68651707D01*
X117312522Y-68651706D01*
X117190851Y-68677698D01*
X117190391Y-68677806D01*
X117074707Y-68707058D01*
X117073760Y-68707337D01*
X116960279Y-68745628D01*
X116959017Y-68746130D01*
X116843955Y-68799238D01*
X116842647Y-68799937D01*
X116722220Y-68873642D01*
X116721087Y-68874423D01*
X116591511Y-68974502D01*
X116590636Y-68975243D01*
X116457096Y-69099155D01*
X116120845Y-68762904D01*
X116244756Y-68629363D01*
X116245497Y-68628488D01*
X116345576Y-68498912D01*
X116346357Y-68497779D01*
X116420062Y-68377352D01*
X116420761Y-68376044D01*
X116473869Y-68260982D01*
X116474371Y-68259720D01*
X116512662Y-68146239D01*
X116512941Y-68145292D01*
X116542193Y-68029608D01*
X116542301Y-68029148D01*
X116568293Y-67907477D01*
X116568292Y-67907477D01*
X116596743Y-67776315D01*
X116633416Y-67631851D01*
X116681462Y-67478570D01*
X117762564Y-67457436D01*
X117741430Y-68538539D01*
G37*
%TD.AperFunction*%
%TD*%
D21*
%TO.N,VCC*%
X117741430Y-56038539D02*
X117588153Y-56086582D01*
X117443684Y-56123256D01*
X117312522Y-56151707D01*
X117312522Y-56151706D01*
X117190851Y-56177698D01*
X117190391Y-56177806D01*
X117074707Y-56207058D01*
X117073760Y-56207337D01*
X116960279Y-56245628D01*
X116959017Y-56246130D01*
X116843955Y-56299238D01*
X116842647Y-56299937D01*
X116722220Y-56373642D01*
X116721087Y-56374423D01*
X116591511Y-56474502D01*
X116590636Y-56475243D01*
X116457096Y-56599155D01*
X116120845Y-56262904D01*
X116244756Y-56129363D01*
X116245497Y-56128488D01*
X116345576Y-55998912D01*
X116346357Y-55997779D01*
X116420062Y-55877352D01*
X116420761Y-55876044D01*
X116473869Y-55760982D01*
X116474371Y-55759720D01*
X116512662Y-55646239D01*
X116512941Y-55645292D01*
X116542193Y-55529608D01*
X116542301Y-55529148D01*
X116568293Y-55407477D01*
X116568292Y-55407477D01*
X116596743Y-55276315D01*
X116633416Y-55131851D01*
X116681462Y-54978570D01*
X117762564Y-54957436D01*
X117741430Y-56038539D01*
%TA.AperFunction,Conductor*%
D20*
G36*
X117741430Y-56038539D02*
G01*
X117588153Y-56086582D01*
X117443684Y-56123256D01*
X117312522Y-56151707D01*
X117312522Y-56151706D01*
X117190851Y-56177698D01*
X117190391Y-56177806D01*
X117074707Y-56207058D01*
X117073760Y-56207337D01*
X116960279Y-56245628D01*
X116959017Y-56246130D01*
X116843955Y-56299238D01*
X116842647Y-56299937D01*
X116722220Y-56373642D01*
X116721087Y-56374423D01*
X116591511Y-56474502D01*
X116590636Y-56475243D01*
X116457096Y-56599155D01*
X116120845Y-56262904D01*
X116244756Y-56129363D01*
X116245497Y-56128488D01*
X116345576Y-55998912D01*
X116346357Y-55997779D01*
X116420062Y-55877352D01*
X116420761Y-55876044D01*
X116473869Y-55760982D01*
X116474371Y-55759720D01*
X116512662Y-55646239D01*
X116512941Y-55645292D01*
X116542193Y-55529608D01*
X116542301Y-55529148D01*
X116568293Y-55407477D01*
X116568292Y-55407477D01*
X116596743Y-55276315D01*
X116633416Y-55131851D01*
X116681462Y-54978570D01*
X117762564Y-54957436D01*
X117741430Y-56038539D01*
G37*
%TD.AperFunction*%
%TD*%
D21*
%TO.N,VCC*%
X116590636Y-66514756D02*
X116591511Y-66515497D01*
X116721087Y-66615576D01*
X116722220Y-66616357D01*
X116842647Y-66690062D01*
X116843955Y-66690761D01*
X116959017Y-66743869D01*
X116960279Y-66744371D01*
X117073760Y-66782662D01*
X117074707Y-66782941D01*
X117190391Y-66812193D01*
X117190851Y-66812301D01*
X117312522Y-66838293D01*
X117312522Y-66838292D01*
X117443684Y-66866743D01*
X117588148Y-66903416D01*
X117741430Y-66951462D01*
X117762564Y-68032564D01*
X116681462Y-68011430D01*
X116633416Y-67858148D01*
X116596743Y-67713684D01*
X116568292Y-67582522D01*
X116568293Y-67582522D01*
X116542301Y-67460851D01*
X116542193Y-67460391D01*
X116512941Y-67344707D01*
X116512662Y-67343760D01*
X116474371Y-67230279D01*
X116473869Y-67229017D01*
X116420761Y-67113955D01*
X116420062Y-67112647D01*
X116346357Y-66992220D01*
X116345576Y-66991087D01*
X116245497Y-66861511D01*
X116244756Y-66860636D01*
X116120845Y-66727096D01*
X116457096Y-66390845D01*
X116590636Y-66514756D01*
%TA.AperFunction,Conductor*%
D20*
G36*
X116590636Y-66514756D02*
G01*
X116591511Y-66515497D01*
X116721087Y-66615576D01*
X116722220Y-66616357D01*
X116842647Y-66690062D01*
X116843955Y-66690761D01*
X116959017Y-66743869D01*
X116960279Y-66744371D01*
X117073760Y-66782662D01*
X117074707Y-66782941D01*
X117190391Y-66812193D01*
X117190851Y-66812301D01*
X117312522Y-66838293D01*
X117312522Y-66838292D01*
X117443684Y-66866743D01*
X117588148Y-66903416D01*
X117741430Y-66951462D01*
X117762564Y-68032564D01*
X116681462Y-68011430D01*
X116633416Y-67858148D01*
X116596743Y-67713684D01*
X116568292Y-67582522D01*
X116568293Y-67582522D01*
X116542301Y-67460851D01*
X116542193Y-67460391D01*
X116512941Y-67344707D01*
X116512662Y-67343760D01*
X116474371Y-67230279D01*
X116473869Y-67229017D01*
X116420761Y-67113955D01*
X116420062Y-67112647D01*
X116346357Y-66992220D01*
X116345576Y-66991087D01*
X116245497Y-66861511D01*
X116244756Y-66860636D01*
X116120845Y-66727096D01*
X116457096Y-66390845D01*
X116590636Y-66514756D01*
G37*
%TD.AperFunction*%
%TD*%
D21*
%TO.N,VCC*%
X125980020Y-46466329D02*
X125837624Y-46511314D01*
X125703010Y-46546494D01*
X125580776Y-46574500D01*
X125580767Y-46574502D01*
X125467477Y-46600542D01*
X125466991Y-46600664D01*
X125359263Y-46629946D01*
X125358321Y-46630241D01*
X125252587Y-46668018D01*
X125251363Y-46668529D01*
X125144052Y-46720052D01*
X125142802Y-46720742D01*
X125030348Y-46791265D01*
X125029271Y-46792021D01*
X124908103Y-46886795D01*
X124907272Y-46887504D01*
X124782792Y-47003430D01*
X124446570Y-46667208D01*
X124562495Y-46542727D01*
X124563204Y-46541896D01*
X124657978Y-46420728D01*
X124658734Y-46419651D01*
X124729257Y-46307197D01*
X124729947Y-46305947D01*
X124781470Y-46198636D01*
X124781981Y-46197412D01*
X124819758Y-46091678D01*
X124820053Y-46090736D01*
X124849335Y-45983008D01*
X124849457Y-45982522D01*
X124875497Y-45869232D01*
X124875499Y-45869223D01*
X124903505Y-45746989D01*
X124938685Y-45612375D01*
X124983670Y-45469980D01*
X125999886Y-45450114D01*
X125980020Y-46466329D01*
%TA.AperFunction,Conductor*%
D20*
G36*
X125980020Y-46466329D02*
G01*
X125837624Y-46511314D01*
X125703010Y-46546494D01*
X125580776Y-46574500D01*
X125580767Y-46574502D01*
X125467477Y-46600542D01*
X125466991Y-46600664D01*
X125359263Y-46629946D01*
X125358321Y-46630241D01*
X125252587Y-46668018D01*
X125251363Y-46668529D01*
X125144052Y-46720052D01*
X125142802Y-46720742D01*
X125030348Y-46791265D01*
X125029271Y-46792021D01*
X124908103Y-46886795D01*
X124907272Y-46887504D01*
X124782792Y-47003430D01*
X124446570Y-46667208D01*
X124562495Y-46542727D01*
X124563204Y-46541896D01*
X124657978Y-46420728D01*
X124658734Y-46419651D01*
X124729257Y-46307197D01*
X124729947Y-46305947D01*
X124781470Y-46198636D01*
X124781981Y-46197412D01*
X124819758Y-46091678D01*
X124820053Y-46090736D01*
X124849335Y-45983008D01*
X124849457Y-45982522D01*
X124875497Y-45869232D01*
X124875499Y-45869223D01*
X124903505Y-45746989D01*
X124938685Y-45612375D01*
X124983670Y-45469980D01*
X125999886Y-45450114D01*
X125980020Y-46466329D01*
G37*
%TD.AperFunction*%
%TD*%
D21*
%TO.N,VCC*%
X117938742Y-53848591D02*
X117857032Y-53948867D01*
X117855255Y-53951769D01*
X117809991Y-54054520D01*
X117809215Y-54056886D01*
X117808957Y-54058586D01*
X117800779Y-54156786D01*
X117800816Y-54159275D01*
X117801068Y-54160728D01*
X117823374Y-54256240D01*
X117824326Y-54258920D01*
X117870514Y-54353612D01*
X117871344Y-54355061D01*
X117934811Y-54450798D01*
X117935244Y-54451411D01*
X118009387Y-54550059D01*
X118009410Y-54550090D01*
X118087448Y-54653277D01*
X118162652Y-54762641D01*
X118224310Y-54872488D01*
X117477477Y-55649103D01*
X116889616Y-54645560D01*
X116991161Y-54532894D01*
X116992058Y-54531778D01*
X117072445Y-54419359D01*
X117073189Y-54418187D01*
X117133552Y-54310619D01*
X117134040Y-54309656D01*
X117181734Y-54204641D01*
X117181944Y-54204152D01*
X117224281Y-54099506D01*
X117268571Y-53993031D01*
X117321997Y-53882716D01*
X117391966Y-53765957D01*
X117485898Y-53640254D01*
X117602690Y-53512539D01*
X117938742Y-53848591D01*
%TA.AperFunction,Conductor*%
D20*
G36*
X117938742Y-53848591D02*
G01*
X117857032Y-53948867D01*
X117855255Y-53951769D01*
X117809991Y-54054520D01*
X117809215Y-54056886D01*
X117808957Y-54058586D01*
X117800779Y-54156786D01*
X117800816Y-54159275D01*
X117801068Y-54160728D01*
X117823374Y-54256240D01*
X117824326Y-54258920D01*
X117870514Y-54353612D01*
X117871344Y-54355061D01*
X117934811Y-54450798D01*
X117935244Y-54451411D01*
X118009387Y-54550059D01*
X118009410Y-54550090D01*
X118087448Y-54653277D01*
X118162652Y-54762641D01*
X118224310Y-54872488D01*
X117477477Y-55649103D01*
X116889616Y-54645560D01*
X116991161Y-54532894D01*
X116992058Y-54531778D01*
X117072445Y-54419359D01*
X117073189Y-54418187D01*
X117133552Y-54310619D01*
X117134040Y-54309656D01*
X117181734Y-54204641D01*
X117181944Y-54204152D01*
X117224281Y-54099506D01*
X117268571Y-53993031D01*
X117321997Y-53882716D01*
X117391966Y-53765957D01*
X117485898Y-53640254D01*
X117602690Y-53512539D01*
X117938742Y-53848591D01*
G37*
%TD.AperFunction*%
%TD*%
D21*
%TO.N,VCC*%
X126434527Y-46070943D02*
X126365652Y-46203430D01*
X126295334Y-46323504D01*
X126228706Y-46429740D01*
X126228701Y-46429748D01*
X126167006Y-46528269D01*
X126166749Y-46528699D01*
X126111279Y-46625579D01*
X126110822Y-46626454D01*
X126062768Y-46727932D01*
X126062264Y-46729158D01*
X126022817Y-46841471D01*
X126022420Y-46842843D01*
X125992769Y-46972228D01*
X125992542Y-46973524D01*
X125973879Y-47126218D01*
X125973793Y-47127307D01*
X125967744Y-47297300D01*
X125492256Y-47297300D01*
X125486206Y-47127307D01*
X125486120Y-47126218D01*
X125467457Y-46973524D01*
X125467230Y-46972228D01*
X125437579Y-46842843D01*
X125437182Y-46841471D01*
X125397735Y-46729158D01*
X125397231Y-46727932D01*
X125349177Y-46626454D01*
X125348720Y-46625579D01*
X125293250Y-46528699D01*
X125292993Y-46528269D01*
X125231298Y-46429748D01*
X125231293Y-46429740D01*
X125164665Y-46323504D01*
X125094347Y-46203430D01*
X125025473Y-46070943D01*
X125730000Y-45338322D01*
X126434527Y-46070943D01*
%TA.AperFunction,Conductor*%
D20*
G36*
X126434527Y-46070943D02*
G01*
X126365652Y-46203430D01*
X126295334Y-46323504D01*
X126228706Y-46429740D01*
X126228701Y-46429748D01*
X126167006Y-46528269D01*
X126166749Y-46528699D01*
X126111279Y-46625579D01*
X126110822Y-46626454D01*
X126062768Y-46727932D01*
X126062264Y-46729158D01*
X126022817Y-46841471D01*
X126022420Y-46842843D01*
X125992769Y-46972228D01*
X125992542Y-46973524D01*
X125973879Y-47126218D01*
X125973793Y-47127307D01*
X125967744Y-47297300D01*
X125492256Y-47297300D01*
X125486206Y-47127307D01*
X125486120Y-47126218D01*
X125467457Y-46973524D01*
X125467230Y-46972228D01*
X125437579Y-46842843D01*
X125437182Y-46841471D01*
X125397735Y-46729158D01*
X125397231Y-46727932D01*
X125349177Y-46626454D01*
X125348720Y-46625579D01*
X125293250Y-46528699D01*
X125292993Y-46528269D01*
X125231298Y-46429748D01*
X125231293Y-46429740D01*
X125164665Y-46323504D01*
X125094347Y-46203430D01*
X125025473Y-46070943D01*
X125730000Y-45338322D01*
X126434527Y-46070943D01*
G37*
%TD.AperFunction*%
%TD*%
D21*
%TO.N,VCC*%
X130227470Y-51659338D02*
X130227604Y-51659469D01*
X130282830Y-51712626D01*
X130283067Y-51712849D01*
X130332994Y-51758498D01*
X130333364Y-51758823D01*
X130379712Y-51798009D01*
X130380234Y-51798427D01*
X130424725Y-51832193D01*
X130425388Y-51832664D01*
X130469745Y-51862055D01*
X130470494Y-51862515D01*
X130516437Y-51888574D01*
X130517183Y-51888965D01*
X130566435Y-51912736D01*
X130567087Y-51913028D01*
X130621368Y-51935555D01*
X130621873Y-51935752D01*
X130674742Y-51955094D01*
X130684465Y-52452465D01*
X130187094Y-52442742D01*
X130167752Y-52389873D01*
X130167555Y-52389368D01*
X130145028Y-52335087D01*
X130144736Y-52334435D01*
X130120965Y-52285183D01*
X130120574Y-52284437D01*
X130094515Y-52238494D01*
X130094055Y-52237745D01*
X130064664Y-52193388D01*
X130064193Y-52192725D01*
X130030427Y-52148234D01*
X130030009Y-52147712D01*
X129990823Y-52101364D01*
X129990498Y-52100994D01*
X129944849Y-52051067D01*
X129944626Y-52050830D01*
X129891469Y-51995604D01*
X129891338Y-51995470D01*
X129838531Y-51942202D01*
X130174202Y-51606531D01*
X130227470Y-51659338D01*
%TA.AperFunction,Conductor*%
D20*
G36*
X130227470Y-51659338D02*
G01*
X130227604Y-51659469D01*
X130282830Y-51712626D01*
X130283067Y-51712849D01*
X130332994Y-51758498D01*
X130333364Y-51758823D01*
X130379712Y-51798009D01*
X130380234Y-51798427D01*
X130424725Y-51832193D01*
X130425388Y-51832664D01*
X130469745Y-51862055D01*
X130470494Y-51862515D01*
X130516437Y-51888574D01*
X130517183Y-51888965D01*
X130566435Y-51912736D01*
X130567087Y-51913028D01*
X130621368Y-51935555D01*
X130621873Y-51935752D01*
X130674742Y-51955094D01*
X130684465Y-52452465D01*
X130187094Y-52442742D01*
X130167752Y-52389873D01*
X130167555Y-52389368D01*
X130145028Y-52335087D01*
X130144736Y-52334435D01*
X130120965Y-52285183D01*
X130120574Y-52284437D01*
X130094515Y-52238494D01*
X130094055Y-52237745D01*
X130064664Y-52193388D01*
X130064193Y-52192725D01*
X130030427Y-52148234D01*
X130030009Y-52147712D01*
X129990823Y-52101364D01*
X129990498Y-52100994D01*
X129944849Y-52051067D01*
X129944626Y-52050830D01*
X129891469Y-51995604D01*
X129891338Y-51995470D01*
X129838531Y-51942202D01*
X130174202Y-51606531D01*
X130227470Y-51659338D01*
G37*
%TD.AperFunction*%
%TD*%
D21*
%TO.N,S1*%
X120003574Y-61276919D02*
X120003662Y-61278023D01*
X120013054Y-61353784D01*
X120013287Y-61355096D01*
X120028193Y-61419263D01*
X120028599Y-61420646D01*
X120048409Y-61476321D01*
X120048921Y-61477553D01*
X120073023Y-61527841D01*
X120073484Y-61528714D01*
X120101269Y-61576721D01*
X120101525Y-61577143D01*
X120132378Y-61625968D01*
X120165580Y-61678541D01*
X120200482Y-61737880D01*
X120232522Y-61799418D01*
X119888000Y-62157678D01*
X119543478Y-61799418D01*
X119575517Y-61737880D01*
X119610419Y-61678541D01*
X119643619Y-61625971D01*
X119674474Y-61577143D01*
X119674730Y-61576721D01*
X119702515Y-61528714D01*
X119702976Y-61527841D01*
X119727078Y-61477553D01*
X119727590Y-61476321D01*
X119747400Y-61420646D01*
X119747806Y-61419263D01*
X119762712Y-61355096D01*
X119762945Y-61353784D01*
X119772337Y-61278023D01*
X119772425Y-61276919D01*
X119775250Y-61198700D01*
X120000750Y-61198700D01*
X120003574Y-61276919D01*
%TA.AperFunction,Conductor*%
D20*
G36*
X120003574Y-61276919D02*
G01*
X120003662Y-61278023D01*
X120013054Y-61353784D01*
X120013287Y-61355096D01*
X120028193Y-61419263D01*
X120028599Y-61420646D01*
X120048409Y-61476321D01*
X120048921Y-61477553D01*
X120073023Y-61527841D01*
X120073484Y-61528714D01*
X120101269Y-61576721D01*
X120101525Y-61577143D01*
X120132378Y-61625968D01*
X120165580Y-61678541D01*
X120200482Y-61737880D01*
X120232522Y-61799418D01*
X119888000Y-62157678D01*
X119543478Y-61799418D01*
X119575517Y-61737880D01*
X119610419Y-61678541D01*
X119643619Y-61625971D01*
X119674474Y-61577143D01*
X119674730Y-61576721D01*
X119702515Y-61528714D01*
X119702976Y-61527841D01*
X119727078Y-61477553D01*
X119727590Y-61476321D01*
X119747400Y-61420646D01*
X119747806Y-61419263D01*
X119762712Y-61355096D01*
X119762945Y-61353784D01*
X119772337Y-61278023D01*
X119772425Y-61276919D01*
X119775250Y-61198700D01*
X120000750Y-61198700D01*
X120003574Y-61276919D01*
G37*
%TD.AperFunction*%
%TD*%
D21*
%TO.N,S1*%
X123562750Y-55232477D02*
X123496581Y-55253335D01*
X123429976Y-55270605D01*
X123369295Y-55284310D01*
X123312951Y-55297018D01*
X123312471Y-55297136D01*
X123258879Y-55311435D01*
X123257936Y-55311726D01*
X123205333Y-55330242D01*
X123204100Y-55330751D01*
X123150725Y-55356112D01*
X123149460Y-55356804D01*
X123093547Y-55391636D01*
X123092455Y-55392398D01*
X123032243Y-55439329D01*
X123031400Y-55440048D01*
X122974094Y-55493361D01*
X122814640Y-55333907D01*
X122867952Y-55276599D01*
X122868670Y-55275756D01*
X122915601Y-55215544D01*
X122916363Y-55214452D01*
X122951195Y-55158539D01*
X122951887Y-55157274D01*
X122977248Y-55103899D01*
X122977757Y-55102666D01*
X122996273Y-55050063D01*
X122996564Y-55049120D01*
X123010863Y-54995528D01*
X123010981Y-54995048D01*
X123023688Y-54938708D01*
X123037394Y-54878023D01*
X123054664Y-54811418D01*
X123075523Y-54745250D01*
X123572465Y-54735535D01*
X123562750Y-55232477D01*
%TA.AperFunction,Conductor*%
D20*
G36*
X123562750Y-55232477D02*
G01*
X123496581Y-55253335D01*
X123429976Y-55270605D01*
X123369295Y-55284310D01*
X123312951Y-55297018D01*
X123312471Y-55297136D01*
X123258879Y-55311435D01*
X123257936Y-55311726D01*
X123205333Y-55330242D01*
X123204100Y-55330751D01*
X123150725Y-55356112D01*
X123149460Y-55356804D01*
X123093547Y-55391636D01*
X123092455Y-55392398D01*
X123032243Y-55439329D01*
X123031400Y-55440048D01*
X122974094Y-55493361D01*
X122814640Y-55333907D01*
X122867952Y-55276599D01*
X122868670Y-55275756D01*
X122915601Y-55215544D01*
X122916363Y-55214452D01*
X122951195Y-55158539D01*
X122951887Y-55157274D01*
X122977248Y-55103899D01*
X122977757Y-55102666D01*
X122996273Y-55050063D01*
X122996564Y-55049120D01*
X123010863Y-54995528D01*
X123010981Y-54995048D01*
X123023688Y-54938708D01*
X123037394Y-54878023D01*
X123054664Y-54811418D01*
X123075523Y-54745250D01*
X123572465Y-54735535D01*
X123562750Y-55232477D01*
G37*
%TD.AperFunction*%
%TD*%
D21*
%TO.N,S1*%
X132261678Y-76200000D02*
X131903418Y-76544522D01*
X131841880Y-76512482D01*
X131782541Y-76477580D01*
X131729968Y-76444378D01*
X131681143Y-76413525D01*
X131680721Y-76413269D01*
X131632714Y-76385484D01*
X131631841Y-76385023D01*
X131581553Y-76360921D01*
X131580321Y-76360409D01*
X131524646Y-76340599D01*
X131523263Y-76340193D01*
X131459096Y-76325287D01*
X131457784Y-76325054D01*
X131382023Y-76315662D01*
X131380919Y-76315574D01*
X131302700Y-76312750D01*
X131302700Y-76087250D01*
X131380919Y-76084425D01*
X131382023Y-76084337D01*
X131457784Y-76074945D01*
X131459096Y-76074712D01*
X131523263Y-76059806D01*
X131524646Y-76059400D01*
X131580321Y-76039590D01*
X131581553Y-76039078D01*
X131631841Y-76014976D01*
X131632714Y-76014515D01*
X131680721Y-75986730D01*
X131681143Y-75986474D01*
X131729968Y-75955621D01*
X131782541Y-75922419D01*
X131841880Y-75887517D01*
X131903418Y-75855478D01*
X132261678Y-76200000D01*
%TA.AperFunction,Conductor*%
D20*
G36*
X132261678Y-76200000D02*
G01*
X131903418Y-76544522D01*
X131841880Y-76512482D01*
X131782541Y-76477580D01*
X131729968Y-76444378D01*
X131681143Y-76413525D01*
X131680721Y-76413269D01*
X131632714Y-76385484D01*
X131631841Y-76385023D01*
X131581553Y-76360921D01*
X131580321Y-76360409D01*
X131524646Y-76340599D01*
X131523263Y-76340193D01*
X131459096Y-76325287D01*
X131457784Y-76325054D01*
X131382023Y-76315662D01*
X131380919Y-76315574D01*
X131302700Y-76312750D01*
X131302700Y-76087250D01*
X131380919Y-76084425D01*
X131382023Y-76084337D01*
X131457784Y-76074945D01*
X131459096Y-76074712D01*
X131523263Y-76059806D01*
X131524646Y-76059400D01*
X131580321Y-76039590D01*
X131581553Y-76039078D01*
X131631841Y-76014976D01*
X131632714Y-76014515D01*
X131680721Y-75986730D01*
X131681143Y-75986474D01*
X131729968Y-75955621D01*
X131782541Y-75922419D01*
X131841880Y-75887517D01*
X131903418Y-75855478D01*
X132261678Y-76200000D01*
G37*
%TD.AperFunction*%
%TD*%
D21*
%TO.N,S1*%
X118268372Y-64978567D02*
X118316650Y-65142455D01*
X118347142Y-65297183D01*
X118364760Y-65438335D01*
X118376845Y-65569751D01*
X118376870Y-65569990D01*
X118390764Y-65695093D01*
X118390906Y-65696045D01*
X118413981Y-65818360D01*
X118414371Y-65819895D01*
X118454019Y-65943134D01*
X118454738Y-65944901D01*
X118518350Y-66072775D01*
X118519303Y-66074382D01*
X118614268Y-66210603D01*
X118615254Y-66211845D01*
X118740889Y-66351170D01*
X118581170Y-66510889D01*
X118441845Y-66385254D01*
X118440603Y-66384268D01*
X118304382Y-66289303D01*
X118302775Y-66288350D01*
X118174901Y-66224738D01*
X118173134Y-66224019D01*
X118049895Y-66184371D01*
X118048360Y-66183981D01*
X117926045Y-66160906D01*
X117925093Y-66160764D01*
X117799990Y-66146870D01*
X117799751Y-66146845D01*
X117668335Y-66134760D01*
X117527183Y-66117142D01*
X117372455Y-66086650D01*
X117208567Y-66038372D01*
X117187436Y-64957436D01*
X118268372Y-64978567D01*
%TA.AperFunction,Conductor*%
D20*
G36*
X118268372Y-64978567D02*
G01*
X118316650Y-65142455D01*
X118347142Y-65297183D01*
X118364760Y-65438335D01*
X118376845Y-65569751D01*
X118376870Y-65569990D01*
X118390764Y-65695093D01*
X118390906Y-65696045D01*
X118413981Y-65818360D01*
X118414371Y-65819895D01*
X118454019Y-65943134D01*
X118454738Y-65944901D01*
X118518350Y-66072775D01*
X118519303Y-66074382D01*
X118614268Y-66210603D01*
X118615254Y-66211845D01*
X118740889Y-66351170D01*
X118581170Y-66510889D01*
X118441845Y-66385254D01*
X118440603Y-66384268D01*
X118304382Y-66289303D01*
X118302775Y-66288350D01*
X118174901Y-66224738D01*
X118173134Y-66224019D01*
X118049895Y-66184371D01*
X118048360Y-66183981D01*
X117926045Y-66160906D01*
X117925093Y-66160764D01*
X117799990Y-66146870D01*
X117799751Y-66146845D01*
X117668335Y-66134760D01*
X117527183Y-66117142D01*
X117372455Y-66086650D01*
X117208567Y-66038372D01*
X117187436Y-64957436D01*
X118268372Y-64978567D01*
G37*
%TD.AperFunction*%
%TD*%
D21*
%TO.N,S0*%
X123031400Y-73591952D02*
X123032243Y-73592670D01*
X123092455Y-73639601D01*
X123093547Y-73640363D01*
X123149460Y-73675195D01*
X123150725Y-73675887D01*
X123204100Y-73701248D01*
X123205333Y-73701757D01*
X123257936Y-73720273D01*
X123258879Y-73720564D01*
X123312471Y-73734863D01*
X123312951Y-73734981D01*
X123369291Y-73747688D01*
X123429976Y-73761394D01*
X123496581Y-73778664D01*
X123562750Y-73799523D01*
X123572465Y-74296465D01*
X123075523Y-74286750D01*
X123054664Y-74220581D01*
X123037394Y-74153976D01*
X123023688Y-74093291D01*
X123010981Y-74036951D01*
X123010863Y-74036471D01*
X122996564Y-73982879D01*
X122996273Y-73981936D01*
X122977757Y-73929333D01*
X122977248Y-73928100D01*
X122951887Y-73874725D01*
X122951195Y-73873460D01*
X122916363Y-73817547D01*
X122915601Y-73816455D01*
X122868670Y-73756243D01*
X122867952Y-73755400D01*
X122814640Y-73698093D01*
X122974093Y-73538640D01*
X123031400Y-73591952D01*
%TA.AperFunction,Conductor*%
D20*
G36*
X123031400Y-73591952D02*
G01*
X123032243Y-73592670D01*
X123092455Y-73639601D01*
X123093547Y-73640363D01*
X123149460Y-73675195D01*
X123150725Y-73675887D01*
X123204100Y-73701248D01*
X123205333Y-73701757D01*
X123257936Y-73720273D01*
X123258879Y-73720564D01*
X123312471Y-73734863D01*
X123312951Y-73734981D01*
X123369291Y-73747688D01*
X123429976Y-73761394D01*
X123496581Y-73778664D01*
X123562750Y-73799523D01*
X123572465Y-74296465D01*
X123075523Y-74286750D01*
X123054664Y-74220581D01*
X123037394Y-74153976D01*
X123023688Y-74093291D01*
X123010981Y-74036951D01*
X123010863Y-74036471D01*
X122996564Y-73982879D01*
X122996273Y-73981936D01*
X122977757Y-73929333D01*
X122977248Y-73928100D01*
X122951887Y-73874725D01*
X122951195Y-73873460D01*
X122916363Y-73817547D01*
X122915601Y-73816455D01*
X122868670Y-73756243D01*
X122867952Y-73755400D01*
X122814640Y-73698093D01*
X122974093Y-73538640D01*
X123031400Y-73591952D01*
G37*
%TD.AperFunction*%
%TD*%
D21*
%TO.N,S0*%
X117997633Y-62077357D02*
X118128595Y-62165200D01*
X118240874Y-62252559D01*
X118342335Y-62336932D01*
X118342521Y-62337084D01*
X118440807Y-62415721D01*
X118441581Y-62416293D01*
X118544388Y-62486467D01*
X118545750Y-62487277D01*
X118660928Y-62546384D01*
X118662685Y-62547125D01*
X118798086Y-62592566D01*
X118799896Y-62593029D01*
X118963370Y-62622200D01*
X118964946Y-62622380D01*
X119152300Y-62632061D01*
X119152300Y-62857939D01*
X118964946Y-62867619D01*
X118963370Y-62867799D01*
X118799896Y-62896970D01*
X118798086Y-62897433D01*
X118662685Y-62942874D01*
X118660928Y-62943615D01*
X118545750Y-63002722D01*
X118544388Y-63003532D01*
X118441581Y-63073706D01*
X118440807Y-63074278D01*
X118342521Y-63152915D01*
X118342335Y-63153067D01*
X118240874Y-63237440D01*
X118128595Y-63324799D01*
X117997633Y-63412642D01*
X117847601Y-63494395D01*
X117068322Y-62745000D01*
X117847601Y-61995605D01*
X117997633Y-62077357D01*
%TA.AperFunction,Conductor*%
D20*
G36*
X117997633Y-62077357D02*
G01*
X118128595Y-62165200D01*
X118240874Y-62252559D01*
X118342335Y-62336932D01*
X118342521Y-62337084D01*
X118440807Y-62415721D01*
X118441581Y-62416293D01*
X118544388Y-62486467D01*
X118545750Y-62487277D01*
X118660928Y-62546384D01*
X118662685Y-62547125D01*
X118798086Y-62592566D01*
X118799896Y-62593029D01*
X118963370Y-62622200D01*
X118964946Y-62622380D01*
X119152300Y-62632061D01*
X119152300Y-62857939D01*
X118964946Y-62867619D01*
X118963370Y-62867799D01*
X118799896Y-62896970D01*
X118798086Y-62897433D01*
X118662685Y-62942874D01*
X118660928Y-62943615D01*
X118545750Y-63002722D01*
X118544388Y-63003532D01*
X118441581Y-63073706D01*
X118440807Y-63074278D01*
X118342521Y-63152915D01*
X118342335Y-63153067D01*
X118240874Y-63237440D01*
X118128595Y-63324799D01*
X117997633Y-63412642D01*
X117847601Y-63494395D01*
X117068322Y-62745000D01*
X117847601Y-61995605D01*
X117997633Y-62077357D01*
G37*
%TD.AperFunction*%
%TD*%
D21*
%TO.N,S0*%
X132077597Y-55619324D02*
X132011428Y-55640182D01*
X131944823Y-55657452D01*
X131884142Y-55671157D01*
X131827798Y-55683865D01*
X131827318Y-55683983D01*
X131773726Y-55698282D01*
X131772783Y-55698573D01*
X131720180Y-55717089D01*
X131718947Y-55717598D01*
X131665572Y-55742959D01*
X131664307Y-55743651D01*
X131608394Y-55778483D01*
X131607302Y-55779245D01*
X131547090Y-55826176D01*
X131546247Y-55826895D01*
X131488941Y-55880208D01*
X131329487Y-55720754D01*
X131382799Y-55663446D01*
X131383517Y-55662603D01*
X131430448Y-55602391D01*
X131431210Y-55601299D01*
X131466042Y-55545386D01*
X131466734Y-55544121D01*
X131492095Y-55490746D01*
X131492604Y-55489513D01*
X131511120Y-55436910D01*
X131511411Y-55435967D01*
X131525710Y-55382375D01*
X131525828Y-55381895D01*
X131538535Y-55325555D01*
X131552241Y-55264870D01*
X131569511Y-55198265D01*
X131590370Y-55132097D01*
X132087312Y-55122382D01*
X132077597Y-55619324D01*
%TA.AperFunction,Conductor*%
D20*
G36*
X132077597Y-55619324D02*
G01*
X132011428Y-55640182D01*
X131944823Y-55657452D01*
X131884142Y-55671157D01*
X131827798Y-55683865D01*
X131827318Y-55683983D01*
X131773726Y-55698282D01*
X131772783Y-55698573D01*
X131720180Y-55717089D01*
X131718947Y-55717598D01*
X131665572Y-55742959D01*
X131664307Y-55743651D01*
X131608394Y-55778483D01*
X131607302Y-55779245D01*
X131547090Y-55826176D01*
X131546247Y-55826895D01*
X131488941Y-55880208D01*
X131329487Y-55720754D01*
X131382799Y-55663446D01*
X131383517Y-55662603D01*
X131430448Y-55602391D01*
X131431210Y-55601299D01*
X131466042Y-55545386D01*
X131466734Y-55544121D01*
X131492095Y-55490746D01*
X131492604Y-55489513D01*
X131511120Y-55436910D01*
X131511411Y-55435967D01*
X131525710Y-55382375D01*
X131525828Y-55381895D01*
X131538535Y-55325555D01*
X131552241Y-55264870D01*
X131569511Y-55198265D01*
X131590370Y-55132097D01*
X132087312Y-55122382D01*
X132077597Y-55619324D01*
G37*
%TD.AperFunction*%
%TD*%
D21*
%TO.N,UP*%
X147200549Y-62546048D02*
X147201690Y-62546971D01*
X147308672Y-62623666D01*
X147310148Y-62624578D01*
X147410324Y-62677405D01*
X147411967Y-62678128D01*
X147508307Y-62712620D01*
X147509775Y-62713047D01*
X147605253Y-62734736D01*
X147606210Y-62734916D01*
X147703796Y-62749334D01*
X147704095Y-62749374D01*
X147806587Y-62762032D01*
X147916789Y-62778430D01*
X148037635Y-62804040D01*
X148164001Y-62841892D01*
X148180692Y-63695692D01*
X147326892Y-63679001D01*
X147289040Y-63552635D01*
X147263430Y-63431789D01*
X147247032Y-63321587D01*
X147234374Y-63219095D01*
X147234334Y-63218796D01*
X147219916Y-63121210D01*
X147219736Y-63120253D01*
X147198047Y-63024775D01*
X147197620Y-63023307D01*
X147163128Y-62926967D01*
X147162405Y-62925324D01*
X147109578Y-62825148D01*
X147108666Y-62823672D01*
X147031971Y-62716690D01*
X147031048Y-62715549D01*
X146933095Y-62607750D01*
X147092750Y-62448095D01*
X147200549Y-62546048D01*
%TA.AperFunction,Conductor*%
D20*
G36*
X147200549Y-62546048D02*
G01*
X147201690Y-62546971D01*
X147308672Y-62623666D01*
X147310148Y-62624578D01*
X147410324Y-62677405D01*
X147411967Y-62678128D01*
X147508307Y-62712620D01*
X147509775Y-62713047D01*
X147605253Y-62734736D01*
X147606210Y-62734916D01*
X147703796Y-62749334D01*
X147704095Y-62749374D01*
X147806587Y-62762032D01*
X147916789Y-62778430D01*
X148037635Y-62804040D01*
X148164001Y-62841892D01*
X148180692Y-63695692D01*
X147326892Y-63679001D01*
X147289040Y-63552635D01*
X147263430Y-63431789D01*
X147247032Y-63321587D01*
X147234374Y-63219095D01*
X147234334Y-63218796D01*
X147219916Y-63121210D01*
X147219736Y-63120253D01*
X147198047Y-63024775D01*
X147197620Y-63023307D01*
X147163128Y-62926967D01*
X147162405Y-62925324D01*
X147109578Y-62825148D01*
X147108666Y-62823672D01*
X147031971Y-62716690D01*
X147031048Y-62715549D01*
X146933095Y-62607750D01*
X147092750Y-62448095D01*
X147200549Y-62546048D01*
G37*
%TD.AperFunction*%
%TD*%
D21*
%TO.N,UP*%
X131574565Y-45906906D02*
X131541926Y-46030239D01*
X131504448Y-46150767D01*
X131468613Y-46262398D01*
X131468490Y-46262805D01*
X131438721Y-46367443D01*
X131438469Y-46368498D01*
X131419072Y-46468415D01*
X131418854Y-46470221D01*
X131414134Y-46567687D01*
X131414253Y-46570143D01*
X131428518Y-46667429D01*
X131429204Y-46670077D01*
X131466759Y-46769454D01*
X131467884Y-46771719D01*
X131533037Y-46875457D01*
X131534255Y-46877089D01*
X131623446Y-46978516D01*
X131463776Y-47138186D01*
X131322473Y-47006088D01*
X131321754Y-47005465D01*
X131186579Y-46896859D01*
X131185785Y-46896270D01*
X131062404Y-46812043D01*
X131061666Y-46811576D01*
X130946775Y-46744230D01*
X130946286Y-46743957D01*
X130836582Y-46685993D01*
X130836509Y-46685955D01*
X130728878Y-46629973D01*
X130620208Y-46568599D01*
X130507036Y-46494310D01*
X130385881Y-46399542D01*
X130259932Y-46282841D01*
X130726744Y-45348329D01*
X131574565Y-45906906D01*
%TA.AperFunction,Conductor*%
D20*
G36*
X131574565Y-45906906D02*
G01*
X131541926Y-46030239D01*
X131504448Y-46150767D01*
X131468613Y-46262398D01*
X131468490Y-46262805D01*
X131438721Y-46367443D01*
X131438469Y-46368498D01*
X131419072Y-46468415D01*
X131418854Y-46470221D01*
X131414134Y-46567687D01*
X131414253Y-46570143D01*
X131428518Y-46667429D01*
X131429204Y-46670077D01*
X131466759Y-46769454D01*
X131467884Y-46771719D01*
X131533037Y-46875457D01*
X131534255Y-46877089D01*
X131623446Y-46978516D01*
X131463776Y-47138186D01*
X131322473Y-47006088D01*
X131321754Y-47005465D01*
X131186579Y-46896859D01*
X131185785Y-46896270D01*
X131062404Y-46812043D01*
X131061666Y-46811576D01*
X130946775Y-46744230D01*
X130946286Y-46743957D01*
X130836582Y-46685993D01*
X130836509Y-46685955D01*
X130728878Y-46629973D01*
X130620208Y-46568599D01*
X130507036Y-46494310D01*
X130385881Y-46399542D01*
X130259932Y-46282841D01*
X130726744Y-45348329D01*
X131574565Y-45906906D01*
G37*
%TD.AperFunction*%
%TD*%
D21*
%TO.N,DOWN*%
X141674402Y-46070813D02*
X141598192Y-46211001D01*
X141516238Y-46334007D01*
X141434929Y-46439621D01*
X141356497Y-46535252D01*
X141356338Y-46535450D01*
X141283352Y-46628159D01*
X141282784Y-46628940D01*
X141217731Y-46725916D01*
X141216938Y-46727273D01*
X141162198Y-46835837D01*
X141161477Y-46837577D01*
X141119431Y-46965053D01*
X141118983Y-46966836D01*
X141092010Y-47120543D01*
X141091835Y-47122093D01*
X141082929Y-47297300D01*
X140857071Y-47297300D01*
X140848164Y-47122093D01*
X140847989Y-47120543D01*
X140821016Y-46966836D01*
X140820568Y-46965053D01*
X140778522Y-46837577D01*
X140777801Y-46835837D01*
X140723061Y-46727273D01*
X140722268Y-46725916D01*
X140657215Y-46628940D01*
X140656647Y-46628159D01*
X140583661Y-46535450D01*
X140583502Y-46535252D01*
X140505070Y-46439621D01*
X140423761Y-46334007D01*
X140341807Y-46211001D01*
X140265598Y-46070813D01*
X140970000Y-45338322D01*
X141674402Y-46070813D01*
%TA.AperFunction,Conductor*%
D20*
G36*
X141674402Y-46070813D02*
G01*
X141598192Y-46211001D01*
X141516238Y-46334007D01*
X141434929Y-46439621D01*
X141356497Y-46535252D01*
X141356338Y-46535450D01*
X141283352Y-46628159D01*
X141282784Y-46628940D01*
X141217731Y-46725916D01*
X141216938Y-46727273D01*
X141162198Y-46835837D01*
X141161477Y-46837577D01*
X141119431Y-46965053D01*
X141118983Y-46966836D01*
X141092010Y-47120543D01*
X141091835Y-47122093D01*
X141082929Y-47297300D01*
X140857071Y-47297300D01*
X140848164Y-47122093D01*
X140847989Y-47120543D01*
X140821016Y-46966836D01*
X140820568Y-46965053D01*
X140778522Y-46837577D01*
X140777801Y-46835837D01*
X140723061Y-46727273D01*
X140722268Y-46725916D01*
X140657215Y-46628940D01*
X140656647Y-46628159D01*
X140583661Y-46535450D01*
X140583502Y-46535252D01*
X140505070Y-46439621D01*
X140423761Y-46334007D01*
X140341807Y-46211001D01*
X140265598Y-46070813D01*
X140970000Y-45338322D01*
X141674402Y-46070813D01*
G37*
%TD.AperFunction*%
%TD*%
D21*
%TO.N,DOWN*%
X147200549Y-56546048D02*
X147201690Y-56546971D01*
X147308672Y-56623666D01*
X147310148Y-56624578D01*
X147410324Y-56677405D01*
X147411967Y-56678128D01*
X147508307Y-56712620D01*
X147509775Y-56713047D01*
X147605253Y-56734736D01*
X147606210Y-56734916D01*
X147703796Y-56749334D01*
X147704095Y-56749374D01*
X147806587Y-56762032D01*
X147916789Y-56778430D01*
X148037635Y-56804040D01*
X148164001Y-56841892D01*
X148180692Y-57695692D01*
X147326892Y-57679001D01*
X147289040Y-57552635D01*
X147263430Y-57431789D01*
X147247032Y-57321587D01*
X147234374Y-57219095D01*
X147234334Y-57218796D01*
X147219916Y-57121210D01*
X147219736Y-57120253D01*
X147198047Y-57024775D01*
X147197620Y-57023307D01*
X147163128Y-56926967D01*
X147162405Y-56925324D01*
X147109578Y-56825148D01*
X147108666Y-56823672D01*
X147031971Y-56716690D01*
X147031048Y-56715549D01*
X146933095Y-56607750D01*
X147092750Y-56448095D01*
X147200549Y-56546048D01*
%TA.AperFunction,Conductor*%
D20*
G36*
X147200549Y-56546048D02*
G01*
X147201690Y-56546971D01*
X147308672Y-56623666D01*
X147310148Y-56624578D01*
X147410324Y-56677405D01*
X147411967Y-56678128D01*
X147508307Y-56712620D01*
X147509775Y-56713047D01*
X147605253Y-56734736D01*
X147606210Y-56734916D01*
X147703796Y-56749334D01*
X147704095Y-56749374D01*
X147806587Y-56762032D01*
X147916789Y-56778430D01*
X148037635Y-56804040D01*
X148164001Y-56841892D01*
X148180692Y-57695692D01*
X147326892Y-57679001D01*
X147289040Y-57552635D01*
X147263430Y-57431789D01*
X147247032Y-57321587D01*
X147234374Y-57219095D01*
X147234334Y-57218796D01*
X147219916Y-57121210D01*
X147219736Y-57120253D01*
X147198047Y-57024775D01*
X147197620Y-57023307D01*
X147163128Y-56926967D01*
X147162405Y-56925324D01*
X147109578Y-56825148D01*
X147108666Y-56823672D01*
X147031971Y-56716690D01*
X147031048Y-56715549D01*
X146933095Y-56607750D01*
X147092750Y-56448095D01*
X147200549Y-56546048D01*
G37*
%TD.AperFunction*%
%TD*%
D21*
%TO.N,LEFT*%
X148164001Y-74098108D02*
X148037635Y-74135959D01*
X147916789Y-74161569D01*
X147806587Y-74177967D01*
X147704095Y-74190625D01*
X147703796Y-74190665D01*
X147606210Y-74205083D01*
X147605253Y-74205263D01*
X147509775Y-74226952D01*
X147508307Y-74227379D01*
X147411967Y-74261871D01*
X147410324Y-74262594D01*
X147310148Y-74315421D01*
X147308672Y-74316333D01*
X147201690Y-74393028D01*
X147200549Y-74393951D01*
X147092750Y-74491905D01*
X146933095Y-74332250D01*
X147031048Y-74224450D01*
X147031971Y-74223309D01*
X147108666Y-74116327D01*
X147109578Y-74114851D01*
X147162405Y-74014675D01*
X147163128Y-74013032D01*
X147197620Y-73916692D01*
X147198047Y-73915224D01*
X147219736Y-73819746D01*
X147219916Y-73818789D01*
X147234334Y-73721203D01*
X147234374Y-73720904D01*
X147247032Y-73618412D01*
X147263430Y-73508210D01*
X147289040Y-73387364D01*
X147326892Y-73260999D01*
X148180692Y-73244308D01*
X148164001Y-74098108D01*
%TA.AperFunction,Conductor*%
D20*
G36*
X148164001Y-74098108D02*
G01*
X148037635Y-74135959D01*
X147916789Y-74161569D01*
X147806587Y-74177967D01*
X147704095Y-74190625D01*
X147703796Y-74190665D01*
X147606210Y-74205083D01*
X147605253Y-74205263D01*
X147509775Y-74226952D01*
X147508307Y-74227379D01*
X147411967Y-74261871D01*
X147410324Y-74262594D01*
X147310148Y-74315421D01*
X147308672Y-74316333D01*
X147201690Y-74393028D01*
X147200549Y-74393951D01*
X147092750Y-74491905D01*
X146933095Y-74332250D01*
X147031048Y-74224450D01*
X147031971Y-74223309D01*
X147108666Y-74116327D01*
X147109578Y-74114851D01*
X147162405Y-74014675D01*
X147163128Y-74013032D01*
X147197620Y-73916692D01*
X147198047Y-73915224D01*
X147219736Y-73819746D01*
X147219916Y-73818789D01*
X147234334Y-73721203D01*
X147234374Y-73720904D01*
X147247032Y-73618412D01*
X147263430Y-73508210D01*
X147289040Y-73387364D01*
X147326892Y-73260999D01*
X148180692Y-73244308D01*
X148164001Y-74098108D01*
G37*
%TD.AperFunction*%
%TD*%
D21*
%TO.N,LEFT*%
X141091835Y-83687906D02*
X141092010Y-83689456D01*
X141118983Y-83843163D01*
X141119431Y-83844946D01*
X141161477Y-83972422D01*
X141162198Y-83974162D01*
X141216938Y-84082726D01*
X141217731Y-84084083D01*
X141282784Y-84181059D01*
X141283352Y-84181840D01*
X141356338Y-84274549D01*
X141356497Y-84274747D01*
X141434929Y-84370378D01*
X141516238Y-84475992D01*
X141598192Y-84598998D01*
X141674402Y-84739187D01*
X140970000Y-85471678D01*
X140265598Y-84739187D01*
X140341807Y-84598998D01*
X140423761Y-84475992D01*
X140505070Y-84370378D01*
X140583502Y-84274747D01*
X140583661Y-84274549D01*
X140656647Y-84181840D01*
X140657215Y-84181059D01*
X140722268Y-84084083D01*
X140723061Y-84082726D01*
X140777801Y-83974162D01*
X140778522Y-83972422D01*
X140820568Y-83844946D01*
X140821016Y-83843163D01*
X140847989Y-83689456D01*
X140848164Y-83687906D01*
X140857071Y-83512700D01*
X141082929Y-83512700D01*
X141091835Y-83687906D01*
%TA.AperFunction,Conductor*%
D20*
G36*
X141091835Y-83687906D02*
G01*
X141092010Y-83689456D01*
X141118983Y-83843163D01*
X141119431Y-83844946D01*
X141161477Y-83972422D01*
X141162198Y-83974162D01*
X141216938Y-84082726D01*
X141217731Y-84084083D01*
X141282784Y-84181059D01*
X141283352Y-84181840D01*
X141356338Y-84274549D01*
X141356497Y-84274747D01*
X141434929Y-84370378D01*
X141516238Y-84475992D01*
X141598192Y-84598998D01*
X141674402Y-84739187D01*
X140970000Y-85471678D01*
X140265598Y-84739187D01*
X140341807Y-84598998D01*
X140423761Y-84475992D01*
X140505070Y-84370378D01*
X140583502Y-84274747D01*
X140583661Y-84274549D01*
X140656647Y-84181840D01*
X140657215Y-84181059D01*
X140722268Y-84084083D01*
X140723061Y-84082726D01*
X140777801Y-83974162D01*
X140778522Y-83972422D01*
X140820568Y-83844946D01*
X140821016Y-83843163D01*
X140847989Y-83689456D01*
X140848164Y-83687906D01*
X140857071Y-83512700D01*
X141082929Y-83512700D01*
X141091835Y-83687906D01*
G37*
%TD.AperFunction*%
%TD*%
D21*
%TO.N,RIGHT*%
X131114707Y-83675978D02*
X131029283Y-83782552D01*
X131027924Y-83784638D01*
X131027360Y-83785883D01*
X130985801Y-83892505D01*
X130985129Y-83894902D01*
X130984935Y-83897286D01*
X130986267Y-83997655D01*
X130986544Y-84000129D01*
X130987070Y-84001932D01*
X131023209Y-84098623D01*
X131024494Y-84101155D01*
X131087351Y-84196742D01*
X131088236Y-84197930D01*
X131169726Y-84294990D01*
X131170060Y-84295373D01*
X131262002Y-84396378D01*
X131356144Y-84503706D01*
X131444271Y-84619660D01*
X131514193Y-84739404D01*
X130812477Y-85469103D01*
X130260023Y-84526004D01*
X130356162Y-84421581D01*
X130356902Y-84420701D01*
X130435308Y-84318323D01*
X130435960Y-84317388D01*
X130496685Y-84221338D01*
X130497146Y-84220547D01*
X130546606Y-84128191D01*
X130546820Y-84127771D01*
X130591394Y-84036558D01*
X130637436Y-83943976D01*
X130691228Y-83847586D01*
X130759246Y-83744526D01*
X130847985Y-83631990D01*
X130955290Y-83516561D01*
X131114707Y-83675978D01*
%TA.AperFunction,Conductor*%
D20*
G36*
X131114707Y-83675978D02*
G01*
X131029283Y-83782552D01*
X131027924Y-83784638D01*
X131027360Y-83785883D01*
X130985801Y-83892505D01*
X130985129Y-83894902D01*
X130984935Y-83897286D01*
X130986267Y-83997655D01*
X130986544Y-84000129D01*
X130987070Y-84001932D01*
X131023209Y-84098623D01*
X131024494Y-84101155D01*
X131087351Y-84196742D01*
X131088236Y-84197930D01*
X131169726Y-84294990D01*
X131170060Y-84295373D01*
X131262002Y-84396378D01*
X131356144Y-84503706D01*
X131444271Y-84619660D01*
X131514193Y-84739404D01*
X130812477Y-85469103D01*
X130260023Y-84526004D01*
X130356162Y-84421581D01*
X130356902Y-84420701D01*
X130435308Y-84318323D01*
X130435960Y-84317388D01*
X130496685Y-84221338D01*
X130497146Y-84220547D01*
X130546606Y-84128191D01*
X130546820Y-84127771D01*
X130591394Y-84036558D01*
X130637436Y-83943976D01*
X130691228Y-83847586D01*
X130759246Y-83744526D01*
X130847985Y-83631990D01*
X130955290Y-83516561D01*
X131114707Y-83675978D01*
G37*
%TD.AperFunction*%
%TD*%
D21*
%TO.N,RIGHT*%
X148271603Y-67472477D02*
X147658588Y-68061984D01*
X147573690Y-68017160D01*
X147487020Y-67966006D01*
X147405020Y-67916449D01*
X147404662Y-67916240D01*
X147326250Y-67872280D01*
X147325279Y-67871789D01*
X147249192Y-67837326D01*
X147247388Y-67836669D01*
X147172312Y-67815568D01*
X147169527Y-67815111D01*
X147094149Y-67811241D01*
X147090725Y-67811530D01*
X147013730Y-67828757D01*
X147010574Y-67829920D01*
X146930649Y-67872112D01*
X146928388Y-67873637D01*
X146853137Y-67937136D01*
X146693612Y-67777611D01*
X146794066Y-67677598D01*
X146886859Y-67586109D01*
X146966895Y-67507996D01*
X147037920Y-67439307D01*
X147103729Y-67376041D01*
X147168072Y-67314240D01*
X147168094Y-67314220D01*
X147234764Y-67249888D01*
X147234804Y-67249849D01*
X147307577Y-67179000D01*
X147307626Y-67178951D01*
X147390284Y-67097599D01*
X147390334Y-67097551D01*
X147479726Y-67008606D01*
X148271603Y-67472477D01*
%TA.AperFunction,Conductor*%
D20*
G36*
X148271603Y-67472477D02*
G01*
X147658588Y-68061984D01*
X147573690Y-68017160D01*
X147487020Y-67966006D01*
X147405020Y-67916449D01*
X147404662Y-67916240D01*
X147326250Y-67872280D01*
X147325279Y-67871789D01*
X147249192Y-67837326D01*
X147247388Y-67836669D01*
X147172312Y-67815568D01*
X147169527Y-67815111D01*
X147094149Y-67811241D01*
X147090725Y-67811530D01*
X147013730Y-67828757D01*
X147010574Y-67829920D01*
X146930649Y-67872112D01*
X146928388Y-67873637D01*
X146853137Y-67937136D01*
X146693612Y-67777611D01*
X146794066Y-67677598D01*
X146886859Y-67586109D01*
X146966895Y-67507996D01*
X147037920Y-67439307D01*
X147103729Y-67376041D01*
X147168072Y-67314240D01*
X147168094Y-67314220D01*
X147234764Y-67249888D01*
X147234804Y-67249849D01*
X147307577Y-67179000D01*
X147307626Y-67178951D01*
X147390284Y-67097599D01*
X147390334Y-67097551D01*
X147479726Y-67008606D01*
X148271603Y-67472477D01*
G37*
%TD.AperFunction*%
%TD*%
D21*
%TO.N,X*%
X148164001Y-78098108D02*
X148037635Y-78135959D01*
X147916789Y-78161569D01*
X147806587Y-78177967D01*
X147704095Y-78190625D01*
X147703796Y-78190665D01*
X147606210Y-78205083D01*
X147605253Y-78205263D01*
X147509775Y-78226952D01*
X147508307Y-78227379D01*
X147411967Y-78261871D01*
X147410324Y-78262594D01*
X147310148Y-78315421D01*
X147308672Y-78316333D01*
X147201690Y-78393028D01*
X147200549Y-78393951D01*
X147092750Y-78491905D01*
X146933095Y-78332250D01*
X147031048Y-78224450D01*
X147031971Y-78223309D01*
X147108666Y-78116327D01*
X147109578Y-78114851D01*
X147162405Y-78014675D01*
X147163128Y-78013032D01*
X147197620Y-77916692D01*
X147198047Y-77915224D01*
X147219736Y-77819746D01*
X147219916Y-77818789D01*
X147234334Y-77721203D01*
X147234374Y-77720904D01*
X147247032Y-77618412D01*
X147263430Y-77508210D01*
X147289040Y-77387364D01*
X147326892Y-77260999D01*
X148180692Y-77244308D01*
X148164001Y-78098108D01*
%TA.AperFunction,Conductor*%
D20*
G36*
X148164001Y-78098108D02*
G01*
X148037635Y-78135959D01*
X147916789Y-78161569D01*
X147806587Y-78177967D01*
X147704095Y-78190625D01*
X147703796Y-78190665D01*
X147606210Y-78205083D01*
X147605253Y-78205263D01*
X147509775Y-78226952D01*
X147508307Y-78227379D01*
X147411967Y-78261871D01*
X147410324Y-78262594D01*
X147310148Y-78315421D01*
X147308672Y-78316333D01*
X147201690Y-78393028D01*
X147200549Y-78393951D01*
X147092750Y-78491905D01*
X146933095Y-78332250D01*
X147031048Y-78224450D01*
X147031971Y-78223309D01*
X147108666Y-78116327D01*
X147109578Y-78114851D01*
X147162405Y-78014675D01*
X147163128Y-78013032D01*
X147197620Y-77916692D01*
X147198047Y-77915224D01*
X147219736Y-77819746D01*
X147219916Y-77818789D01*
X147234334Y-77721203D01*
X147234374Y-77720904D01*
X147247032Y-77618412D01*
X147263430Y-77508210D01*
X147289040Y-77387364D01*
X147326892Y-77260999D01*
X148180692Y-77244308D01*
X148164001Y-78098108D01*
G37*
%TD.AperFunction*%
%TD*%
D21*
%TO.N,X*%
X146171835Y-83687906D02*
X146172010Y-83689456D01*
X146198983Y-83843163D01*
X146199431Y-83844946D01*
X146241477Y-83972422D01*
X146242198Y-83974162D01*
X146296938Y-84082726D01*
X146297731Y-84084083D01*
X146362784Y-84181059D01*
X146363352Y-84181840D01*
X146436338Y-84274549D01*
X146436497Y-84274747D01*
X146514929Y-84370378D01*
X146596238Y-84475992D01*
X146678192Y-84598998D01*
X146754402Y-84739187D01*
X146050000Y-85471678D01*
X145345598Y-84739187D01*
X145421807Y-84598998D01*
X145503761Y-84475992D01*
X145585070Y-84370378D01*
X145663502Y-84274747D01*
X145663661Y-84274549D01*
X145736647Y-84181840D01*
X145737215Y-84181059D01*
X145802268Y-84084083D01*
X145803061Y-84082726D01*
X145857801Y-83974162D01*
X145858522Y-83972422D01*
X145900568Y-83844946D01*
X145901016Y-83843163D01*
X145927989Y-83689456D01*
X145928164Y-83687906D01*
X145937071Y-83512700D01*
X146162929Y-83512700D01*
X146171835Y-83687906D01*
%TA.AperFunction,Conductor*%
D20*
G36*
X146171835Y-83687906D02*
G01*
X146172010Y-83689456D01*
X146198983Y-83843163D01*
X146199431Y-83844946D01*
X146241477Y-83972422D01*
X146242198Y-83974162D01*
X146296938Y-84082726D01*
X146297731Y-84084083D01*
X146362784Y-84181059D01*
X146363352Y-84181840D01*
X146436338Y-84274549D01*
X146436497Y-84274747D01*
X146514929Y-84370378D01*
X146596238Y-84475992D01*
X146678192Y-84598998D01*
X146754402Y-84739187D01*
X146050000Y-85471678D01*
X145345598Y-84739187D01*
X145421807Y-84598998D01*
X145503761Y-84475992D01*
X145585070Y-84370378D01*
X145663502Y-84274747D01*
X145663661Y-84274549D01*
X145736647Y-84181840D01*
X145737215Y-84181059D01*
X145802268Y-84084083D01*
X145803061Y-84082726D01*
X145857801Y-83974162D01*
X145858522Y-83972422D01*
X145900568Y-83844946D01*
X145901016Y-83843163D01*
X145927989Y-83689456D01*
X145928164Y-83687906D01*
X145937071Y-83512700D01*
X146162929Y-83512700D01*
X146171835Y-83687906D01*
G37*
%TD.AperFunction*%
%TD*%
D21*
%TO.N,Y*%
X147200549Y-52546048D02*
X147201690Y-52546971D01*
X147308672Y-52623666D01*
X147310148Y-52624578D01*
X147410324Y-52677405D01*
X147411967Y-52678128D01*
X147508307Y-52712620D01*
X147509775Y-52713047D01*
X147605253Y-52734736D01*
X147606210Y-52734916D01*
X147703796Y-52749334D01*
X147704095Y-52749374D01*
X147806587Y-52762032D01*
X147916789Y-52778430D01*
X148037635Y-52804040D01*
X148164001Y-52841892D01*
X148180692Y-53695692D01*
X147326892Y-53679001D01*
X147289040Y-53552635D01*
X147263430Y-53431789D01*
X147247032Y-53321587D01*
X147234374Y-53219095D01*
X147234334Y-53218796D01*
X147219916Y-53121210D01*
X147219736Y-53120253D01*
X147198047Y-53024775D01*
X147197620Y-53023307D01*
X147163128Y-52926967D01*
X147162405Y-52925324D01*
X147109578Y-52825148D01*
X147108666Y-52823672D01*
X147031971Y-52716690D01*
X147031048Y-52715549D01*
X146933095Y-52607750D01*
X147092750Y-52448095D01*
X147200549Y-52546048D01*
%TA.AperFunction,Conductor*%
D20*
G36*
X147200549Y-52546048D02*
G01*
X147201690Y-52546971D01*
X147308672Y-52623666D01*
X147310148Y-52624578D01*
X147410324Y-52677405D01*
X147411967Y-52678128D01*
X147508307Y-52712620D01*
X147509775Y-52713047D01*
X147605253Y-52734736D01*
X147606210Y-52734916D01*
X147703796Y-52749334D01*
X147704095Y-52749374D01*
X147806587Y-52762032D01*
X147916789Y-52778430D01*
X148037635Y-52804040D01*
X148164001Y-52841892D01*
X148180692Y-53695692D01*
X147326892Y-53679001D01*
X147289040Y-53552635D01*
X147263430Y-53431789D01*
X147247032Y-53321587D01*
X147234374Y-53219095D01*
X147234334Y-53218796D01*
X147219916Y-53121210D01*
X147219736Y-53120253D01*
X147198047Y-53024775D01*
X147197620Y-53023307D01*
X147163128Y-52926967D01*
X147162405Y-52925324D01*
X147109578Y-52825148D01*
X147108666Y-52823672D01*
X147031971Y-52716690D01*
X147031048Y-52715549D01*
X146933095Y-52607750D01*
X147092750Y-52448095D01*
X147200549Y-52546048D01*
G37*
%TD.AperFunction*%
%TD*%
D21*
%TO.N,Y*%
X146754402Y-46070813D02*
X146678192Y-46211001D01*
X146596238Y-46334007D01*
X146514929Y-46439621D01*
X146436497Y-46535252D01*
X146436338Y-46535450D01*
X146363352Y-46628159D01*
X146362784Y-46628940D01*
X146297731Y-46725916D01*
X146296938Y-46727273D01*
X146242198Y-46835837D01*
X146241477Y-46837577D01*
X146199431Y-46965053D01*
X146198983Y-46966836D01*
X146172010Y-47120543D01*
X146171835Y-47122093D01*
X146162929Y-47297300D01*
X145937071Y-47297300D01*
X145928164Y-47122093D01*
X145927989Y-47120543D01*
X145901016Y-46966836D01*
X145900568Y-46965053D01*
X145858522Y-46837577D01*
X145857801Y-46835837D01*
X145803061Y-46727273D01*
X145802268Y-46725916D01*
X145737215Y-46628940D01*
X145736647Y-46628159D01*
X145663661Y-46535450D01*
X145663502Y-46535252D01*
X145585070Y-46439621D01*
X145503761Y-46334007D01*
X145421807Y-46211001D01*
X145345598Y-46070813D01*
X146050000Y-45338322D01*
X146754402Y-46070813D01*
%TA.AperFunction,Conductor*%
D20*
G36*
X146754402Y-46070813D02*
G01*
X146678192Y-46211001D01*
X146596238Y-46334007D01*
X146514929Y-46439621D01*
X146436497Y-46535252D01*
X146436338Y-46535450D01*
X146363352Y-46628159D01*
X146362784Y-46628940D01*
X146297731Y-46725916D01*
X146296938Y-46727273D01*
X146242198Y-46835837D01*
X146241477Y-46837577D01*
X146199431Y-46965053D01*
X146198983Y-46966836D01*
X146172010Y-47120543D01*
X146171835Y-47122093D01*
X146162929Y-47297300D01*
X145937071Y-47297300D01*
X145928164Y-47122093D01*
X145927989Y-47120543D01*
X145901016Y-46966836D01*
X145900568Y-46965053D01*
X145858522Y-46837577D01*
X145857801Y-46835837D01*
X145803061Y-46727273D01*
X145802268Y-46725916D01*
X145737215Y-46628940D01*
X145736647Y-46628159D01*
X145663661Y-46535450D01*
X145663502Y-46535252D01*
X145585070Y-46439621D01*
X145503761Y-46334007D01*
X145421807Y-46211001D01*
X145345598Y-46070813D01*
X146050000Y-45338322D01*
X146754402Y-46070813D01*
G37*
%TD.AperFunction*%
%TD*%
D21*
%TO.N,Z*%
X136594402Y-46070813D02*
X136518192Y-46211001D01*
X136436238Y-46334007D01*
X136354929Y-46439621D01*
X136276497Y-46535252D01*
X136276338Y-46535450D01*
X136203352Y-46628159D01*
X136202784Y-46628940D01*
X136137731Y-46725916D01*
X136136938Y-46727273D01*
X136082198Y-46835837D01*
X136081477Y-46837577D01*
X136039431Y-46965053D01*
X136038983Y-46966836D01*
X136012010Y-47120543D01*
X136011835Y-47122093D01*
X136002929Y-47297300D01*
X135777071Y-47297300D01*
X135768164Y-47122093D01*
X135767989Y-47120543D01*
X135741016Y-46966836D01*
X135740568Y-46965053D01*
X135698522Y-46837577D01*
X135697801Y-46835837D01*
X135643061Y-46727273D01*
X135642268Y-46725916D01*
X135577215Y-46628940D01*
X135576647Y-46628159D01*
X135503661Y-46535450D01*
X135503502Y-46535252D01*
X135425070Y-46439621D01*
X135343761Y-46334007D01*
X135261807Y-46211001D01*
X135185598Y-46070813D01*
X135890000Y-45338322D01*
X136594402Y-46070813D01*
%TA.AperFunction,Conductor*%
D20*
G36*
X136594402Y-46070813D02*
G01*
X136518192Y-46211001D01*
X136436238Y-46334007D01*
X136354929Y-46439621D01*
X136276497Y-46535252D01*
X136276338Y-46535450D01*
X136203352Y-46628159D01*
X136202784Y-46628940D01*
X136137731Y-46725916D01*
X136136938Y-46727273D01*
X136082198Y-46835837D01*
X136081477Y-46837577D01*
X136039431Y-46965053D01*
X136038983Y-46966836D01*
X136012010Y-47120543D01*
X136011835Y-47122093D01*
X136002929Y-47297300D01*
X135777071Y-47297300D01*
X135768164Y-47122093D01*
X135767989Y-47120543D01*
X135741016Y-46966836D01*
X135740568Y-46965053D01*
X135698522Y-46837577D01*
X135697801Y-46835837D01*
X135643061Y-46727273D01*
X135642268Y-46725916D01*
X135577215Y-46628940D01*
X135576647Y-46628159D01*
X135503661Y-46535450D01*
X135503502Y-46535252D01*
X135425070Y-46439621D01*
X135343761Y-46334007D01*
X135261807Y-46211001D01*
X135185598Y-46070813D01*
X135890000Y-45338322D01*
X136594402Y-46070813D01*
G37*
%TD.AperFunction*%
%TD*%
D21*
%TO.N,Z*%
X147200549Y-58546048D02*
X147201690Y-58546971D01*
X147308672Y-58623666D01*
X147310148Y-58624578D01*
X147410324Y-58677405D01*
X147411967Y-58678128D01*
X147508307Y-58712620D01*
X147509775Y-58713047D01*
X147605253Y-58734736D01*
X147606210Y-58734916D01*
X147703796Y-58749334D01*
X147704095Y-58749374D01*
X147806587Y-58762032D01*
X147916789Y-58778430D01*
X148037635Y-58804040D01*
X148164001Y-58841892D01*
X148180692Y-59695692D01*
X147326892Y-59679001D01*
X147289040Y-59552635D01*
X147263430Y-59431789D01*
X147247032Y-59321587D01*
X147234374Y-59219095D01*
X147234334Y-59218796D01*
X147219916Y-59121210D01*
X147219736Y-59120253D01*
X147198047Y-59024775D01*
X147197620Y-59023307D01*
X147163128Y-58926967D01*
X147162405Y-58925324D01*
X147109578Y-58825148D01*
X147108666Y-58823672D01*
X147031971Y-58716690D01*
X147031048Y-58715549D01*
X146933095Y-58607750D01*
X147092750Y-58448095D01*
X147200549Y-58546048D01*
%TA.AperFunction,Conductor*%
D20*
G36*
X147200549Y-58546048D02*
G01*
X147201690Y-58546971D01*
X147308672Y-58623666D01*
X147310148Y-58624578D01*
X147410324Y-58677405D01*
X147411967Y-58678128D01*
X147508307Y-58712620D01*
X147509775Y-58713047D01*
X147605253Y-58734736D01*
X147606210Y-58734916D01*
X147703796Y-58749334D01*
X147704095Y-58749374D01*
X147806587Y-58762032D01*
X147916789Y-58778430D01*
X148037635Y-58804040D01*
X148164001Y-58841892D01*
X148180692Y-59695692D01*
X147326892Y-59679001D01*
X147289040Y-59552635D01*
X147263430Y-59431789D01*
X147247032Y-59321587D01*
X147234374Y-59219095D01*
X147234334Y-59218796D01*
X147219916Y-59121210D01*
X147219736Y-59120253D01*
X147198047Y-59024775D01*
X147197620Y-59023307D01*
X147163128Y-58926967D01*
X147162405Y-58925324D01*
X147109578Y-58825148D01*
X147108666Y-58823672D01*
X147031971Y-58716690D01*
X147031048Y-58715549D01*
X146933095Y-58607750D01*
X147092750Y-58448095D01*
X147200549Y-58546048D01*
G37*
%TD.AperFunction*%
%TD*%
D21*
%TO.N,START*%
X148164001Y-70098108D02*
X148037635Y-70135959D01*
X147916789Y-70161569D01*
X147806587Y-70177967D01*
X147704095Y-70190625D01*
X147703796Y-70190665D01*
X147606210Y-70205083D01*
X147605253Y-70205263D01*
X147509775Y-70226952D01*
X147508307Y-70227379D01*
X147411967Y-70261871D01*
X147410324Y-70262594D01*
X147310148Y-70315421D01*
X147308672Y-70316333D01*
X147201690Y-70393028D01*
X147200549Y-70393951D01*
X147092750Y-70491905D01*
X146933095Y-70332250D01*
X147031048Y-70224450D01*
X147031971Y-70223309D01*
X147108666Y-70116327D01*
X147109578Y-70114851D01*
X147162405Y-70014675D01*
X147163128Y-70013032D01*
X147197620Y-69916692D01*
X147198047Y-69915224D01*
X147219736Y-69819746D01*
X147219916Y-69818789D01*
X147234334Y-69721203D01*
X147234374Y-69720904D01*
X147247032Y-69618412D01*
X147263430Y-69508210D01*
X147289040Y-69387364D01*
X147326892Y-69260999D01*
X148180692Y-69244308D01*
X148164001Y-70098108D01*
%TA.AperFunction,Conductor*%
D20*
G36*
X148164001Y-70098108D02*
G01*
X148037635Y-70135959D01*
X147916789Y-70161569D01*
X147806587Y-70177967D01*
X147704095Y-70190625D01*
X147703796Y-70190665D01*
X147606210Y-70205083D01*
X147605253Y-70205263D01*
X147509775Y-70226952D01*
X147508307Y-70227379D01*
X147411967Y-70261871D01*
X147410324Y-70262594D01*
X147310148Y-70315421D01*
X147308672Y-70316333D01*
X147201690Y-70393028D01*
X147200549Y-70393951D01*
X147092750Y-70491905D01*
X146933095Y-70332250D01*
X147031048Y-70224450D01*
X147031971Y-70223309D01*
X147108666Y-70116327D01*
X147109578Y-70114851D01*
X147162405Y-70014675D01*
X147163128Y-70013032D01*
X147197620Y-69916692D01*
X147198047Y-69915224D01*
X147219736Y-69819746D01*
X147219916Y-69818789D01*
X147234334Y-69721203D01*
X147234374Y-69720904D01*
X147247032Y-69618412D01*
X147263430Y-69508210D01*
X147289040Y-69387364D01*
X147326892Y-69260999D01*
X148180692Y-69244308D01*
X148164001Y-70098108D01*
G37*
%TD.AperFunction*%
%TD*%
D21*
%TO.N,START*%
X133834881Y-83750527D02*
X133755885Y-83845733D01*
X133754227Y-83848312D01*
X133706724Y-83946494D01*
X133705864Y-83948830D01*
X133705598Y-83950131D01*
X133691411Y-84044193D01*
X133691283Y-84046679D01*
X133691406Y-84047944D01*
X133704969Y-84139697D01*
X133705707Y-84142472D01*
X133741455Y-84233728D01*
X133742226Y-84235349D01*
X133794594Y-84327917D01*
X133795062Y-84328680D01*
X133858483Y-84424373D01*
X133858590Y-84424533D01*
X133927397Y-84525011D01*
X133995878Y-84631837D01*
X134054395Y-84739195D01*
X133352477Y-85469103D01*
X132800192Y-84526294D01*
X132904576Y-84420322D01*
X132904721Y-84420172D01*
X132997912Y-84322390D01*
X132998056Y-84322237D01*
X133078140Y-84235388D01*
X133078255Y-84235261D01*
X133150147Y-84155153D01*
X133150207Y-84155086D01*
X133218810Y-84077544D01*
X133289021Y-83998398D01*
X133365734Y-83913481D01*
X133453858Y-83818603D01*
X133558439Y-83709435D01*
X133675329Y-83590975D01*
X133834881Y-83750527D01*
%TA.AperFunction,Conductor*%
D20*
G36*
X133834881Y-83750527D02*
G01*
X133755885Y-83845733D01*
X133754227Y-83848312D01*
X133706724Y-83946494D01*
X133705864Y-83948830D01*
X133705598Y-83950131D01*
X133691411Y-84044193D01*
X133691283Y-84046679D01*
X133691406Y-84047944D01*
X133704969Y-84139697D01*
X133705707Y-84142472D01*
X133741455Y-84233728D01*
X133742226Y-84235349D01*
X133794594Y-84327917D01*
X133795062Y-84328680D01*
X133858483Y-84424373D01*
X133858590Y-84424533D01*
X133927397Y-84525011D01*
X133995878Y-84631837D01*
X134054395Y-84739195D01*
X133352477Y-85469103D01*
X132800192Y-84526294D01*
X132904576Y-84420322D01*
X132904721Y-84420172D01*
X132997912Y-84322390D01*
X132998056Y-84322237D01*
X133078140Y-84235388D01*
X133078255Y-84235261D01*
X133150147Y-84155153D01*
X133150207Y-84155086D01*
X133218810Y-84077544D01*
X133289021Y-83998398D01*
X133365734Y-83913481D01*
X133453858Y-83818603D01*
X133558439Y-83709435D01*
X133675329Y-83590975D01*
X133834881Y-83750527D01*
G37*
%TD.AperFunction*%
%TD*%
D21*
%TO.N,A*%
X148164001Y-76098108D02*
X148037635Y-76135959D01*
X147916789Y-76161569D01*
X147806587Y-76177967D01*
X147704095Y-76190625D01*
X147703796Y-76190665D01*
X147606210Y-76205083D01*
X147605253Y-76205263D01*
X147509775Y-76226952D01*
X147508307Y-76227379D01*
X147411967Y-76261871D01*
X147410324Y-76262594D01*
X147310148Y-76315421D01*
X147308672Y-76316333D01*
X147201690Y-76393028D01*
X147200549Y-76393951D01*
X147092750Y-76491905D01*
X146933095Y-76332250D01*
X147031048Y-76224450D01*
X147031971Y-76223309D01*
X147108666Y-76116327D01*
X147109578Y-76114851D01*
X147162405Y-76014675D01*
X147163128Y-76013032D01*
X147197620Y-75916692D01*
X147198047Y-75915224D01*
X147219736Y-75819746D01*
X147219916Y-75818789D01*
X147234334Y-75721203D01*
X147234374Y-75720904D01*
X147247032Y-75618412D01*
X147263430Y-75508210D01*
X147289040Y-75387364D01*
X147326892Y-75260999D01*
X148180692Y-75244308D01*
X148164001Y-76098108D01*
%TA.AperFunction,Conductor*%
D20*
G36*
X148164001Y-76098108D02*
G01*
X148037635Y-76135959D01*
X147916789Y-76161569D01*
X147806587Y-76177967D01*
X147704095Y-76190625D01*
X147703796Y-76190665D01*
X147606210Y-76205083D01*
X147605253Y-76205263D01*
X147509775Y-76226952D01*
X147508307Y-76227379D01*
X147411967Y-76261871D01*
X147410324Y-76262594D01*
X147310148Y-76315421D01*
X147308672Y-76316333D01*
X147201690Y-76393028D01*
X147200549Y-76393951D01*
X147092750Y-76491905D01*
X146933095Y-76332250D01*
X147031048Y-76224450D01*
X147031971Y-76223309D01*
X147108666Y-76116327D01*
X147109578Y-76114851D01*
X147162405Y-76014675D01*
X147163128Y-76013032D01*
X147197620Y-75916692D01*
X147198047Y-75915224D01*
X147219736Y-75819746D01*
X147219916Y-75818789D01*
X147234334Y-75721203D01*
X147234374Y-75720904D01*
X147247032Y-75618412D01*
X147263430Y-75508210D01*
X147289040Y-75387364D01*
X147326892Y-75260999D01*
X148180692Y-75244308D01*
X148164001Y-76098108D01*
G37*
%TD.AperFunction*%
%TD*%
D21*
%TO.N,A*%
X143631835Y-83687906D02*
X143632010Y-83689456D01*
X143658983Y-83843163D01*
X143659431Y-83844946D01*
X143701477Y-83972422D01*
X143702198Y-83974162D01*
X143756938Y-84082726D01*
X143757731Y-84084083D01*
X143822784Y-84181059D01*
X143823352Y-84181840D01*
X143896338Y-84274549D01*
X143896497Y-84274747D01*
X143974929Y-84370378D01*
X144056238Y-84475992D01*
X144138192Y-84598998D01*
X144214402Y-84739187D01*
X143510000Y-85471678D01*
X142805598Y-84739187D01*
X142881807Y-84598998D01*
X142963761Y-84475992D01*
X143045070Y-84370378D01*
X143123502Y-84274747D01*
X143123661Y-84274549D01*
X143196647Y-84181840D01*
X143197215Y-84181059D01*
X143262268Y-84084083D01*
X143263061Y-84082726D01*
X143317801Y-83974162D01*
X143318522Y-83972422D01*
X143360568Y-83844946D01*
X143361016Y-83843163D01*
X143387989Y-83689456D01*
X143388164Y-83687906D01*
X143397071Y-83512700D01*
X143622929Y-83512700D01*
X143631835Y-83687906D01*
%TA.AperFunction,Conductor*%
D20*
G36*
X143631835Y-83687906D02*
G01*
X143632010Y-83689456D01*
X143658983Y-83843163D01*
X143659431Y-83844946D01*
X143701477Y-83972422D01*
X143702198Y-83974162D01*
X143756938Y-84082726D01*
X143757731Y-84084083D01*
X143822784Y-84181059D01*
X143823352Y-84181840D01*
X143896338Y-84274549D01*
X143896497Y-84274747D01*
X143974929Y-84370378D01*
X144056238Y-84475992D01*
X144138192Y-84598998D01*
X144214402Y-84739187D01*
X143510000Y-85471678D01*
X142805598Y-84739187D01*
X142881807Y-84598998D01*
X142963761Y-84475992D01*
X143045070Y-84370378D01*
X143123502Y-84274747D01*
X143123661Y-84274549D01*
X143196647Y-84181840D01*
X143197215Y-84181059D01*
X143262268Y-84084083D01*
X143263061Y-84082726D01*
X143317801Y-83974162D01*
X143318522Y-83972422D01*
X143360568Y-83844946D01*
X143361016Y-83843163D01*
X143387989Y-83689456D01*
X143388164Y-83687906D01*
X143397071Y-83512700D01*
X143622929Y-83512700D01*
X143631835Y-83687906D01*
G37*
%TD.AperFunction*%
%TD*%
D21*
%TO.N,B*%
X134054287Y-46070693D02*
X133990117Y-46184121D01*
X133911759Y-46295498D01*
X133830127Y-46399514D01*
X133752235Y-46498034D01*
X133751827Y-46498580D01*
X133684666Y-46593581D01*
X133683812Y-46594970D01*
X133634252Y-46688579D01*
X133633203Y-46691255D01*
X133608089Y-46785639D01*
X133607688Y-46788096D01*
X133607687Y-46789709D01*
X133613861Y-46887031D01*
X133614262Y-46889488D01*
X133614880Y-46891269D01*
X133659185Y-46993694D01*
X133660991Y-46996669D01*
X133743035Y-47097471D01*
X133583541Y-47256965D01*
X133471784Y-47140280D01*
X133375426Y-47029515D01*
X133297538Y-46930402D01*
X133232402Y-46839469D01*
X133174378Y-46753323D01*
X133117863Y-46668643D01*
X133117701Y-46668406D01*
X133057115Y-46581924D01*
X133056790Y-46581481D01*
X132986523Y-46489889D01*
X132986098Y-46489364D01*
X132900511Y-46389307D01*
X132900057Y-46388804D01*
X132800107Y-46283852D01*
X133352477Y-45340897D01*
X134054287Y-46070693D01*
%TA.AperFunction,Conductor*%
D20*
G36*
X134054287Y-46070693D02*
G01*
X133990117Y-46184121D01*
X133911759Y-46295498D01*
X133830127Y-46399514D01*
X133752235Y-46498034D01*
X133751827Y-46498580D01*
X133684666Y-46593581D01*
X133683812Y-46594970D01*
X133634252Y-46688579D01*
X133633203Y-46691255D01*
X133608089Y-46785639D01*
X133607688Y-46788096D01*
X133607687Y-46789709D01*
X133613861Y-46887031D01*
X133614262Y-46889488D01*
X133614880Y-46891269D01*
X133659185Y-46993694D01*
X133660991Y-46996669D01*
X133743035Y-47097471D01*
X133583541Y-47256965D01*
X133471784Y-47140280D01*
X133375426Y-47029515D01*
X133297538Y-46930402D01*
X133232402Y-46839469D01*
X133174378Y-46753323D01*
X133117863Y-46668643D01*
X133117701Y-46668406D01*
X133057115Y-46581924D01*
X133056790Y-46581481D01*
X132986523Y-46489889D01*
X132986098Y-46489364D01*
X132900511Y-46389307D01*
X132900057Y-46388804D01*
X132800107Y-46283852D01*
X133352477Y-45340897D01*
X134054287Y-46070693D01*
G37*
%TD.AperFunction*%
%TD*%
D21*
%TO.N,B*%
X147200549Y-60546048D02*
X147201690Y-60546971D01*
X147308672Y-60623666D01*
X147310148Y-60624578D01*
X147410324Y-60677405D01*
X147411967Y-60678128D01*
X147508307Y-60712620D01*
X147509775Y-60713047D01*
X147605253Y-60734736D01*
X147606210Y-60734916D01*
X147703796Y-60749334D01*
X147704095Y-60749374D01*
X147806587Y-60762032D01*
X147916789Y-60778430D01*
X148037635Y-60804040D01*
X148164001Y-60841892D01*
X148180692Y-61695692D01*
X147326892Y-61679001D01*
X147289040Y-61552635D01*
X147263430Y-61431789D01*
X147247032Y-61321587D01*
X147234374Y-61219095D01*
X147234334Y-61218796D01*
X147219916Y-61121210D01*
X147219736Y-61120253D01*
X147198047Y-61024775D01*
X147197620Y-61023307D01*
X147163128Y-60926967D01*
X147162405Y-60925324D01*
X147109578Y-60825148D01*
X147108666Y-60823672D01*
X147031971Y-60716690D01*
X147031048Y-60715549D01*
X146933095Y-60607750D01*
X147092750Y-60448095D01*
X147200549Y-60546048D01*
%TA.AperFunction,Conductor*%
D20*
G36*
X147200549Y-60546048D02*
G01*
X147201690Y-60546971D01*
X147308672Y-60623666D01*
X147310148Y-60624578D01*
X147410324Y-60677405D01*
X147411967Y-60678128D01*
X147508307Y-60712620D01*
X147509775Y-60713047D01*
X147605253Y-60734736D01*
X147606210Y-60734916D01*
X147703796Y-60749334D01*
X147704095Y-60749374D01*
X147806587Y-60762032D01*
X147916789Y-60778430D01*
X148037635Y-60804040D01*
X148164001Y-60841892D01*
X148180692Y-61695692D01*
X147326892Y-61679001D01*
X147289040Y-61552635D01*
X147263430Y-61431789D01*
X147247032Y-61321587D01*
X147234374Y-61219095D01*
X147234334Y-61218796D01*
X147219916Y-61121210D01*
X147219736Y-61120253D01*
X147198047Y-61024775D01*
X147197620Y-61023307D01*
X147163128Y-60926967D01*
X147162405Y-60925324D01*
X147109578Y-60825148D01*
X147108666Y-60823672D01*
X147031971Y-60716690D01*
X147031048Y-60715549D01*
X146933095Y-60607750D01*
X147092750Y-60448095D01*
X147200549Y-60546048D01*
G37*
%TD.AperFunction*%
%TD*%
D21*
%TO.N,C*%
X144214402Y-46070813D02*
X144138192Y-46211001D01*
X144056238Y-46334007D01*
X143974929Y-46439621D01*
X143896497Y-46535252D01*
X143896338Y-46535450D01*
X143823352Y-46628159D01*
X143822784Y-46628940D01*
X143757731Y-46725916D01*
X143756938Y-46727273D01*
X143702198Y-46835837D01*
X143701477Y-46837577D01*
X143659431Y-46965053D01*
X143658983Y-46966836D01*
X143632010Y-47120543D01*
X143631835Y-47122093D01*
X143622929Y-47297300D01*
X143397071Y-47297300D01*
X143388164Y-47122093D01*
X143387989Y-47120543D01*
X143361016Y-46966836D01*
X143360568Y-46965053D01*
X143318522Y-46837577D01*
X143317801Y-46835837D01*
X143263061Y-46727273D01*
X143262268Y-46725916D01*
X143197215Y-46628940D01*
X143196647Y-46628159D01*
X143123661Y-46535450D01*
X143123502Y-46535252D01*
X143045070Y-46439621D01*
X142963761Y-46334007D01*
X142881807Y-46211001D01*
X142805598Y-46070813D01*
X143510000Y-45338322D01*
X144214402Y-46070813D01*
%TA.AperFunction,Conductor*%
D20*
G36*
X144214402Y-46070813D02*
G01*
X144138192Y-46211001D01*
X144056238Y-46334007D01*
X143974929Y-46439621D01*
X143896497Y-46535252D01*
X143896338Y-46535450D01*
X143823352Y-46628159D01*
X143822784Y-46628940D01*
X143757731Y-46725916D01*
X143756938Y-46727273D01*
X143702198Y-46835837D01*
X143701477Y-46837577D01*
X143659431Y-46965053D01*
X143658983Y-46966836D01*
X143632010Y-47120543D01*
X143631835Y-47122093D01*
X143622929Y-47297300D01*
X143397071Y-47297300D01*
X143388164Y-47122093D01*
X143387989Y-47120543D01*
X143361016Y-46966836D01*
X143360568Y-46965053D01*
X143318522Y-46837577D01*
X143317801Y-46835837D01*
X143263061Y-46727273D01*
X143262268Y-46725916D01*
X143197215Y-46628940D01*
X143196647Y-46628159D01*
X143123661Y-46535450D01*
X143123502Y-46535252D01*
X143045070Y-46439621D01*
X142963761Y-46334007D01*
X142881807Y-46211001D01*
X142805598Y-46070813D01*
X143510000Y-45338322D01*
X144214402Y-46070813D01*
G37*
%TD.AperFunction*%
%TD*%
D21*
%TO.N,C*%
X147200549Y-54546048D02*
X147201690Y-54546971D01*
X147308672Y-54623666D01*
X147310148Y-54624578D01*
X147410324Y-54677405D01*
X147411967Y-54678128D01*
X147508307Y-54712620D01*
X147509775Y-54713047D01*
X147605253Y-54734736D01*
X147606210Y-54734916D01*
X147703796Y-54749334D01*
X147704095Y-54749374D01*
X147806587Y-54762032D01*
X147916789Y-54778430D01*
X148037635Y-54804040D01*
X148164001Y-54841892D01*
X148180692Y-55695692D01*
X147326892Y-55679001D01*
X147289040Y-55552635D01*
X147263430Y-55431789D01*
X147247032Y-55321587D01*
X147234374Y-55219095D01*
X147234334Y-55218796D01*
X147219916Y-55121210D01*
X147219736Y-55120253D01*
X147198047Y-55024775D01*
X147197620Y-55023307D01*
X147163128Y-54926967D01*
X147162405Y-54925324D01*
X147109578Y-54825148D01*
X147108666Y-54823672D01*
X147031971Y-54716690D01*
X147031048Y-54715549D01*
X146933095Y-54607750D01*
X147092750Y-54448095D01*
X147200549Y-54546048D01*
%TA.AperFunction,Conductor*%
D20*
G36*
X147200549Y-54546048D02*
G01*
X147201690Y-54546971D01*
X147308672Y-54623666D01*
X147310148Y-54624578D01*
X147410324Y-54677405D01*
X147411967Y-54678128D01*
X147508307Y-54712620D01*
X147509775Y-54713047D01*
X147605253Y-54734736D01*
X147606210Y-54734916D01*
X147703796Y-54749334D01*
X147704095Y-54749374D01*
X147806587Y-54762032D01*
X147916789Y-54778430D01*
X148037635Y-54804040D01*
X148164001Y-54841892D01*
X148180692Y-55695692D01*
X147326892Y-55679001D01*
X147289040Y-55552635D01*
X147263430Y-55431789D01*
X147247032Y-55321587D01*
X147234374Y-55219095D01*
X147234334Y-55218796D01*
X147219916Y-55121210D01*
X147219736Y-55120253D01*
X147198047Y-55024775D01*
X147197620Y-55023307D01*
X147163128Y-54926967D01*
X147162405Y-54925324D01*
X147109578Y-54825148D01*
X147108666Y-54823672D01*
X147031971Y-54716690D01*
X147031048Y-54715549D01*
X146933095Y-54607750D01*
X147092750Y-54448095D01*
X147200549Y-54546048D01*
G37*
%TD.AperFunction*%
%TD*%
D21*
%TO.N,R*%
X135993283Y-83592603D02*
X135898857Y-83713462D01*
X135897524Y-83715565D01*
X135896738Y-83717509D01*
X135860488Y-83834041D01*
X135859985Y-83836479D01*
X135860088Y-83839904D01*
X135877962Y-83946968D01*
X135878611Y-83949372D01*
X135879611Y-83951431D01*
X135940646Y-84052742D01*
X135942266Y-84054882D01*
X136035494Y-84154157D01*
X136036351Y-84154988D01*
X136150807Y-84255939D01*
X136150968Y-84256078D01*
X136275477Y-84362242D01*
X136398811Y-84477059D01*
X136510047Y-84604063D01*
X136594011Y-84739594D01*
X135892477Y-85469103D01*
X135339828Y-84525671D01*
X135429044Y-84420675D01*
X135430360Y-84418809D01*
X135492915Y-84310623D01*
X135493853Y-84308615D01*
X135532421Y-84202801D01*
X135532891Y-84201186D01*
X135555978Y-84096444D01*
X135556129Y-84095637D01*
X135572235Y-83990719D01*
X135589782Y-83884826D01*
X135617125Y-83776854D01*
X135662634Y-83665163D01*
X135734843Y-83548000D01*
X135834099Y-83433419D01*
X135993283Y-83592603D01*
%TA.AperFunction,Conductor*%
D20*
G36*
X135993283Y-83592603D02*
G01*
X135898857Y-83713462D01*
X135897524Y-83715565D01*
X135896738Y-83717509D01*
X135860488Y-83834041D01*
X135859985Y-83836479D01*
X135860088Y-83839904D01*
X135877962Y-83946968D01*
X135878611Y-83949372D01*
X135879611Y-83951431D01*
X135940646Y-84052742D01*
X135942266Y-84054882D01*
X136035494Y-84154157D01*
X136036351Y-84154988D01*
X136150807Y-84255939D01*
X136150968Y-84256078D01*
X136275477Y-84362242D01*
X136398811Y-84477059D01*
X136510047Y-84604063D01*
X136594011Y-84739594D01*
X135892477Y-85469103D01*
X135339828Y-84525671D01*
X135429044Y-84420675D01*
X135430360Y-84418809D01*
X135492915Y-84310623D01*
X135493853Y-84308615D01*
X135532421Y-84202801D01*
X135532891Y-84201186D01*
X135555978Y-84096444D01*
X135556129Y-84095637D01*
X135572235Y-83990719D01*
X135589782Y-83884826D01*
X135617125Y-83776854D01*
X135662634Y-83665163D01*
X135734843Y-83548000D01*
X135834099Y-83433419D01*
X135993283Y-83592603D01*
G37*
%TD.AperFunction*%
%TD*%
D21*
%TO.N,R*%
X148164001Y-72098108D02*
X148037635Y-72135959D01*
X147916789Y-72161569D01*
X147806587Y-72177967D01*
X147704095Y-72190625D01*
X147703796Y-72190665D01*
X147606210Y-72205083D01*
X147605253Y-72205263D01*
X147509775Y-72226952D01*
X147508307Y-72227379D01*
X147411967Y-72261871D01*
X147410324Y-72262594D01*
X147310148Y-72315421D01*
X147308672Y-72316333D01*
X147201690Y-72393028D01*
X147200549Y-72393951D01*
X147092750Y-72491905D01*
X146933095Y-72332250D01*
X147031048Y-72224450D01*
X147031971Y-72223309D01*
X147108666Y-72116327D01*
X147109578Y-72114851D01*
X147162405Y-72014675D01*
X147163128Y-72013032D01*
X147197620Y-71916692D01*
X147198047Y-71915224D01*
X147219736Y-71819746D01*
X147219916Y-71818789D01*
X147234334Y-71721203D01*
X147234374Y-71720904D01*
X147247032Y-71618412D01*
X147263430Y-71508210D01*
X147289040Y-71387364D01*
X147326892Y-71260999D01*
X148180692Y-71244308D01*
X148164001Y-72098108D01*
%TA.AperFunction,Conductor*%
D20*
G36*
X148164001Y-72098108D02*
G01*
X148037635Y-72135959D01*
X147916789Y-72161569D01*
X147806587Y-72177967D01*
X147704095Y-72190625D01*
X147703796Y-72190665D01*
X147606210Y-72205083D01*
X147605253Y-72205263D01*
X147509775Y-72226952D01*
X147508307Y-72227379D01*
X147411967Y-72261871D01*
X147410324Y-72262594D01*
X147310148Y-72315421D01*
X147308672Y-72316333D01*
X147201690Y-72393028D01*
X147200549Y-72393951D01*
X147092750Y-72491905D01*
X146933095Y-72332250D01*
X147031048Y-72224450D01*
X147031971Y-72223309D01*
X147108666Y-72116327D01*
X147109578Y-72114851D01*
X147162405Y-72014675D01*
X147163128Y-72013032D01*
X147197620Y-71916692D01*
X147198047Y-71915224D01*
X147219736Y-71819746D01*
X147219916Y-71818789D01*
X147234334Y-71721203D01*
X147234374Y-71720904D01*
X147247032Y-71618412D01*
X147263430Y-71508210D01*
X147289040Y-71387364D01*
X147326892Y-71260999D01*
X148180692Y-71244308D01*
X148164001Y-72098108D01*
G37*
%TD.AperFunction*%
%TD*%
D21*
%TO.N,L*%
X128574707Y-83675978D02*
X128489283Y-83782552D01*
X128487924Y-83784638D01*
X128487360Y-83785883D01*
X128445801Y-83892505D01*
X128445129Y-83894902D01*
X128444935Y-83897286D01*
X128446267Y-83997655D01*
X128446544Y-84000129D01*
X128447070Y-84001932D01*
X128483209Y-84098623D01*
X128484494Y-84101155D01*
X128547351Y-84196742D01*
X128548236Y-84197930D01*
X128629726Y-84294990D01*
X128630060Y-84295373D01*
X128722002Y-84396378D01*
X128816144Y-84503706D01*
X128904271Y-84619660D01*
X128974193Y-84739404D01*
X128272477Y-85469103D01*
X127720023Y-84526004D01*
X127816162Y-84421581D01*
X127816902Y-84420701D01*
X127895308Y-84318323D01*
X127895960Y-84317388D01*
X127956685Y-84221338D01*
X127957146Y-84220547D01*
X128006606Y-84128191D01*
X128006820Y-84127771D01*
X128051394Y-84036558D01*
X128097436Y-83943976D01*
X128151228Y-83847586D01*
X128219246Y-83744526D01*
X128307985Y-83631990D01*
X128415290Y-83516561D01*
X128574707Y-83675978D01*
%TA.AperFunction,Conductor*%
D20*
G36*
X128574707Y-83675978D02*
G01*
X128489283Y-83782552D01*
X128487924Y-83784638D01*
X128487360Y-83785883D01*
X128445801Y-83892505D01*
X128445129Y-83894902D01*
X128444935Y-83897286D01*
X128446267Y-83997655D01*
X128446544Y-84000129D01*
X128447070Y-84001932D01*
X128483209Y-84098623D01*
X128484494Y-84101155D01*
X128547351Y-84196742D01*
X128548236Y-84197930D01*
X128629726Y-84294990D01*
X128630060Y-84295373D01*
X128722002Y-84396378D01*
X128816144Y-84503706D01*
X128904271Y-84619660D01*
X128974193Y-84739404D01*
X128272477Y-85469103D01*
X127720023Y-84526004D01*
X127816162Y-84421581D01*
X127816902Y-84420701D01*
X127895308Y-84318323D01*
X127895960Y-84317388D01*
X127956685Y-84221338D01*
X127957146Y-84220547D01*
X128006606Y-84128191D01*
X128006820Y-84127771D01*
X128051394Y-84036558D01*
X128097436Y-83943976D01*
X128151228Y-83847586D01*
X128219246Y-83744526D01*
X128307985Y-83631990D01*
X128415290Y-83516561D01*
X128574707Y-83675978D01*
G37*
%TD.AperFunction*%
%TD*%
D21*
%TO.N,L*%
X148271603Y-65472477D02*
X147659084Y-66061506D01*
X147547095Y-65992044D01*
X147440824Y-65898792D01*
X147344506Y-65795156D01*
X147255287Y-65690406D01*
X147255146Y-65690243D01*
X147170181Y-65593849D01*
X147169351Y-65592992D01*
X147085734Y-65514420D01*
X147083598Y-65512801D01*
X146998239Y-65461296D01*
X146995992Y-65460225D01*
X146993787Y-65459646D01*
X146903596Y-65444456D01*
X146901112Y-65444286D01*
X146897732Y-65444848D01*
X146799618Y-65475219D01*
X146797323Y-65476185D01*
X146795559Y-65477340D01*
X146695285Y-65555609D01*
X146536159Y-65396483D01*
X146632503Y-65314102D01*
X146733152Y-65254992D01*
X146829680Y-65219623D01*
X146923502Y-65200402D01*
X147015924Y-65189907D01*
X147107471Y-65180711D01*
X147108324Y-65180597D01*
X147199558Y-65165139D01*
X147201302Y-65164714D01*
X147293018Y-65135403D01*
X147295232Y-65134456D01*
X147388348Y-65083686D01*
X147390417Y-65082277D01*
X147478996Y-65008179D01*
X148271603Y-65472477D01*
%TA.AperFunction,Conductor*%
D20*
G36*
X148271603Y-65472477D02*
G01*
X147659084Y-66061506D01*
X147547095Y-65992044D01*
X147440824Y-65898792D01*
X147344506Y-65795156D01*
X147255287Y-65690406D01*
X147255146Y-65690243D01*
X147170181Y-65593849D01*
X147169351Y-65592992D01*
X147085734Y-65514420D01*
X147083598Y-65512801D01*
X146998239Y-65461296D01*
X146995992Y-65460225D01*
X146993787Y-65459646D01*
X146903596Y-65444456D01*
X146901112Y-65444286D01*
X146897732Y-65444848D01*
X146799618Y-65475219D01*
X146797323Y-65476185D01*
X146795559Y-65477340D01*
X146695285Y-65555609D01*
X146536159Y-65396483D01*
X146632503Y-65314102D01*
X146733152Y-65254992D01*
X146829680Y-65219623D01*
X146923502Y-65200402D01*
X147015924Y-65189907D01*
X147107471Y-65180711D01*
X147108324Y-65180597D01*
X147199558Y-65165139D01*
X147201302Y-65164714D01*
X147293018Y-65135403D01*
X147295232Y-65134456D01*
X147388348Y-65083686D01*
X147390417Y-65082277D01*
X147478996Y-65008179D01*
X148271603Y-65472477D01*
G37*
%TD.AperFunction*%
%TD*%
D22*
X132588000Y-53107000D03*
X125000000Y-41500000D03*
X142000000Y-41500000D03*
X129500000Y-79500000D03*
X133000000Y-80500000D03*
X141500000Y-87500000D03*
X130990000Y-66910000D03*
X130990000Y-65410000D03*
X132490000Y-65410000D03*
X132490000Y-66910000D03*
X130990000Y-63910000D03*
X132490000Y-63910000D03*
X133990000Y-63910000D03*
X133990000Y-65410000D03*
X133990000Y-66910000D03*
X130556000Y-52324000D03*
X123444000Y-54864000D03*
X119888000Y-61976000D03*
X132080000Y-76200000D03*
X123444000Y-74168000D03*
X131958847Y-55250847D03*
X151130000Y-43688000D03*
X117348000Y-86868000D03*
X151130000Y-86868000D03*
X117348000Y-43688000D03*
X117475000Y-75245000D03*
X117475000Y-72745000D03*
X117475000Y-70245000D03*
X117475000Y-67745000D03*
X117475000Y-65245000D03*
X117475000Y-62745000D03*
X117475000Y-60245000D03*
X117475000Y-57745000D03*
X117475000Y-55245000D03*
X149955000Y-53470000D03*
X147955000Y-53470000D03*
X149955000Y-55470000D03*
X147955000Y-55470000D03*
X149955000Y-57470000D03*
X147955000Y-57470000D03*
X149955000Y-59470000D03*
X147955000Y-59470000D03*
X149955000Y-61470000D03*
X147955000Y-61470000D03*
X149955000Y-63470000D03*
X147955000Y-63470000D03*
X149955000Y-65470000D03*
X147955000Y-65470000D03*
X149955000Y-67470000D03*
X147955000Y-67470000D03*
X149955000Y-69470000D03*
X147955000Y-69470000D03*
X149955000Y-71470000D03*
X147955000Y-71470000D03*
X149955000Y-73470000D03*
X147955000Y-73470000D03*
X149955000Y-75470000D03*
X147955000Y-75470000D03*
X149955000Y-77470000D03*
X147955000Y-77470000D03*
X146050000Y-85090000D03*
X143510000Y-85090000D03*
X140970000Y-85090000D03*
X138430000Y-85090000D03*
X135890000Y-85090000D03*
X133350000Y-85090000D03*
X130810000Y-85090000D03*
X128270000Y-85090000D03*
X125730000Y-85090000D03*
X146050000Y-45720000D03*
X143510000Y-45720000D03*
X140970000Y-45720000D03*
X138430000Y-45720000D03*
X135890000Y-45720000D03*
X133350000Y-45720000D03*
X130810000Y-45720000D03*
X128270000Y-45720000D03*
X125730000Y-45720000D03*
M02*
