%TF.GenerationSoftware,KiCad,Pcbnew,(5.1.10)-1*%
%TF.CreationDate,2021-09-07T21:02:14-03:00*%
%TF.ProjectId,SSC,5353432e-6b69-4636-9164-5f7063625858,rev?*%
%TF.SameCoordinates,Original*%
%TF.FileFunction,Paste,Top*%
%TF.FilePolarity,Positive*%
%FSLAX46Y46*%
G04 Gerber Fmt 4.6, Leading zero omitted, Abs format (unit mm)*
G04 Created by KiCad (PCBNEW (5.1.10)-1) date 2021-09-07 21:02:14*
%MOMM*%
%LPD*%
G01*
G04 APERTURE LIST*
%TA.AperFunction,Profile*%
%ADD10C,0.150000*%
%TD*%
G04 APERTURE END LIST*
D10*
X154178000Y-40640000D02*
X114300000Y-40640000D01*
X154178000Y-89916000D02*
X154178000Y-40640000D01*
X114300000Y-89916000D02*
X154178000Y-89916000D01*
X114300000Y-89408000D02*
X114300000Y-89916000D01*
X114300000Y-40640000D02*
X114300000Y-89408000D01*
%TO.C,U2*%
G36*
G01*
X125935000Y-77320000D02*
X125935000Y-77620000D01*
G75*
G02*
X125785000Y-77770000I-150000J0D01*
G01*
X124335000Y-77770000D01*
G75*
G02*
X124185000Y-77620000I0J150000D01*
G01*
X124185000Y-77320000D01*
G75*
G02*
X124335000Y-77170000I150000J0D01*
G01*
X125785000Y-77170000D01*
G75*
G02*
X125935000Y-77320000I0J-150000D01*
G01*
G37*
G36*
G01*
X125935000Y-76050000D02*
X125935000Y-76350000D01*
G75*
G02*
X125785000Y-76500000I-150000J0D01*
G01*
X124335000Y-76500000D01*
G75*
G02*
X124185000Y-76350000I0J150000D01*
G01*
X124185000Y-76050000D01*
G75*
G02*
X124335000Y-75900000I150000J0D01*
G01*
X125785000Y-75900000D01*
G75*
G02*
X125935000Y-76050000I0J-150000D01*
G01*
G37*
G36*
G01*
X125935000Y-74780000D02*
X125935000Y-75080000D01*
G75*
G02*
X125785000Y-75230000I-150000J0D01*
G01*
X124335000Y-75230000D01*
G75*
G02*
X124185000Y-75080000I0J150000D01*
G01*
X124185000Y-74780000D01*
G75*
G02*
X124335000Y-74630000I150000J0D01*
G01*
X125785000Y-74630000D01*
G75*
G02*
X125935000Y-74780000I0J-150000D01*
G01*
G37*
G36*
G01*
X125935000Y-73510000D02*
X125935000Y-73810000D01*
G75*
G02*
X125785000Y-73960000I-150000J0D01*
G01*
X124335000Y-73960000D01*
G75*
G02*
X124185000Y-73810000I0J150000D01*
G01*
X124185000Y-73510000D01*
G75*
G02*
X124335000Y-73360000I150000J0D01*
G01*
X125785000Y-73360000D01*
G75*
G02*
X125935000Y-73510000I0J-150000D01*
G01*
G37*
G36*
G01*
X125935000Y-72240000D02*
X125935000Y-72540000D01*
G75*
G02*
X125785000Y-72690000I-150000J0D01*
G01*
X124335000Y-72690000D01*
G75*
G02*
X124185000Y-72540000I0J150000D01*
G01*
X124185000Y-72240000D01*
G75*
G02*
X124335000Y-72090000I150000J0D01*
G01*
X125785000Y-72090000D01*
G75*
G02*
X125935000Y-72240000I0J-150000D01*
G01*
G37*
G36*
G01*
X125935000Y-70970000D02*
X125935000Y-71270000D01*
G75*
G02*
X125785000Y-71420000I-150000J0D01*
G01*
X124335000Y-71420000D01*
G75*
G02*
X124185000Y-71270000I0J150000D01*
G01*
X124185000Y-70970000D01*
G75*
G02*
X124335000Y-70820000I150000J0D01*
G01*
X125785000Y-70820000D01*
G75*
G02*
X125935000Y-70970000I0J-150000D01*
G01*
G37*
G36*
G01*
X125935000Y-69700000D02*
X125935000Y-70000000D01*
G75*
G02*
X125785000Y-70150000I-150000J0D01*
G01*
X124335000Y-70150000D01*
G75*
G02*
X124185000Y-70000000I0J150000D01*
G01*
X124185000Y-69700000D01*
G75*
G02*
X124335000Y-69550000I150000J0D01*
G01*
X125785000Y-69550000D01*
G75*
G02*
X125935000Y-69700000I0J-150000D01*
G01*
G37*
G36*
G01*
X125935000Y-68430000D02*
X125935000Y-68730000D01*
G75*
G02*
X125785000Y-68880000I-150000J0D01*
G01*
X124335000Y-68880000D01*
G75*
G02*
X124185000Y-68730000I0J150000D01*
G01*
X124185000Y-68430000D01*
G75*
G02*
X124335000Y-68280000I150000J0D01*
G01*
X125785000Y-68280000D01*
G75*
G02*
X125935000Y-68430000I0J-150000D01*
G01*
G37*
G36*
G01*
X131085000Y-68430000D02*
X131085000Y-68730000D01*
G75*
G02*
X130935000Y-68880000I-150000J0D01*
G01*
X129485000Y-68880000D01*
G75*
G02*
X129335000Y-68730000I0J150000D01*
G01*
X129335000Y-68430000D01*
G75*
G02*
X129485000Y-68280000I150000J0D01*
G01*
X130935000Y-68280000D01*
G75*
G02*
X131085000Y-68430000I0J-150000D01*
G01*
G37*
G36*
G01*
X131085000Y-69700000D02*
X131085000Y-70000000D01*
G75*
G02*
X130935000Y-70150000I-150000J0D01*
G01*
X129485000Y-70150000D01*
G75*
G02*
X129335000Y-70000000I0J150000D01*
G01*
X129335000Y-69700000D01*
G75*
G02*
X129485000Y-69550000I150000J0D01*
G01*
X130935000Y-69550000D01*
G75*
G02*
X131085000Y-69700000I0J-150000D01*
G01*
G37*
G36*
G01*
X131085000Y-70970000D02*
X131085000Y-71270000D01*
G75*
G02*
X130935000Y-71420000I-150000J0D01*
G01*
X129485000Y-71420000D01*
G75*
G02*
X129335000Y-71270000I0J150000D01*
G01*
X129335000Y-70970000D01*
G75*
G02*
X129485000Y-70820000I150000J0D01*
G01*
X130935000Y-70820000D01*
G75*
G02*
X131085000Y-70970000I0J-150000D01*
G01*
G37*
G36*
G01*
X131085000Y-72240000D02*
X131085000Y-72540000D01*
G75*
G02*
X130935000Y-72690000I-150000J0D01*
G01*
X129485000Y-72690000D01*
G75*
G02*
X129335000Y-72540000I0J150000D01*
G01*
X129335000Y-72240000D01*
G75*
G02*
X129485000Y-72090000I150000J0D01*
G01*
X130935000Y-72090000D01*
G75*
G02*
X131085000Y-72240000I0J-150000D01*
G01*
G37*
G36*
G01*
X131085000Y-73510000D02*
X131085000Y-73810000D01*
G75*
G02*
X130935000Y-73960000I-150000J0D01*
G01*
X129485000Y-73960000D01*
G75*
G02*
X129335000Y-73810000I0J150000D01*
G01*
X129335000Y-73510000D01*
G75*
G02*
X129485000Y-73360000I150000J0D01*
G01*
X130935000Y-73360000D01*
G75*
G02*
X131085000Y-73510000I0J-150000D01*
G01*
G37*
G36*
G01*
X131085000Y-74780000D02*
X131085000Y-75080000D01*
G75*
G02*
X130935000Y-75230000I-150000J0D01*
G01*
X129485000Y-75230000D01*
G75*
G02*
X129335000Y-75080000I0J150000D01*
G01*
X129335000Y-74780000D01*
G75*
G02*
X129485000Y-74630000I150000J0D01*
G01*
X130935000Y-74630000D01*
G75*
G02*
X131085000Y-74780000I0J-150000D01*
G01*
G37*
G36*
G01*
X131085000Y-76050000D02*
X131085000Y-76350000D01*
G75*
G02*
X130935000Y-76500000I-150000J0D01*
G01*
X129485000Y-76500000D01*
G75*
G02*
X129335000Y-76350000I0J150000D01*
G01*
X129335000Y-76050000D01*
G75*
G02*
X129485000Y-75900000I150000J0D01*
G01*
X130935000Y-75900000D01*
G75*
G02*
X131085000Y-76050000I0J-150000D01*
G01*
G37*
G36*
G01*
X131085000Y-77320000D02*
X131085000Y-77620000D01*
G75*
G02*
X130935000Y-77770000I-150000J0D01*
G01*
X129485000Y-77770000D01*
G75*
G02*
X129335000Y-77620000I0J150000D01*
G01*
X129335000Y-77320000D01*
G75*
G02*
X129485000Y-77170000I150000J0D01*
G01*
X130935000Y-77170000D01*
G75*
G02*
X131085000Y-77320000I0J-150000D01*
G01*
G37*
%TD*%
%TO.C,U1*%
G36*
G01*
X129335000Y-53490000D02*
X129335000Y-53190000D01*
G75*
G02*
X129485000Y-53040000I150000J0D01*
G01*
X130935000Y-53040000D01*
G75*
G02*
X131085000Y-53190000I0J-150000D01*
G01*
X131085000Y-53490000D01*
G75*
G02*
X130935000Y-53640000I-150000J0D01*
G01*
X129485000Y-53640000D01*
G75*
G02*
X129335000Y-53490000I0J150000D01*
G01*
G37*
G36*
G01*
X129335000Y-54760000D02*
X129335000Y-54460000D01*
G75*
G02*
X129485000Y-54310000I150000J0D01*
G01*
X130935000Y-54310000D01*
G75*
G02*
X131085000Y-54460000I0J-150000D01*
G01*
X131085000Y-54760000D01*
G75*
G02*
X130935000Y-54910000I-150000J0D01*
G01*
X129485000Y-54910000D01*
G75*
G02*
X129335000Y-54760000I0J150000D01*
G01*
G37*
G36*
G01*
X129335000Y-56030000D02*
X129335000Y-55730000D01*
G75*
G02*
X129485000Y-55580000I150000J0D01*
G01*
X130935000Y-55580000D01*
G75*
G02*
X131085000Y-55730000I0J-150000D01*
G01*
X131085000Y-56030000D01*
G75*
G02*
X130935000Y-56180000I-150000J0D01*
G01*
X129485000Y-56180000D01*
G75*
G02*
X129335000Y-56030000I0J150000D01*
G01*
G37*
G36*
G01*
X129335000Y-57300000D02*
X129335000Y-57000000D01*
G75*
G02*
X129485000Y-56850000I150000J0D01*
G01*
X130935000Y-56850000D01*
G75*
G02*
X131085000Y-57000000I0J-150000D01*
G01*
X131085000Y-57300000D01*
G75*
G02*
X130935000Y-57450000I-150000J0D01*
G01*
X129485000Y-57450000D01*
G75*
G02*
X129335000Y-57300000I0J150000D01*
G01*
G37*
G36*
G01*
X129335000Y-58570000D02*
X129335000Y-58270000D01*
G75*
G02*
X129485000Y-58120000I150000J0D01*
G01*
X130935000Y-58120000D01*
G75*
G02*
X131085000Y-58270000I0J-150000D01*
G01*
X131085000Y-58570000D01*
G75*
G02*
X130935000Y-58720000I-150000J0D01*
G01*
X129485000Y-58720000D01*
G75*
G02*
X129335000Y-58570000I0J150000D01*
G01*
G37*
G36*
G01*
X129335000Y-59840000D02*
X129335000Y-59540000D01*
G75*
G02*
X129485000Y-59390000I150000J0D01*
G01*
X130935000Y-59390000D01*
G75*
G02*
X131085000Y-59540000I0J-150000D01*
G01*
X131085000Y-59840000D01*
G75*
G02*
X130935000Y-59990000I-150000J0D01*
G01*
X129485000Y-59990000D01*
G75*
G02*
X129335000Y-59840000I0J150000D01*
G01*
G37*
G36*
G01*
X129335000Y-61110000D02*
X129335000Y-60810000D01*
G75*
G02*
X129485000Y-60660000I150000J0D01*
G01*
X130935000Y-60660000D01*
G75*
G02*
X131085000Y-60810000I0J-150000D01*
G01*
X131085000Y-61110000D01*
G75*
G02*
X130935000Y-61260000I-150000J0D01*
G01*
X129485000Y-61260000D01*
G75*
G02*
X129335000Y-61110000I0J150000D01*
G01*
G37*
G36*
G01*
X129335000Y-62380000D02*
X129335000Y-62080000D01*
G75*
G02*
X129485000Y-61930000I150000J0D01*
G01*
X130935000Y-61930000D01*
G75*
G02*
X131085000Y-62080000I0J-150000D01*
G01*
X131085000Y-62380000D01*
G75*
G02*
X130935000Y-62530000I-150000J0D01*
G01*
X129485000Y-62530000D01*
G75*
G02*
X129335000Y-62380000I0J150000D01*
G01*
G37*
G36*
G01*
X124185000Y-62380000D02*
X124185000Y-62080000D01*
G75*
G02*
X124335000Y-61930000I150000J0D01*
G01*
X125785000Y-61930000D01*
G75*
G02*
X125935000Y-62080000I0J-150000D01*
G01*
X125935000Y-62380000D01*
G75*
G02*
X125785000Y-62530000I-150000J0D01*
G01*
X124335000Y-62530000D01*
G75*
G02*
X124185000Y-62380000I0J150000D01*
G01*
G37*
G36*
G01*
X124185000Y-61110000D02*
X124185000Y-60810000D01*
G75*
G02*
X124335000Y-60660000I150000J0D01*
G01*
X125785000Y-60660000D01*
G75*
G02*
X125935000Y-60810000I0J-150000D01*
G01*
X125935000Y-61110000D01*
G75*
G02*
X125785000Y-61260000I-150000J0D01*
G01*
X124335000Y-61260000D01*
G75*
G02*
X124185000Y-61110000I0J150000D01*
G01*
G37*
G36*
G01*
X124185000Y-59840000D02*
X124185000Y-59540000D01*
G75*
G02*
X124335000Y-59390000I150000J0D01*
G01*
X125785000Y-59390000D01*
G75*
G02*
X125935000Y-59540000I0J-150000D01*
G01*
X125935000Y-59840000D01*
G75*
G02*
X125785000Y-59990000I-150000J0D01*
G01*
X124335000Y-59990000D01*
G75*
G02*
X124185000Y-59840000I0J150000D01*
G01*
G37*
G36*
G01*
X124185000Y-58570000D02*
X124185000Y-58270000D01*
G75*
G02*
X124335000Y-58120000I150000J0D01*
G01*
X125785000Y-58120000D01*
G75*
G02*
X125935000Y-58270000I0J-150000D01*
G01*
X125935000Y-58570000D01*
G75*
G02*
X125785000Y-58720000I-150000J0D01*
G01*
X124335000Y-58720000D01*
G75*
G02*
X124185000Y-58570000I0J150000D01*
G01*
G37*
G36*
G01*
X124185000Y-57300000D02*
X124185000Y-57000000D01*
G75*
G02*
X124335000Y-56850000I150000J0D01*
G01*
X125785000Y-56850000D01*
G75*
G02*
X125935000Y-57000000I0J-150000D01*
G01*
X125935000Y-57300000D01*
G75*
G02*
X125785000Y-57450000I-150000J0D01*
G01*
X124335000Y-57450000D01*
G75*
G02*
X124185000Y-57300000I0J150000D01*
G01*
G37*
G36*
G01*
X124185000Y-56030000D02*
X124185000Y-55730000D01*
G75*
G02*
X124335000Y-55580000I150000J0D01*
G01*
X125785000Y-55580000D01*
G75*
G02*
X125935000Y-55730000I0J-150000D01*
G01*
X125935000Y-56030000D01*
G75*
G02*
X125785000Y-56180000I-150000J0D01*
G01*
X124335000Y-56180000D01*
G75*
G02*
X124185000Y-56030000I0J150000D01*
G01*
G37*
G36*
G01*
X124185000Y-54760000D02*
X124185000Y-54460000D01*
G75*
G02*
X124335000Y-54310000I150000J0D01*
G01*
X125785000Y-54310000D01*
G75*
G02*
X125935000Y-54460000I0J-150000D01*
G01*
X125935000Y-54760000D01*
G75*
G02*
X125785000Y-54910000I-150000J0D01*
G01*
X124335000Y-54910000D01*
G75*
G02*
X124185000Y-54760000I0J150000D01*
G01*
G37*
G36*
G01*
X124185000Y-53490000D02*
X124185000Y-53190000D01*
G75*
G02*
X124335000Y-53040000I150000J0D01*
G01*
X125785000Y-53040000D01*
G75*
G02*
X125935000Y-53190000I0J-150000D01*
G01*
X125935000Y-53490000D01*
G75*
G02*
X125785000Y-53640000I-150000J0D01*
G01*
X124335000Y-53640000D01*
G75*
G02*
X124185000Y-53490000I0J150000D01*
G01*
G37*
%TD*%
M02*
