M48
METRIC
T1C0.400
T2C0.800
T3C0.950
T4C2.200
%
G90
G05
T1
X119.888Y-61.976
X123.444Y-54.864
X123.444Y-74.168
X125.0Y-41.5
X129.5Y-79.5
X130.556Y-52.324
X130.99Y-63.91
X130.99Y-65.41
X130.99Y-66.91
X131.959Y-55.251
X132.08Y-76.2
X132.49Y-63.91
X132.49Y-65.41
X132.49Y-66.91
X132.588Y-53.107
X133.0Y-80.5
X133.99Y-63.91
X133.99Y-65.41
X133.99Y-66.91
X141.5Y-87.5
X142.0Y-41.5
T2
X125.73Y-45.72
X125.73Y-85.09
X128.27Y-45.72
X128.27Y-85.09
X130.81Y-45.72
X130.81Y-85.09
X133.35Y-45.72
X133.35Y-85.09
X135.89Y-45.72
X135.89Y-85.09
X138.43Y-45.72
X138.43Y-85.09
X140.97Y-45.72
X140.97Y-85.09
X143.51Y-45.72
X143.51Y-85.09
X146.05Y-45.72
X146.05Y-85.09
X147.955Y-53.47
X147.955Y-55.47
X147.955Y-57.47
X147.955Y-59.47
X147.955Y-61.47
X147.955Y-63.47
X147.955Y-65.47
X147.955Y-67.47
X147.955Y-69.47
X147.955Y-71.47
X147.955Y-73.47
X147.955Y-75.47
X147.955Y-77.47
X149.955Y-53.47
X149.955Y-55.47
X149.955Y-57.47
X149.955Y-59.47
X149.955Y-61.47
X149.955Y-63.47
X149.955Y-65.47
X149.955Y-67.47
X149.955Y-69.47
X149.955Y-71.47
X149.955Y-73.47
X149.955Y-75.47
X149.955Y-77.47
T3
X117.475Y-55.245
X117.475Y-57.745
X117.475Y-60.245
X117.475Y-62.745
X117.475Y-65.245
X117.475Y-67.745
X117.475Y-70.245
X117.475Y-72.745
X117.475Y-75.245
T4
X117.348Y-43.688
X117.348Y-86.868
X151.13Y-43.688
X151.13Y-86.868
T0
M30
